<?xml version="1.0" encoding="UTF-8" standalone="no"?>
<!-- Created with Bouml (http://bouml.free.fr/) -->
<!DOCTYPE svg PUBLIC "-//W3C//DTD SVG 1.1//EN" "http://www.w3.org/Graphics/SVG/1.1/DTD/svg11.dtd">
<svg width="1232" height="1178" version="1.1" xmlns="http://www.w3.org/2000/svg">
<g>
	<rect fill="#ededed" stroke="black" stroke-width="1" stroke-opacity="1" x="2" y="195" width="235" height="971" />
	<text font-family="Helvetica" font-size="7" fill="#000000" xml:space="preserve" text-anchor="middle" x="53" y="212">Fixed Function</text>
	<line stroke="black" stroke-opacity="1" x1="2" y1="221" x2="104" y2="221" />
	<line stroke="black" stroke-opacity="1" x1="104" y1="221" x2="117" y2="208" />
	<line stroke="black" stroke-opacity="1" x1="117" y1="208" x2="117" y2="195" />
</g>
<g>
	<line stroke="black" stroke-dasharray="20,4" stroke-opacity="1" x1="2" y1="476" x2="237" y2="476" />
</g>
<g>
	<line stroke="black" stroke-dasharray="20,4" stroke-opacity="1" x1="2" y1="707" x2="237" y2="707" />
</g>
<g>
	<line stroke="black" stroke-dasharray="20,4" stroke-opacity="1" x1="2" y1="390" x2="237" y2="390" />
</g>
<g>
	<rect fill="#c0ffff" stroke="black" stroke-width="1" stroke-opacity="1" x="237" y="195" width="743" height="971" />
	<text font-family="Helvetica" font-size="7" fill="#000000" xml:space="preserve" text-anchor="middle" x="313" y="212">Programmable Shader</text>
	<line stroke="black" stroke-opacity="1" x1="237" y1="221" x2="389" y2="221" />
	<line stroke="black" stroke-opacity="1" x1="389" y1="221" x2="402" y2="208" />
	<line stroke="black" stroke-opacity="1" x1="402" y1="208" x2="402" y2="195" />
</g>
<g>
	<line stroke="black" stroke-dasharray="20,4" stroke-opacity="1" x1="237" y1="476" x2="980" y2="476" />
</g>
<g>
	<line stroke="black" stroke-dasharray="20,4" stroke-opacity="1" x1="237" y1="707" x2="980" y2="707" />
</g>
<g>
	<line stroke="black" stroke-dasharray="20,4" stroke-opacity="1" x1="237" y1="390" x2="980" y2="390" />
</g>
<g>
	<line stroke="black" stroke-opacity="1" x1="136" y1="233" x2="175" y2="186" />
	<line stroke="black" stroke-opacity="1" x1="179" y1="182" x2="170" y2="182" />
	<line stroke="black" stroke-opacity="1" x1="179" y1="182" x2="179" y2="190" />
	<line stroke="black" stroke-opacity="1" x1="170" y1="182" x2="179" y2="190" />
</g>
<g>
	<line stroke="black" stroke-opacity="1" x1="305" y1="234" x2="253" y2="186" />
	<line stroke="black" stroke-opacity="1" x1="249" y1="182" x2="249" y2="190" />
	<line stroke="black" stroke-opacity="1" x1="249" y1="182" x2="257" y2="181" />
	<line stroke="black" stroke-opacity="1" x1="249" y1="190" x2="257" y2="181" />
</g>
<g>
	<line stroke="black" stroke-opacity="1" x1="108" y1="491" x2="108" y2="306" />
	<line stroke="black" stroke-opacity="1" x1="108" y1="300" x2="102" y2="306" />
	<line stroke="black" stroke-opacity="1" x1="108" y1="300" x2="114" y2="306" />
	<line stroke="black" stroke-opacity="1" x1="102" y1="306" x2="114" y2="306" />
</g>
<g>
	<line stroke="black" stroke-opacity="1" x1="343" y1="488" x2="343" y2="307" />
	<line stroke="black" stroke-opacity="1" x1="343" y1="301" x2="337" y2="307" />
	<line stroke="black" stroke-opacity="1" x1="343" y1="301" x2="349" y2="307" />
	<line stroke="black" stroke-opacity="1" x1="337" y1="307" x2="349" y2="307" />
</g>
<g>
	<line stroke="black" stroke-opacity="1" x1="650" y1="855" x2="509" y2="468" />
	<line stroke="black" stroke-opacity="1" x1="507" y1="463" x2="503" y2="470" />
	<line stroke="black" stroke-opacity="1" x1="507" y1="463" x2="514" y2="466" />
	<line stroke="black" stroke-opacity="1" x1="503" y1="470" x2="514" y2="466" />
</g>
<g>
	<line stroke="black" stroke-opacity="1" x1="261" y1="745" x2="465" y2="467" />
	<line stroke="black" stroke-opacity="1" x1="469" y1="463" x2="460" y2="464" />
	<line stroke="black" stroke-opacity="1" x1="469" y1="463" x2="470" y2="471" />
	<line stroke="black" stroke-opacity="1" x1="460" y1="464" x2="470" y2="471" />
</g>
<g>
	<line stroke="black" stroke-opacity="1" x1="227" y1="745" x2="116" y2="305" />
	<line stroke="black" stroke-opacity="1" x1="115" y1="300" x2="110" y2="307" />
	<line stroke="black" stroke-opacity="1" x1="115" y1="300" x2="122" y2="304" />
	<line stroke="black" stroke-opacity="1" x1="110" y1="307" x2="122" y2="304" />
</g>
<g>
	<line stroke="black" stroke-opacity="1" x1="712" y1="99" x2="523" y2="50" />
</g>
<g>
	<line stroke-dasharray="4,4" stroke="black" stroke-opacity="1" x1="108" y1="577" x2="108" y2="564" />
	<line stroke="black" stroke-opacity="1" x1="108" y1="558" x2="102" y2="564" />
	<line stroke="black" stroke-opacity="1" x1="108" y1="558" x2="114" y2="564" />
	<line stroke="black" stroke-opacity="1" x1="102" y1="564" x2="114" y2="564" />
</g>
<g>
	<line stroke-dasharray="4,4" stroke="black" stroke-opacity="1" x1="514" y1="1087" x2="632" y2="926" />
	<line stroke="black" stroke-opacity="1" x1="636" y1="922" x2="627" y2="923" />
	<line stroke="black" stroke-opacity="1" x1="636" y1="922" x2="637" y2="930" />
	<line stroke="black" stroke-opacity="1" x1="627" y1="923" x2="637" y2="930" />
</g>
<g>
	<line stroke="black" stroke-opacity="1" x1="1107" y1="443" x2="1107" y2="409" />
	<line stroke="black" stroke-opacity="1" x1="1107" y1="403" x2="1101" y2="409" />
	<line stroke="black" stroke-opacity="1" x1="1107" y1="403" x2="1113" y2="409" />
	<line stroke="black" stroke-opacity="1" x1="1101" y1="409" x2="1113" y2="409" />
</g>
<g>
	<line stroke="black" stroke-opacity="1" x1="1068" y1="303" x2="1070" y2="360" />
</g>
<g>
	<line stroke="black" stroke-opacity="1" x1="1105" y1="260" x2="1105" y2="236" />
</g>
<g>
	<line stroke="black" stroke-opacity="1" x1="1051" y1="187" x2="807" y2="123" />
</g>
<g>
	<line stroke="black" stroke-opacity="1" x1="1107" y1="547" x2="1107" y2="486" />
</g>
<g>
	<line stroke="black" stroke-opacity="1" x1="1136" y1="360" x2="1135" y2="303" />
</g>
<g>
	<line stroke="black" stroke-opacity="1" x1="1107" y1="547" x2="1107" y2="486" />
</g>
<g>
	<line stroke="black" stroke-opacity="1" x1="212" y1="115" x2="212" y2="79" />
	<line stroke="black" stroke-opacity="1" x1="212" y1="73" x2="206" y2="79" />
	<line stroke="black" stroke-opacity="1" x1="212" y1="73" x2="218" y2="79" />
	<line stroke="black" stroke-opacity="1" x1="206" y1="79" x2="218" y2="79" />
</g>
<g>
	<line stroke="black" stroke-opacity="1" x1="262" y1="40" x2="436" y2="40" />
</g>
<g>
	<rect fill="#808080" stroke="none" stroke-opacity="1" x="282" y="860" width="3" height="61" />
	<rect fill="#808080" stroke="none" stroke-opacity="1" x="192" y="918" width="93" height="3" />
	<rect fill="#ffffc0" stroke="black" stroke-width="1" stroke-opacity="1" x="188" y="856" width="94" height="62" />
	<text font-family="Helvetica" font-size="7" fill="#000000" xml:space="preserve" text-anchor="middle" x="235" y="865">&lt;&lt;interface&gt;&gt;</text>
	<text font-family="Helvetica" font-size="7" fill="#000000" xml:space="preserve" font-weight="bold" text-anchor="middle" x="235" y="888">GL3bc</text>
	<line stroke="black" stroke-opacity="1" x1="188" y1="902" x2="282" y2="902" />
	<line stroke="black" stroke-opacity="1" x1="188" y1="910" x2="282" y2="910" />
</g>
<g>
	<rect fill="#808080" stroke="none" stroke-opacity="1" x="153" y="238" width="3" height="61" />
	<rect fill="#808080" stroke="none" stroke-opacity="1" x="63" y="296" width="93" height="3" />
	<rect fill="#ffffc0" stroke="black" stroke-width="1" stroke-opacity="1" x="59" y="234" width="94" height="62" />
	<text font-family="Helvetica" font-size="7" fill="#000000" xml:space="preserve" text-anchor="middle" x="106" y="243">&lt;&lt;interface&gt;&gt;</text>
	<text font-family="Helvetica" font-size="7" fill="#000000" xml:space="preserve" font-weight="bold" text-anchor="middle" x="106" y="266">GL2ES1</text>
	<line stroke="black" stroke-opacity="1" x1="59" y1="280" x2="153" y2="280" />
	<line stroke="black" stroke-opacity="1" x1="59" y1="288" x2="153" y2="288" />
</g>
<g>
	<rect fill="#808080" stroke="none" stroke-opacity="1" x="257" y="120" width="3" height="61" />
	<rect fill="#808080" stroke="none" stroke-opacity="1" x="167" y="178" width="93" height="3" />
	<rect fill="#ffffc0" stroke="black" stroke-width="1" stroke-opacity="1" x="163" y="116" width="94" height="62" />
	<text font-family="Helvetica" font-size="7" fill="#000000" xml:space="preserve" text-anchor="middle" x="210" y="125">&lt;&lt;interface&gt;&gt;</text>
	<text font-family="Helvetica" font-size="7" fill="#000000" xml:space="preserve" font-weight="bold" text-anchor="middle" x="210" y="148">GL</text>
	<line stroke="black" stroke-opacity="1" x1="163" y1="162" x2="257" y2="162" />
	<line stroke="black" stroke-opacity="1" x1="163" y1="170" x2="257" y2="170" />
</g>
<g>
	<rect fill="#808080" stroke="none" stroke-opacity="1" x="880" y="989" width="3" height="61" />
	<rect fill="#808080" stroke="none" stroke-opacity="1" x="790" y="1047" width="93" height="3" />
	<rect fill="#ffffc0" stroke="black" stroke-width="1" stroke-opacity="1" x="786" y="985" width="94" height="62" />
	<text font-family="Helvetica" font-size="7" fill="#000000" xml:space="preserve" text-anchor="middle" x="833" y="994">&lt;&lt;interface&gt;&gt;</text>
	<text font-family="Helvetica" font-size="7" fill="#000000" xml:space="preserve" font-weight="bold" text-anchor="middle" x="833" y="1017">GL4</text>
	<line stroke="black" stroke-opacity="1" x1="786" y1="1031" x2="880" y2="1031" />
	<line stroke="black" stroke-opacity="1" x1="786" y1="1039" x2="880" y2="1039" />
</g>
<g>
	<rect fill="#808080" stroke="none" stroke-opacity="1" x="519" y="23" width="3" height="37" />
	<rect fill="#808080" stroke="none" stroke-opacity="1" x="441" y="57" width="81" height="3" />
	<rect fill="#ffffc0" stroke="black" stroke-width="1" stroke-opacity="1" x="437" y="19" width="82" height="38" />
	<text font-family="Helvetica" font-size="7" fill="#000000" xml:space="preserve" font-weight="bold" font-style="italic" text-anchor="middle" x="478" y="28">GLContext</text>
	<line stroke="black" stroke-opacity="1" x1="437" y1="42" x2="519" y2="42" />
	<line stroke="black" stroke-opacity="1" x1="437" y1="50" x2="519" y2="50" />
</g>
<g>
	<rect fill="#808080" stroke="none" stroke-opacity="1" x="803" y="95" width="3" height="37" />
	<rect fill="#808080" stroke="none" stroke-opacity="1" x="717" y="129" width="89" height="3" />
	<rect fill="#ffffc0" stroke="black" stroke-width="1" stroke-opacity="1" x="713" y="91" width="90" height="38" />
	<text font-family="Helvetica" font-size="7" fill="#000000" xml:space="preserve" font-weight="bold" font-style="italic" text-anchor="middle" x="758" y="100">GLDrawable</text>
	<line stroke="black" stroke-opacity="1" x1="713" y1="114" x2="803" y2="114" />
	<line stroke="black" stroke-opacity="1" x1="713" y1="122" x2="803" y2="122" />
</g>
<g>
	<rect fill="none" stroke="black" stroke-width="1" stroke-opacity="1" x="444" y="258" width="104" height="62" />
	<text font-family="Helvetica" font-size="7" fill="#000000" xml:space="preserve" text-anchor="middle" x="496" y="267">&lt;&lt;metaclass&gt;&gt;</text>
	<text font-family="Helvetica" font-size="7" fill="#000000" xml:space="preserve" font-weight="bold" font-style="italic" text-anchor="middle" x="496" y="290">GL2ES3</text>
	<line stroke="black" stroke-opacity="1" x1="444" y1="304" x2="548" y2="304" />
	<line stroke="black" stroke-opacity="1" x1="444" y1="312" x2="548" y2="312" />
</g>
	<text font-family="Helvetica" font-size="7" fill="#000000" xml:space="preserve" x="851" y="508">Mobile final public</text>
	<text font-family="Helvetica" font-size="7" fill="#000000" xml:space="preserve" x="851" y="527">OpenGL Interfaces</text>
<g>
	<line stroke="black" stroke-opacity="1" x1="483" y1="1108" x2="503" y2="1108" />
	<ellipse fill="#ffffc0" stroke="black" stroke-width="1" stroke-opacity="1" cx="493" cy="1098" rx="10" ry="10" />
	<text font-family="Helvetica" font-size="7" fill="#000000" xml:space="preserve" font-weight="bold" text-anchor="middle" x="493" y="1117">GL4bcImpl</text>
	<line stroke="black" stroke-opacity="1" x1="452" y1="1131" x2="534" y2="1131" />
	<line stroke="black" stroke-opacity="1" x1="452" y1="1139" x2="534" y2="1139" />
</g>
<g>
	<line stroke="black" stroke-opacity="1" x1="755" y1="676" x2="775" y2="676" />
	<ellipse fill="#ffffc0" stroke="black" stroke-width="1" stroke-opacity="1" cx="765" cy="666" rx="10" ry="10" />
	<text font-family="Helvetica" font-size="7" fill="#000000" xml:space="preserve" font-weight="bold" text-anchor="middle" x="765" y="685">GLES3Impl</text>
	<line stroke="black" stroke-opacity="1" x1="724" y1="699" x2="806" y2="699" />
	<line stroke="black" stroke-opacity="1" x1="724" y1="707" x2="806" y2="707" />
</g>
	<text font-family="Helvetica" font-size="7" fill="#000000" xml:space="preserve" x="17" y="1113">Private implementation</text>
	<text font-family="Helvetica" font-size="7" fill="#000000" xml:space="preserve" x="17" y="1132">(detail)</text>
	<text font-family="Helvetica" font-size="7" fill="#000000" xml:space="preserve" x="851" y="224">Desktop/Mobile</text>
	<text font-family="Helvetica" font-size="7" fill="#000000" xml:space="preserve" x="851" y="243">Common Interfaces</text>
<g>
	<rect fill="#808080" stroke="none" stroke-opacity="1" x="1158" y="174" width="3" height="61" />
	<rect fill="#808080" stroke="none" stroke-opacity="1" x="1056" y="232" width="105" height="3" />
	<rect fill="#ffffc0" stroke="black" stroke-width="1" stroke-opacity="1" x="1052" y="170" width="106" height="62" />
	<text font-family="Helvetica" font-size="7" fill="#000000" xml:space="preserve" text-anchor="middle" x="1105" y="179">&lt;&lt;interface&gt;&gt;</text>
	<text font-family="Helvetica" font-size="7" fill="#000000" xml:space="preserve" font-weight="bold" text-anchor="middle" x="1105" y="202">NativeWindow</text>
	<line stroke="black" stroke-opacity="1" x1="1052" y1="216" x2="1158" y2="216" />
	<line stroke="black" stroke-opacity="1" x1="1052" y1="224" x2="1158" y2="224" />
</g>
<g>
	<rect fill="#808080" stroke="none" stroke-opacity="1" x="1216" y="265" width="3" height="37" />
	<rect fill="#808080" stroke="none" stroke-opacity="1" x="998" y="299" width="221" height="3" />
	<rect fill="#ffffc0" stroke="black" stroke-width="1" stroke-opacity="1" x="994" y="261" width="222" height="38" />
	<text font-family="Helvetica" font-size="7" fill="#000000" xml:space="preserve" font-weight="bold" font-style="italic" text-anchor="middle" x="1105" y="270">AbstractGraphicsConfiguration</text>
	<line stroke="black" stroke-opacity="1" x1="994" y1="284" x2="1216" y2="284" />
	<line stroke="black" stroke-opacity="1" x1="994" y1="292" x2="1216" y2="292" />
</g>
<g>
	<rect fill="#808080" stroke="none" stroke-opacity="1" x="1159" y="448" width="3" height="37" />
	<rect fill="#808080" stroke="none" stroke-opacity="1" x="1055" y="482" width="107" height="3" />
	<rect fill="#ffffc0" stroke="black" stroke-width="1" stroke-opacity="1" x="1051" y="444" width="108" height="38" />
	<text font-family="Helvetica" font-size="7" fill="#000000" xml:space="preserve" font-weight="bold" text-anchor="middle" x="1105" y="453">GLCapabilities</text>
	<line stroke="black" stroke-opacity="1" x1="1051" y1="467" x2="1159" y2="467" />
	<line stroke="black" stroke-opacity="1" x1="1051" y1="475" x2="1159" y2="475" />
</g>
	<text font-family="Helvetica" font-size="7" fill="#000000" xml:space="preserve" x="845" y="28">Lifecycle: From the lower right to</text>
	<text font-family="Helvetica" font-size="7" fill="#000000" xml:space="preserve" x="845" y="47">the top, left step where the</text>
	<text font-family="Helvetica" font-size="7" fill="#000000" xml:space="preserve" x="845" y="66">GLContext is created with a</text>
	<text font-family="Helvetica" font-size="7" fill="#000000" xml:space="preserve" x="845" y="85">suitable GL implementation</text>
	<text font-family="Helvetica" font-size="7" fill="#000000" xml:space="preserve" x="845" y="104">matching the GLProfile.</text>
<g>
	<rect fill="#808080" stroke="none" stroke-opacity="1" x="1141" y="552" width="3" height="37" />
	<rect fill="#808080" stroke="none" stroke-opacity="1" x="1073" y="586" width="71" height="3" />
	<rect fill="#ffffc0" stroke="black" stroke-width="1" stroke-opacity="1" x="1069" y="548" width="72" height="38" />
	<text font-family="Helvetica" font-size="7" fill="#000000" xml:space="preserve" font-weight="bold" text-anchor="middle" x="1105" y="557">GLProfile</text>
	<line stroke="black" stroke-opacity="1" x1="1069" y1="571" x2="1141" y2="571" />
	<line stroke="black" stroke-opacity="1" x1="1069" y1="579" x2="1141" y2="579" />
</g>
<g>
	<rect fill="#808080" stroke="none" stroke-opacity="1" x="258" y="11" width="3" height="61" />
	<rect fill="#808080" stroke="none" stroke-opacity="1" x="168" y="69" width="93" height="3" />
	<rect fill="#ffffc0" stroke="black" stroke-width="1" stroke-opacity="1" x="164" y="7" width="94" height="62" />
	<text font-family="Helvetica" font-size="7" fill="#000000" xml:space="preserve" text-anchor="middle" x="211" y="16">&lt;&lt;interface&gt;&gt;</text>
	<text font-family="Helvetica" font-size="7" fill="#000000" xml:space="preserve" font-weight="bold" text-anchor="middle" x="211" y="39">GLBase</text>
	<line stroke="black" stroke-opacity="1" x1="164" y1="53" x2="258" y2="53" />
	<line stroke="black" stroke-opacity="1" x1="164" y1="61" x2="258" y2="61" />
</g>
	<text font-family="Helvetica" font-size="7" fill="#000000" xml:space="preserve" x="271" y="153">Common GL</text>
	<text font-family="Helvetica" font-size="7" fill="#000000" xml:space="preserve" x="271" y="172">Stuff</text>
	<text font-family="Helvetica" font-size="7" fill="#000000" xml:space="preserve" x="851" y="419">Common Desktop</text>
	<text font-family="Helvetica" font-size="7" fill="#000000" xml:space="preserve" x="851" y="438">Profile</text>
<g>
	<rect fill="#808080" stroke="none" stroke-opacity="1" x="887" y="317" width="3" height="61" />
	<rect fill="#808080" stroke="none" stroke-opacity="1" x="783" y="375" width="107" height="3" />
	<rect fill="#ffffc0" stroke="black" stroke-width="1" stroke-opacity="1" x="779" y="313" width="108" height="62" />
	<text font-family="Helvetica" font-size="7" fill="#000000" xml:space="preserve" text-anchor="middle" x="833" y="322">&lt;&lt;@interface&gt;&gt;</text>
	<text font-family="Helvetica" font-size="7" fill="#000000" xml:space="preserve" font-weight="bold" text-anchor="middle" x="833" y="345">GL4ES3</text>
	<line stroke="black" stroke-opacity="1" x1="779" y1="359" x2="887" y2="359" />
	<line stroke="black" stroke-opacity="1" x1="779" y1="367" x2="887" y2="367" />
</g>
<g>
	<rect fill="#808080" stroke="none" stroke-opacity="1" x="282" y="989" width="3" height="61" />
	<rect fill="#808080" stroke="none" stroke-opacity="1" x="192" y="1047" width="93" height="3" />
	<rect fill="#ffffc0" stroke="black" stroke-width="1" stroke-opacity="1" x="188" y="985" width="94" height="62" />
	<text font-family="Helvetica" font-size="7" fill="#000000" xml:space="preserve" text-anchor="middle" x="235" y="994">&lt;&lt;interface&gt;&gt;</text>
	<text font-family="Helvetica" font-size="7" fill="#000000" xml:space="preserve" font-weight="bold" text-anchor="middle" x="235" y="1017">GL4bc</text>
	<line stroke="black" stroke-opacity="1" x1="188" y1="1031" x2="282" y2="1031" />
	<line stroke="black" stroke-opacity="1" x1="188" y1="1039" x2="282" y2="1039" />
</g>
<g>
	<rect fill="#808080" stroke="none" stroke-opacity="1" x="153" y="496" width="3" height="61" />
	<rect fill="#808080" stroke="none" stroke-opacity="1" x="63" y="554" width="93" height="3" />
	<rect fill="#ffffc0" stroke="black" stroke-width="1" stroke-opacity="1" x="59" y="492" width="94" height="62" />
	<text font-family="Helvetica" font-size="7" fill="#000000" xml:space="preserve" text-anchor="middle" x="106" y="501">&lt;&lt;interface&gt;&gt;</text>
	<text font-family="Helvetica" font-size="7" fill="#000000" xml:space="preserve" font-weight="bold" text-anchor="middle" x="106" y="524">GLES1</text>
	<line stroke="black" stroke-opacity="1" x1="59" y1="538" x2="153" y2="538" />
	<line stroke="black" stroke-opacity="1" x1="59" y1="546" x2="153" y2="546" />
</g>
<g>
	<rect fill="#808080" stroke="none" stroke-opacity="1" x="282" y="750" width="3" height="61" />
	<rect fill="#808080" stroke="none" stroke-opacity="1" x="192" y="808" width="93" height="3" />
	<rect fill="#ffffc0" stroke="black" stroke-width="1" stroke-opacity="1" x="188" y="746" width="94" height="62" />
	<text font-family="Helvetica" font-size="7" fill="#000000" xml:space="preserve" text-anchor="middle" x="235" y="755">&lt;&lt;interface&gt;&gt;</text>
	<text font-family="Helvetica" font-size="7" fill="#000000" xml:space="preserve" font-weight="bold" text-anchor="middle" x="235" y="778">GL2</text>
	<line stroke="black" stroke-opacity="1" x1="188" y1="792" x2="282" y2="792" />
	<line stroke="black" stroke-opacity="1" x1="188" y1="800" x2="282" y2="800" />
</g>
<g>
	<rect fill="#808080" stroke="none" stroke-opacity="1" x="388" y="239" width="3" height="61" />
	<rect fill="#808080" stroke="none" stroke-opacity="1" x="298" y="297" width="93" height="3" />
	<rect fill="#ffffc0" stroke="black" stroke-width="1" stroke-opacity="1" x="294" y="235" width="94" height="62" />
	<text font-family="Helvetica" font-size="7" fill="#000000" xml:space="preserve" text-anchor="middle" x="341" y="244">&lt;&lt;interface&gt;&gt;</text>
	<text font-family="Helvetica" font-size="7" fill="#000000" xml:space="preserve" font-weight="bold" text-anchor="middle" x="341" y="267">GL2ES2</text>
	<line stroke="black" stroke-opacity="1" x1="294" y1="281" x2="388" y2="281" />
	<line stroke="black" stroke-opacity="1" x1="294" y1="289" x2="388" y2="289" />
</g>
	<text font-family="Helvetica" font-size="7" fill="#000000" xml:space="preserve" x="851" y="736">Desktop final public</text>
	<text font-family="Helvetica" font-size="7" fill="#000000" xml:space="preserve" x="851" y="755">OpenGL Interfaces</text>
<g>
	<rect fill="#808080" stroke="none" stroke-opacity="1" x="709" y="860" width="3" height="61" />
	<rect fill="#808080" stroke="none" stroke-opacity="1" x="619" y="918" width="93" height="3" />
	<rect fill="#ffffc0" stroke="black" stroke-width="1" stroke-opacity="1" x="615" y="856" width="94" height="62" />
	<text font-family="Helvetica" font-size="7" fill="#000000" xml:space="preserve" text-anchor="middle" x="662" y="865">&lt;&lt;interface&gt;&gt;</text>
	<text font-family="Helvetica" font-size="7" fill="#000000" xml:space="preserve" font-weight="bold" text-anchor="middle" x="662" y="888">GL3</text>
	<line stroke="black" stroke-opacity="1" x1="615" y1="902" x2="709" y2="902" />
	<line stroke="black" stroke-opacity="1" x1="615" y1="910" x2="709" y2="910" />
</g>
<g>
	<rect fill="#808080" stroke="none" stroke-opacity="1" x="388" y="493" width="3" height="61" />
	<rect fill="#808080" stroke="none" stroke-opacity="1" x="298" y="551" width="93" height="3" />
	<rect fill="#ffffc0" stroke="black" stroke-width="1" stroke-opacity="1" x="294" y="489" width="94" height="62" />
	<text font-family="Helvetica" font-size="7" fill="#000000" xml:space="preserve" text-anchor="middle" x="341" y="498">&lt;&lt;interface&gt;&gt;</text>
	<text font-family="Helvetica" font-size="7" fill="#000000" xml:space="preserve" font-weight="bold" text-anchor="middle" x="341" y="521">GLES2</text>
	<line stroke="black" stroke-opacity="1" x1="294" y1="535" x2="388" y2="535" />
	<line stroke="black" stroke-opacity="1" x1="294" y1="543" x2="388" y2="543" />
</g>
<g>
	<line stroke-dasharray="4,4" stroke="black" stroke-opacity="1" x1="460" y1="1087" x2="279" y2="925" />
	<line stroke="black" stroke-opacity="1" x1="275" y1="922" x2="275" y2="930" />
	<line stroke="black" stroke-opacity="1" x1="275" y1="922" x2="283" y2="921" />
	<line stroke="black" stroke-opacity="1" x1="275" y1="930" x2="283" y2="921" />
</g>
<g>
	<line stroke-dasharray="4,4" stroke="black" stroke-opacity="1" x1="451" y1="1100" x2="291" y2="1038" />
	<line stroke="black" stroke-opacity="1" x1="286" y1="1036" x2="289" y2="1043" />
	<line stroke="black" stroke-opacity="1" x1="286" y1="1036" x2="293" y2="1032" />
	<line stroke="black" stroke-opacity="1" x1="289" y1="1043" x2="293" y2="1032" />
</g>
<g>
	<line stroke-dasharray="4,4" stroke="black" stroke-opacity="1" x1="472" y1="1087" x2="265" y2="816" />
	<line stroke="black" stroke-opacity="1" x1="262" y1="812" x2="260" y2="820" />
	<line stroke="black" stroke-opacity="1" x1="262" y1="812" x2="270" y2="813" />
	<line stroke="black" stroke-opacity="1" x1="260" y1="820" x2="270" y2="813" />
</g>
<g>
	<line stroke-dasharray="4,4" stroke="black" stroke-opacity="1" x1="534" y1="1104" x2="779" y2="1031" />
	<line stroke="black" stroke-opacity="1" x1="785" y1="1030" x2="777" y2="1025" />
	<line stroke="black" stroke-opacity="1" x1="785" y1="1030" x2="780" y2="1037" />
	<line stroke="black" stroke-opacity="1" x1="777" y1="1025" x2="780" y2="1037" />
</g>
<g>
	<line stroke="black" stroke-opacity="1" x1="237" y1="855" x2="237" y2="818" />
	<line stroke="black" stroke-opacity="1" x1="237" y1="812" x2="231" y2="818" />
	<line stroke="black" stroke-opacity="1" x1="237" y1="812" x2="243" y2="818" />
	<line stroke="black" stroke-opacity="1" x1="231" y1="818" x2="243" y2="818" />
</g>
<g>
	<line stroke="black" stroke-opacity="1" x1="286" y1="889" x2="608" y2="889" />
	<line stroke="black" stroke-opacity="1" x1="614" y1="889" x2="608" y2="883" />
	<line stroke="black" stroke-opacity="1" x1="614" y1="889" x2="608" y2="895" />
	<line stroke="black" stroke-opacity="1" x1="608" y1="883" x2="608" y2="895" />
</g>
<g>
	<line stroke="black" stroke-opacity="1" x1="791" y1="984" x2="713" y2="925" />
	<line stroke="black" stroke-opacity="1" x1="709" y1="922" x2="710" y2="930" />
	<line stroke="black" stroke-opacity="1" x1="709" y1="922" x2="717" y2="920" />
	<line stroke="black" stroke-opacity="1" x1="710" y1="930" x2="717" y2="920" />
</g>
<g>
	<line stroke="black" stroke-opacity="1" x1="237" y1="984" x2="237" y2="928" />
	<line stroke="black" stroke-opacity="1" x1="237" y1="922" x2="231" y2="928" />
	<line stroke="black" stroke-opacity="1" x1="237" y1="922" x2="243" y2="928" />
	<line stroke="black" stroke-opacity="1" x1="231" y1="928" x2="243" y2="928" />
</g>
<g>
	<line stroke="black" stroke-opacity="1" x1="286" y1="1018" x2="779" y2="1018" />
	<line stroke="black" stroke-opacity="1" x1="785" y1="1018" x2="779" y2="1012" />
	<line stroke="black" stroke-opacity="1" x1="785" y1="1018" x2="779" y2="1024" />
	<line stroke="black" stroke-opacity="1" x1="779" y1="1012" x2="779" y2="1024" />
</g>
<g>
	<line stroke="black" stroke-opacity="1" x1="443" y1="280" x2="397" y2="273" />
	<line stroke="black" stroke-opacity="1" x1="392" y1="273" x2="397" y2="279" />
	<line stroke="black" stroke-opacity="1" x1="392" y1="273" x2="398" y2="267" />
	<line stroke="black" stroke-opacity="1" x1="397" y1="279" x2="398" y2="267" />
</g>
<g>
	<line stroke="black" stroke-opacity="1" x1="835" y1="984" x2="835" y2="385" />
	<line stroke="black" stroke-opacity="1" x1="835" y1="379" x2="829" y2="385" />
	<line stroke="black" stroke-opacity="1" x1="835" y1="379" x2="841" y2="385" />
	<line stroke="black" stroke-opacity="1" x1="829" y1="385" x2="841" y2="385" />
</g>
<g>
	<line stroke-dasharray="4,4" stroke="black" stroke-opacity="1" x1="723" y1="668" x2="397" y2="542" />
	<line stroke="black" stroke-opacity="1" x1="392" y1="540" x2="395" y2="547" />
	<line stroke="black" stroke-opacity="1" x1="392" y1="540" x2="399" y2="536" />
	<line stroke="black" stroke-opacity="1" x1="395" y1="547" x2="399" y2="536" />
</g>
<g>
	<rect fill="#808080" stroke="none" stroke-opacity="1" x="817" y="573" width="3" height="61" />
	<rect fill="#808080" stroke="none" stroke-opacity="1" x="713" y="631" width="107" height="3" />
	<rect fill="#ffffc0" stroke="black" stroke-width="1" stroke-opacity="1" x="709" y="569" width="108" height="62" />
	<text font-family="Helvetica" font-size="7" fill="#000000" xml:space="preserve" text-anchor="middle" x="763" y="578">&lt;&lt;@interface&gt;&gt;</text>
	<text font-family="Helvetica" font-size="7" fill="#000000" xml:space="preserve" font-weight="bold" text-anchor="middle" x="763" y="601">GLES3</text>
	<line stroke="black" stroke-opacity="1" x1="709" y1="615" x2="817" y2="615" />
	<line stroke="black" stroke-opacity="1" x1="709" y1="623" x2="817" y2="623" />
</g>
<g>
	<line stroke="black" stroke-opacity="1" x1="98" y1="598" x2="118" y2="598" />
	<ellipse fill="#ffffc0" stroke="black" stroke-width="1" stroke-opacity="1" cx="108" cy="588" rx="10" ry="10" />
	<text font-family="Helvetica" font-size="7" fill="#000000" xml:space="preserve" font-weight="bold" text-anchor="middle" x="108" y="607">GLES1Impl</text>
	<line stroke="black" stroke-opacity="1" x1="67" y1="621" x2="149" y2="621" />
	<line stroke="black" stroke-opacity="1" x1="67" y1="629" x2="149" y2="629" />
</g>
<g>
	<rect fill="#808080" stroke="none" stroke-opacity="1" x="1149" y="365" width="3" height="37" />
	<rect fill="#808080" stroke="none" stroke-opacity="1" x="1065" y="399" width="87" height="3" />
	<rect fill="#ffffc0" stroke="black" stroke-width="1" stroke-opacity="1" x="1061" y="361" width="88" height="38" />
	<text font-family="Helvetica" font-size="7" fill="#000000" xml:space="preserve" font-weight="bold" text-anchor="middle" x="1105" y="370">Capabilities</text>
	<line stroke="black" stroke-opacity="1" x1="1061" y1="384" x2="1149" y2="384" />
	<line stroke="black" stroke-opacity="1" x1="1061" y1="392" x2="1149" y2="392" />
</g>
<g>
	<rect fill="#808080" stroke="none" stroke-opacity="1" x="541" y="401" width="3" height="61" />
	<rect fill="#808080" stroke="none" stroke-opacity="1" x="451" y="459" width="93" height="3" />
	<rect fill="#ffffc0" stroke="black" stroke-width="1" stroke-opacity="1" x="447" y="397" width="94" height="62" />
	<text font-family="Helvetica" font-size="7" fill="#000000" xml:space="preserve" text-anchor="middle" x="494" y="406">&lt;&lt;interface&gt;&gt;</text>
	<text font-family="Helvetica" font-size="7" fill="#000000" xml:space="preserve" font-weight="bold" text-anchor="middle" x="494" y="429">GL2GL3</text>
	<line stroke="black" stroke-opacity="1" x1="447" y1="443" x2="541" y2="443" />
	<line stroke="black" stroke-opacity="1" x1="447" y1="451" x2="541" y2="451" />
</g>
<g>
	<line stroke="black" stroke-opacity="1" x1="773" y1="568" x2="823" y2="384" />
	<line stroke="black" stroke-opacity="1" x1="825" y1="379" x2="817" y2="383" />
	<line stroke="black" stroke-opacity="1" x1="825" y1="379" x2="829" y2="386" />
	<line stroke="black" stroke-opacity="1" x1="817" y1="383" x2="829" y2="386" />
</g>
<g>
	<line stroke-dasharray="4,4" stroke="black" stroke-opacity="1" x1="765" y1="655" x2="765" y2="641" />
	<line stroke="black" stroke-opacity="1" x1="765" y1="635" x2="759" y2="641" />
	<line stroke="black" stroke-opacity="1" x1="765" y1="635" x2="771" y2="641" />
	<line stroke="black" stroke-opacity="1" x1="759" y1="641" x2="771" y2="641" />
</g>
<g>
	<line stroke="black" stroke-opacity="1" x1="708" y1="591" x2="397" y2="531" />
	<line stroke="black" stroke-opacity="1" x1="392" y1="530" x2="396" y2="537" />
	<line stroke="black" stroke-opacity="1" x1="392" y1="530" x2="399" y2="525" />
	<line stroke="black" stroke-opacity="1" x1="396" y1="537" x2="399" y2="525" />
</g>
<g>
	<line stroke="black" stroke-opacity="1" x1="496" y1="396" x2="496" y2="326" />
	<line stroke="black" stroke-opacity="1" x1="496" y1="320" x2="490" y2="326" />
	<line stroke="black" stroke-opacity="1" x1="496" y1="320" x2="502" y2="326" />
	<line stroke="black" stroke-opacity="1" x1="490" y1="326" x2="502" y2="326" />
</g>
<g>
	<rect fill="#808080" stroke="none" stroke-opacity="1" x="718" y="286" width="3" height="61" />
	<rect fill="#808080" stroke="none" stroke-opacity="1" x="614" y="344" width="107" height="3" />
	<rect fill="#ffffc0" stroke="black" stroke-width="1" stroke-opacity="1" x="610" y="282" width="108" height="62" />
	<text font-family="Helvetica" font-size="7" fill="#000000" xml:space="preserve" text-anchor="middle" x="664" y="291">&lt;&lt;@interface&gt;&gt;</text>
	<text font-family="Helvetica" font-size="7" fill="#000000" xml:space="preserve" font-weight="bold" text-anchor="middle" x="664" y="314">GL3ES3</text>
	<line stroke="black" stroke-opacity="1" x1="610" y1="328" x2="718" y2="328" />
	<line stroke="black" stroke-opacity="1" x1="610" y1="336" x2="718" y2="336" />
</g>
<g>
	<line stroke="black" stroke-opacity="1" x1="778" y1="335" x2="727" y2="326" />
	<line stroke="black" stroke-opacity="1" x1="722" y1="325" x2="726" y2="331" />
	<line stroke="black" stroke-opacity="1" x1="722" y1="325" x2="728" y2="320" />
	<line stroke="black" stroke-opacity="1" x1="726" y1="331" x2="728" y2="320" />
</g>
<g>
	<line stroke="black" stroke-opacity="1" x1="609" y1="305" x2="553" y2="296" />
	<line stroke="black" stroke-opacity="1" x1="548" y1="296" x2="553" y2="302" />
	<line stroke="black" stroke-opacity="1" x1="548" y1="296" x2="554" y2="290" />
	<line stroke="black" stroke-opacity="1" x1="553" y1="302" x2="554" y2="290" />
</g>
<g>
	<line stroke="black" stroke-opacity="1" x1="664" y1="855" x2="664" y2="353" />
	<line stroke="black" stroke-opacity="1" x1="665" y1="348" x2="658" y2="353" />
	<line stroke="black" stroke-opacity="1" x1="665" y1="348" x2="670" y2="354" />
	<line stroke="black" stroke-opacity="1" x1="658" y1="353" x2="670" y2="354" />
</g>
<g>
	<text font-family="Helvetica" font-size="7" fill="#000000" xml:space="preserve" x="533" y="68">0..1</text>
</g>
<g>
	<text font-family="Helvetica" font-size="7" fill="#000000" xml:space="preserve" x="694" y="117">1</text>
</g>
<g>
	<text font-family="Helvetica" font-size="7" fill="#000000" xml:space="preserve" x="1080" y="343">chosen</text>
</g>
<g>
	<text font-family="Helvetica" font-size="7" fill="#000000" xml:space="preserve" x="1052" y="343">1</text>
</g>
<g>
	<text font-family="Helvetica" font-size="7" fill="#000000" xml:space="preserve" x="1146" y="343">requested</text>
</g>
<g>
	<text font-family="Helvetica" font-size="7" fill="#000000" xml:space="preserve" x="1118" y="343">1</text>
</g>
<g>
	<text font-family="Helvetica" font-size="7" fill="#000000" xml:space="preserve" x="418" y="56">1</text>
</g>
<g>
	<text font-family="Helvetica" font-size="7" fill="#000000" xml:space="preserve" x="272" y="56">1</text>
</g>
</svg>
