<?xml version="1.0" encoding="UTF-8" standalone="no"?>
<!-- Created with Bouml (http://bouml.free.fr/) -->
<!DOCTYPE svg PUBLIC "-//W3C//DTD SVG 1.1//EN" "http://www.w3.org/Graphics/SVG/1.1/DTD/svg11.dtd">
<svg width="1071" height="1062" version="1.1" xmlns="http://www.w3.org/2000/svg">
<g>
	<rect fill="#ededed" stroke="black" stroke-width="1" stroke-opacity="1" x="2" y="176" width="213" height="874" />
	<text font-family="Helvetica" font-size="11" fill="#000000" xml:space="preserve" text-anchor="middle" x="45" y="193">Fixed Function</text>
	<line stroke="black" stroke-opacity="1" x1="2" y1="197" x2="87" y2="197" />
	<line stroke="black" stroke-opacity="1" x1="87" y1="197" x2="98" y2="186" />
	<line stroke="black" stroke-opacity="1" x1="98" y1="186" x2="98" y2="176" />
</g>
<g>
	<line stroke="black" stroke-dasharray="20,4" stroke-opacity="1" x1="2" y1="341" x2="215" y2="341" />
</g>
<g>
	<line stroke="black" stroke-dasharray="20,4" stroke-opacity="1" x1="2" y1="416" x2="215" y2="416" />
</g>
<g>
	<line stroke="black" stroke-dasharray="20,4" stroke-opacity="1" x1="2" y1="573" x2="215" y2="573" />
</g>
<g>
	<rect fill="#c0ffff" stroke="black" stroke-width="1" stroke-opacity="1" x="213" y="177" width="637" height="873" />
	<text font-family="Helvetica" font-size="11" fill="#000000" xml:space="preserve" text-anchor="middle" x="279" y="194">Programmable Shader</text>
	<line stroke="black" stroke-opacity="1" x1="213" y1="198" x2="345" y2="198" />
	<line stroke="black" stroke-opacity="1" x1="345" y1="198" x2="356" y2="187" />
	<line stroke="black" stroke-opacity="1" x1="356" y1="187" x2="356" y2="177" />
</g>
<g>
	<line stroke="black" stroke-dasharray="20,4" stroke-opacity="1" x1="213" y1="417" x2="850" y2="417" />
</g>
<g>
	<line stroke="black" stroke-dasharray="20,4" stroke-opacity="1" x1="213" y1="574" x2="850" y2="574" />
</g>
<g>
	<line stroke="black" stroke-dasharray="20,4" stroke-opacity="1" x1="213" y1="342" x2="850" y2="342" />
</g>
<g>
	<line stroke="black" stroke-opacity="1" x1="100" y1="203" x2="138" y2="158" />
	<line stroke="black" stroke-opacity="1" x1="142" y1="154" x2="133" y2="154" />
	<line stroke="black" stroke-opacity="1" x1="142" y1="154" x2="142" y2="162" />
	<line stroke="black" stroke-opacity="1" x1="133" y1="154" x2="142" y2="162" />
</g>
<g>
	<line stroke="black" stroke-opacity="1" x1="257" y1="204" x2="204" y2="157" />
	<line stroke="black" stroke-opacity="1" x1="200" y1="154" x2="200" y2="162" />
	<line stroke="black" stroke-opacity="1" x1="200" y1="154" x2="208" y2="153" />
	<line stroke="black" stroke-opacity="1" x1="200" y1="162" x2="208" y2="153" />
</g>
<g>
	<line stroke="black" stroke-opacity="1" x1="77" y1="432" x2="77" y2="262" />
	<line stroke="black" stroke-opacity="1" x1="77" y1="256" x2="71" y2="262" />
	<line stroke="black" stroke-opacity="1" x1="77" y1="256" x2="83" y2="262" />
	<line stroke="black" stroke-opacity="1" x1="71" y1="262" x2="83" y2="262" />
</g>
<g>
	<line stroke="black" stroke-opacity="1" x1="288" y1="432" x2="288" y2="263" />
	<line stroke="black" stroke-opacity="1" x1="288" y1="257" x2="282" y2="263" />
	<line stroke="black" stroke-opacity="1" x1="288" y1="257" x2="294" y2="263" />
	<line stroke="black" stroke-opacity="1" x1="282" y1="263" x2="294" y2="263" />
</g>
<g>
	<line stroke="black" stroke-opacity="1" x1="964" y1="430" x2="964" y2="397" />
	<line stroke="black" stroke-opacity="1" x1="964" y1="391" x2="958" y2="397" />
	<line stroke="black" stroke-opacity="1" x1="964" y1="391" x2="970" y2="397" />
	<line stroke="black" stroke-opacity="1" x1="958" y1="397" x2="970" y2="397" />
</g>
<g>
	<line stroke="black" stroke-opacity="1" x1="932" y1="301" x2="934" y2="356" />
</g>
<g>
	<line stroke="black" stroke-opacity="1" x1="964" y1="266" x2="965" y2="233" />
</g>
<g>
	<line stroke="black" stroke-opacity="1" x1="564" y1="720" x2="439" y2="408" />
	<line stroke="black" stroke-opacity="1" x1="437" y1="403" x2="433" y2="410" />
	<line stroke="black" stroke-opacity="1" x1="437" y1="403" x2="444" y2="406" />
	<line stroke="black" stroke-opacity="1" x1="433" y1="410" x2="444" y2="406" />
</g>
<g>
	<line stroke="black" stroke-opacity="1" x1="236" y1="622" x2="401" y2="407" />
	<line stroke="black" stroke-opacity="1" x1="405" y1="403" x2="396" y2="404" />
	<line stroke="black" stroke-opacity="1" x1="405" y1="403" x2="406" y2="411" />
	<line stroke="black" stroke-opacity="1" x1="396" y1="404" x2="406" y2="411" />
</g>
<g>
	<line stroke="black" stroke-opacity="1" x1="208" y1="622" x2="86" y2="261" />
	<line stroke="black" stroke-opacity="1" x1="85" y1="256" x2="81" y2="263" />
	<line stroke="black" stroke-opacity="1" x1="85" y1="256" x2="92" y2="259" />
	<line stroke="black" stroke-opacity="1" x1="81" y1="263" x2="92" y2="259" />
</g>
<g>
	<line stroke="black" stroke-opacity="1" x1="615" y1="98" x2="449" y2="48" />
</g>
<g>
	<line stroke-dasharray="4,4" stroke="black" stroke-opacity="1" x1="76" y1="517" x2="76" y2="490" />
	<line stroke="black" stroke-opacity="1" x1="77" y1="485" x2="70" y2="490" />
	<line stroke="black" stroke-opacity="1" x1="77" y1="485" x2="82" y2="491" />
	<line stroke="black" stroke-opacity="1" x1="70" y1="490" x2="82" y2="491" />
</g>
<g>
	<line stroke-dasharray="4,4" stroke="black" stroke-opacity="1" x1="441" y1="943" x2="552" y2="777" />
	<line stroke="black" stroke-opacity="1" x1="556" y1="773" x2="547" y2="774" />
	<line stroke="black" stroke-opacity="1" x1="556" y1="773" x2="557" y2="781" />
	<line stroke="black" stroke-opacity="1" x1="547" y1="774" x2="557" y2="781" />
</g>
<g>
	<line stroke="black" stroke-opacity="1" x1="920" y1="192" x2="696" y2="123" />
</g>
<g>
	<line stroke="black" stroke-opacity="1" x1="964" y1="524" x2="964" y2="465" />
</g>
<g>
	<line stroke="black" stroke-opacity="1" x1="988" y1="356" x2="989" y2="301" />
</g>
<g>
	<line stroke="black" stroke-opacity="1" x1="964" y1="524" x2="964" y2="465" />
</g>
<g>
	<line stroke="black" stroke-opacity="1" x1="169" y1="101" x2="169" y2="69" />
	<line stroke="black" stroke-opacity="1" x1="170" y1="64" x2="163" y2="69" />
	<line stroke="black" stroke-opacity="1" x1="170" y1="64" x2="175" y2="70" />
	<line stroke="black" stroke-opacity="1" x1="163" y1="69" x2="175" y2="70" />
</g>
<g>
	<line stroke="black" stroke-opacity="1" x1="213" y1="38" x2="378" y2="38" />
</g>
<g>
	<rect fill="#808080" stroke="none" stroke-opacity="1" x="256" y="724" width="2" height="48" />
	<rect fill="#808080" stroke="none" stroke-opacity="1" x="178" y="770" width="80" height="2" />
	<rect fill="#ffffc0" stroke="black" stroke-width="1" stroke-opacity="1" x="175" y="721" width="81" height="49" />
	<text font-family="Helvetica" font-size="11" fill="#000000" xml:space="preserve" text-anchor="middle" x="216" y="734">&lt;&lt;interface&gt;&gt;</text>
	<text font-family="Helvetica" font-size="11" fill="#000000" xml:space="preserve" font-weight="bold" text-anchor="middle" x="216" y="751">GL3bc</text>
	<line stroke="black" stroke-opacity="1" x1="175" y1="755" x2="256" y2="755" />
	<line stroke="black" stroke-opacity="1" x1="175" y1="761" x2="256" y2="761" />
</g>
<g>
	<rect fill="#808080" stroke="none" stroke-opacity="1" x="208" y="105" width="2" height="48" />
	<rect fill="#808080" stroke="none" stroke-opacity="1" x="130" y="151" width="80" height="2" />
	<rect fill="#ffffc0" stroke="black" stroke-width="1" stroke-opacity="1" x="127" y="102" width="81" height="49" />
	<text font-family="Helvetica" font-size="11" fill="#000000" xml:space="preserve" text-anchor="middle" x="168" y="115">&lt;&lt;interface&gt;&gt;</text>
	<text font-family="Helvetica" font-size="11" fill="#000000" xml:space="preserve" font-weight="bold" text-anchor="middle" x="168" y="132">GL</text>
	<line stroke="black" stroke-opacity="1" x1="127" y1="136" x2="208" y2="136" />
	<line stroke="black" stroke-opacity="1" x1="127" y1="142" x2="208" y2="142" />
</g>
<g>
	<rect fill="#808080" stroke="none" stroke-opacity="1" x="768" y="839" width="2" height="48" />
	<rect fill="#808080" stroke="none" stroke-opacity="1" x="690" y="885" width="80" height="2" />
	<rect fill="#ffffc0" stroke="black" stroke-width="1" stroke-opacity="1" x="687" y="836" width="81" height="49" />
	<text font-family="Helvetica" font-size="11" fill="#000000" xml:space="preserve" text-anchor="middle" x="728" y="849">&lt;&lt;interface&gt;&gt;</text>
	<text font-family="Helvetica" font-size="11" fill="#000000" xml:space="preserve" font-weight="bold" text-anchor="middle" x="728" y="866">GL4</text>
	<line stroke="black" stroke-opacity="1" x1="687" y1="870" x2="768" y2="870" />
	<line stroke="black" stroke-opacity="1" x1="687" y1="876" x2="768" y2="876" />
</g>
<g>
	<rect fill="#808080" stroke="none" stroke-opacity="1" x="116" y="207" width="2" height="48" />
	<rect fill="#808080" stroke="none" stroke-opacity="1" x="38" y="253" width="80" height="2" />
	<rect fill="#ffffc0" stroke="black" stroke-width="1" stroke-opacity="1" x="35" y="204" width="81" height="49" />
	<text font-family="Helvetica" font-size="11" fill="#000000" xml:space="preserve" text-anchor="middle" x="76" y="217">&lt;&lt;interface&gt;&gt;</text>
	<text font-family="Helvetica" font-size="11" fill="#000000" xml:space="preserve" font-weight="bold" text-anchor="middle" x="76" y="234">GL2ES1</text>
	<line stroke="black" stroke-opacity="1" x1="35" y1="238" x2="116" y2="238" />
	<line stroke="black" stroke-opacity="1" x1="35" y1="244" x2="116" y2="244" />
</g>
<g>
	<rect fill="#808080" stroke="none" stroke-opacity="1" x="256" y="839" width="2" height="48" />
	<rect fill="#808080" stroke="none" stroke-opacity="1" x="178" y="885" width="80" height="2" />
	<rect fill="#ffffc0" stroke="black" stroke-width="1" stroke-opacity="1" x="175" y="836" width="81" height="49" />
	<text font-family="Helvetica" font-size="11" fill="#000000" xml:space="preserve" text-anchor="middle" x="216" y="849">&lt;&lt;interface&gt;&gt;</text>
	<text font-family="Helvetica" font-size="11" fill="#000000" xml:space="preserve" font-weight="bold" text-anchor="middle" x="216" y="866">GL4bc</text>
	<line stroke="black" stroke-opacity="1" x1="175" y1="870" x2="256" y2="870" />
	<line stroke="black" stroke-opacity="1" x1="175" y1="876" x2="256" y2="876" />
</g>
<g>
	<rect fill="#808080" stroke="none" stroke-opacity="1" x="117" y="436" width="2" height="48" />
	<rect fill="#808080" stroke="none" stroke-opacity="1" x="39" y="482" width="80" height="2" />
	<rect fill="#ffffc0" stroke="black" stroke-width="1" stroke-opacity="1" x="36" y="433" width="81" height="49" />
	<text font-family="Helvetica" font-size="11" fill="#000000" xml:space="preserve" text-anchor="middle" x="77" y="446">&lt;&lt;interface&gt;&gt;</text>
	<text font-family="Helvetica" font-size="11" fill="#000000" xml:space="preserve" font-weight="bold" text-anchor="middle" x="77" y="463">GLES1</text>
	<line stroke="black" stroke-opacity="1" x1="36" y1="467" x2="117" y2="467" />
	<line stroke="black" stroke-opacity="1" x1="36" y1="473" x2="117" y2="473" />
</g>
<g>
	<rect fill="#808080" stroke="none" stroke-opacity="1" x="256" y="626" width="2" height="48" />
	<rect fill="#808080" stroke="none" stroke-opacity="1" x="178" y="672" width="80" height="2" />
	<rect fill="#ffffc0" stroke="black" stroke-width="1" stroke-opacity="1" x="175" y="623" width="81" height="49" />
	<text font-family="Helvetica" font-size="11" fill="#000000" xml:space="preserve" text-anchor="middle" x="216" y="636">&lt;&lt;interface&gt;&gt;</text>
	<text font-family="Helvetica" font-size="11" fill="#000000" xml:space="preserve" font-weight="bold" text-anchor="middle" x="216" y="653">GL2</text>
	<line stroke="black" stroke-opacity="1" x1="175" y1="657" x2="256" y2="657" />
	<line stroke="black" stroke-opacity="1" x1="175" y1="663" x2="256" y2="663" />
</g>
<g>
	<rect fill="#808080" stroke="none" stroke-opacity="1" x="327" y="208" width="2" height="48" />
	<rect fill="#808080" stroke="none" stroke-opacity="1" x="249" y="254" width="80" height="2" />
	<rect fill="#ffffc0" stroke="black" stroke-width="1" stroke-opacity="1" x="246" y="205" width="81" height="49" />
	<text font-family="Helvetica" font-size="11" fill="#000000" xml:space="preserve" text-anchor="middle" x="287" y="218">&lt;&lt;interface&gt;&gt;</text>
	<text font-family="Helvetica" font-size="11" fill="#000000" xml:space="preserve" font-weight="bold" text-anchor="middle" x="287" y="235">GL2ES2</text>
	<line stroke="black" stroke-opacity="1" x1="246" y1="239" x2="327" y2="239" />
	<line stroke="black" stroke-opacity="1" x1="246" y1="245" x2="327" y2="245" />
</g>
<g>
	<rect fill="#808080" stroke="none" stroke-opacity="1" x="615" y="724" width="2" height="48" />
	<rect fill="#808080" stroke="none" stroke-opacity="1" x="537" y="770" width="80" height="2" />
	<rect fill="#ffffc0" stroke="black" stroke-width="1" stroke-opacity="1" x="534" y="721" width="81" height="49" />
	<text font-family="Helvetica" font-size="11" fill="#000000" xml:space="preserve" text-anchor="middle" x="575" y="734">&lt;&lt;interface&gt;&gt;</text>
	<text font-family="Helvetica" font-size="11" fill="#000000" xml:space="preserve" font-weight="bold" text-anchor="middle" x="575" y="751">GL3</text>
	<line stroke="black" stroke-opacity="1" x1="534" y1="755" x2="615" y2="755" />
	<line stroke="black" stroke-opacity="1" x1="534" y1="761" x2="615" y2="761" />
</g>
<g>
	<rect fill="#808080" stroke="none" stroke-opacity="1" x="327" y="436" width="2" height="48" />
	<rect fill="#808080" stroke="none" stroke-opacity="1" x="249" y="482" width="80" height="2" />
	<rect fill="#ffffc0" stroke="black" stroke-width="1" stroke-opacity="1" x="246" y="433" width="81" height="49" />
	<text font-family="Helvetica" font-size="11" fill="#000000" xml:space="preserve" text-anchor="middle" x="287" y="446">&lt;&lt;interface&gt;&gt;</text>
	<text font-family="Helvetica" font-size="11" fill="#000000" xml:space="preserve" font-weight="bold" text-anchor="middle" x="287" y="463">GLES2</text>
	<line stroke="black" stroke-opacity="1" x1="246" y1="467" x2="327" y2="467" />
	<line stroke="black" stroke-opacity="1" x1="246" y1="473" x2="327" y2="473" />
</g>
	<text font-family="Helvetica" font-size="11" fill="#000000" xml:space="preserve" x="738" y="613">Desktop final public</text>
	<text font-family="Helvetica" font-size="11" fill="#000000" xml:space="preserve" x="738" y="628">OpenGL Interfaces</text>
<g>
	<rect fill="#808080" stroke="none" stroke-opacity="1" x="774" y="279" width="2" height="48" />
	<rect fill="#808080" stroke="none" stroke-opacity="1" x="684" y="325" width="92" height="2" />
	<rect fill="#ffffc0" stroke="black" stroke-width="1" stroke-opacity="1" x="681" y="276" width="93" height="49" />
	<text font-family="Helvetica" font-size="11" fill="#000000" xml:space="preserve" text-anchor="middle" x="728" y="289">&lt;&lt;@interface&gt;&gt;</text>
	<text font-family="Helvetica" font-size="11" fill="#000000" xml:space="preserve" font-weight="bold" text-anchor="middle" x="728" y="306">GL4ES3</text>
	<line stroke="black" stroke-opacity="1" x1="681" y1="310" x2="774" y2="310" />
	<line stroke="black" stroke-opacity="1" x1="681" y1="316" x2="774" y2="316" />
</g>
<g>
	<rect fill="#808080" stroke="none" stroke-opacity="1" x="446" y="25" width="2" height="30" />
	<rect fill="#808080" stroke="none" stroke-opacity="1" x="382" y="53" width="66" height="2" />
	<rect fill="#ffffc0" stroke="black" stroke-width="1" stroke-opacity="1" x="379" y="22" width="67" height="31" />
	<text font-family="Helvetica" font-size="11" fill="#000000" xml:space="preserve" font-weight="bold" font-style="italic" text-anchor="middle" x="413" y="35">GLContext</text>
	<line stroke="black" stroke-opacity="1" x1="379" y1="39" x2="446" y2="39" />
	<line stroke="black" stroke-opacity="1" x1="379" y1="45" x2="446" y2="45" />
</g>
<g>
	<rect fill="#808080" stroke="none" stroke-opacity="1" x="693" y="98" width="2" height="30" />
	<rect fill="#808080" stroke="none" stroke-opacity="1" x="619" y="126" width="76" height="2" />
	<rect fill="#ffffc0" stroke="black" stroke-width="1" stroke-opacity="1" x="616" y="95" width="77" height="31" />
	<text font-family="Helvetica" font-size="11" fill="#000000" xml:space="preserve" font-weight="bold" font-style="italic" text-anchor="middle" x="655" y="108">GLDrawable</text>
	<line stroke="black" stroke-opacity="1" x1="616" y1="112" x2="693" y2="112" />
	<line stroke="black" stroke-opacity="1" x1="616" y1="118" x2="693" y2="118" />
</g>
<g>
	<rect fill="none" stroke="black" stroke-width="1" stroke-opacity="1" x="379" y="226" width="92" height="48" />
	<text font-family="Helvetica" font-size="11" fill="#000000" xml:space="preserve" text-anchor="middle" x="425" y="239">&lt;&lt;metaclass&gt;&gt;</text>
	<text font-family="Helvetica" font-size="11" fill="#000000" xml:space="preserve" font-weight="bold" font-style="italic" text-anchor="middle" x="425" y="256">GL2ES3</text>
	<line stroke="black" stroke-opacity="1" x1="379" y1="260" x2="471" y2="260" />
	<line stroke="black" stroke-opacity="1" x1="379" y1="266" x2="471" y2="266" />
</g>
<g>
	<line stroke="black" stroke-opacity="1" x1="418" y1="962" x2="436" y2="962" />
	<ellipse fill="#ffffc0" stroke="black" stroke-width="1" stroke-opacity="1" cx="427" cy="953" rx="9" ry="9" />
	<text font-family="Helvetica" font-size="11" fill="#000000" xml:space="preserve" font-weight="bold" text-anchor="middle" x="427" y="975">GL4bcImpl</text>
	<line stroke="black" stroke-opacity="1" x1="394" y1="979" x2="460" y2="979" />
	<line stroke="black" stroke-opacity="1" x1="394" y1="985" x2="460" y2="985" />
</g>
<g>
	<line stroke="black" stroke-opacity="1" x1="640" y1="537" x2="658" y2="537" />
	<ellipse fill="#ffffc0" stroke="black" stroke-width="1" stroke-opacity="1" cx="649" cy="528" rx="9" ry="9" />
	<text font-family="Helvetica" font-size="11" fill="#000000" xml:space="preserve" font-weight="bold" text-anchor="middle" x="649" y="550">GLES3Impl</text>
	<line stroke="black" stroke-opacity="1" x1="615" y1="554" x2="683" y2="554" />
	<line stroke="black" stroke-opacity="1" x1="615" y1="560" x2="683" y2="560" />
</g>
<g>
	<rect fill="#808080" stroke="none" stroke-opacity="1" x="1008" y="184" width="2" height="48" />
	<rect fill="#808080" stroke="none" stroke-opacity="1" x="924" y="230" width="86" height="2" />
	<rect fill="#ffffc0" stroke="black" stroke-width="1" stroke-opacity="1" x="921" y="181" width="87" height="49" />
	<text font-family="Helvetica" font-size="11" fill="#000000" xml:space="preserve" text-anchor="middle" x="965" y="194">&lt;&lt;interface&gt;&gt;</text>
	<text font-family="Helvetica" font-size="11" fill="#000000" xml:space="preserve" font-weight="bold" text-anchor="middle" x="965" y="211">NativeWindow</text>
	<line stroke="black" stroke-opacity="1" x1="921" y1="215" x2="1008" y2="215" />
	<line stroke="black" stroke-opacity="1" x1="921" y1="221" x2="1008" y2="221" />
</g>
<g>
	<rect fill="#808080" stroke="none" stroke-opacity="1" x="1056" y="270" width="2" height="30" />
	<rect fill="#808080" stroke="none" stroke-opacity="1" x="874" y="298" width="184" height="2" />
	<rect fill="#ffffc0" stroke="black" stroke-width="1" stroke-opacity="1" x="871" y="267" width="185" height="31" />
	<text font-family="Helvetica" font-size="11" fill="#000000" xml:space="preserve" font-weight="bold" font-style="italic" text-anchor="middle" x="964" y="280">AbstractGraphicsConfiguration</text>
	<line stroke="black" stroke-opacity="1" x1="871" y1="284" x2="1056" y2="284" />
	<line stroke="black" stroke-opacity="1" x1="871" y1="290" x2="1056" y2="290" />
</g>
<g>
	<rect fill="#808080" stroke="none" stroke-opacity="1" x="1006" y="434" width="2" height="30" />
	<rect fill="#808080" stroke="none" stroke-opacity="1" x="922" y="462" width="86" height="2" />
	<rect fill="#ffffc0" stroke="black" stroke-width="1" stroke-opacity="1" x="919" y="431" width="87" height="31" />
	<text font-family="Helvetica" font-size="11" fill="#000000" xml:space="preserve" font-weight="bold" text-anchor="middle" x="963" y="444">GLCapabilities</text>
	<line stroke="black" stroke-opacity="1" x1="919" y1="448" x2="1006" y2="448" />
	<line stroke="black" stroke-opacity="1" x1="919" y1="454" x2="1006" y2="454" />
</g>
<g>
	<rect fill="#808080" stroke="none" stroke-opacity="1" x="992" y="528" width="2" height="30" />
	<rect fill="#808080" stroke="none" stroke-opacity="1" x="936" y="556" width="58" height="2" />
	<rect fill="#ffffc0" stroke="black" stroke-width="1" stroke-opacity="1" x="933" y="525" width="59" height="31" />
	<text font-family="Helvetica" font-size="11" fill="#000000" xml:space="preserve" font-weight="bold" text-anchor="middle" x="963" y="538">GLProfile</text>
	<line stroke="black" stroke-opacity="1" x1="933" y1="542" x2="992" y2="542" />
	<line stroke="black" stroke-opacity="1" x1="933" y1="548" x2="992" y2="548" />
</g>
<g>
	<rect fill="#808080" stroke="none" stroke-opacity="1" x="210" y="15" width="2" height="48" />
	<rect fill="#808080" stroke="none" stroke-opacity="1" x="132" y="61" width="80" height="2" />
	<rect fill="#ffffc0" stroke="black" stroke-width="1" stroke-opacity="1" x="129" y="12" width="81" height="49" />
	<text font-family="Helvetica" font-size="11" fill="#000000" xml:space="preserve" text-anchor="middle" x="170" y="25">&lt;&lt;interface&gt;&gt;</text>
	<text font-family="Helvetica" font-size="11" fill="#000000" xml:space="preserve" font-weight="bold" text-anchor="middle" x="170" y="42">GLBase</text>
	<line stroke="black" stroke-opacity="1" x1="129" y1="46" x2="210" y2="46" />
	<line stroke="black" stroke-opacity="1" x1="129" y1="52" x2="210" y2="52" />
</g>
	<text font-family="Helvetica" font-size="11" fill="#000000" xml:space="preserve" x="737" y="485">Mobile final public</text>
	<text font-family="Helvetica" font-size="11" fill="#000000" xml:space="preserve" x="737" y="500">OpenGL Interfaces</text>
	<text font-family="Helvetica" font-size="11" fill="#000000" xml:space="preserve" x="16" y="980">Private implementation</text>
	<text font-family="Helvetica" font-size="11" fill="#000000" xml:space="preserve" x="16" y="995">(detail)</text>
	<text font-family="Helvetica" font-size="11" fill="#000000" xml:space="preserve" x="737" y="233">Desktop/Mobile</text>
	<text font-family="Helvetica" font-size="11" fill="#000000" xml:space="preserve" x="737" y="248">Common Interfaces</text>
	<text font-family="Helvetica" font-size="11" fill="#000000" xml:space="preserve" x="703" y="29">Lifecycle: From the lower right to</text>
	<text font-family="Helvetica" font-size="11" fill="#000000" xml:space="preserve" x="703" y="44">the top, left step where the</text>
	<text font-family="Helvetica" font-size="11" fill="#000000" xml:space="preserve" x="703" y="59">GLContext is created with a</text>
	<text font-family="Helvetica" font-size="11" fill="#000000" xml:space="preserve" x="703" y="74">suitable GL implementation</text>
	<text font-family="Helvetica" font-size="11" fill="#000000" xml:space="preserve" x="703" y="89">matching the GLProfile.</text>
	<text font-family="Helvetica" font-size="11" fill="#000000" xml:space="preserve" x="244" y="137">Common GL</text>
	<text font-family="Helvetica" font-size="11" fill="#000000" xml:space="preserve" x="244" y="152">Stuff</text>
	<text font-family="Helvetica" font-size="11" fill="#000000" xml:space="preserve" x="738" y="377">Common Desktop</text>
	<text font-family="Helvetica" font-size="11" fill="#000000" xml:space="preserve" x="738" y="392">Profile</text>
<g>
	<line stroke-dasharray="4,4" stroke="black" stroke-opacity="1" x1="403" y1="943" x2="245" y2="777" />
	<line stroke="black" stroke-opacity="1" x1="241" y1="773" x2="240" y2="781" />
	<line stroke="black" stroke-opacity="1" x1="241" y1="773" x2="249" y2="773" />
	<line stroke="black" stroke-opacity="1" x1="240" y1="781" x2="249" y2="773" />
</g>
<g>
	<line stroke-dasharray="4,4" stroke="black" stroke-opacity="1" x1="393" y1="950" x2="264" y2="885" />
	<line stroke="black" stroke-opacity="1" x1="259" y1="883" x2="261" y2="891" />
	<line stroke="black" stroke-opacity="1" x1="259" y1="883" x2="267" y2="880" />
	<line stroke="black" stroke-opacity="1" x1="261" y1="891" x2="267" y2="880" />
</g>
<g>
	<line stroke-dasharray="4,4" stroke="black" stroke-opacity="1" x1="409" y1="943" x2="237" y2="680" />
	<line stroke="black" stroke-opacity="1" x1="234" y1="675" x2="232" y2="683" />
	<line stroke="black" stroke-opacity="1" x1="234" y1="675" x2="242" y2="676" />
	<line stroke="black" stroke-opacity="1" x1="232" y1="683" x2="242" y2="676" />
</g>
<g>
	<line stroke-dasharray="4,4" stroke="black" stroke-opacity="1" x1="460" y1="954" x2="680" y2="876" />
	<line stroke="black" stroke-opacity="1" x1="686" y1="875" x2="678" y2="871" />
	<line stroke="black" stroke-opacity="1" x1="686" y1="875" x2="682" y2="882" />
	<line stroke="black" stroke-opacity="1" x1="678" y1="871" x2="682" y2="882" />
</g>
<g>
	<line stroke="black" stroke-opacity="1" x1="217" y1="720" x2="217" y2="681" />
	<line stroke="black" stroke-opacity="1" x1="217" y1="675" x2="211" y2="681" />
	<line stroke="black" stroke-opacity="1" x1="217" y1="675" x2="223" y2="681" />
	<line stroke="black" stroke-opacity="1" x1="211" y1="681" x2="223" y2="681" />
</g>
<g>
	<line stroke="black" stroke-opacity="1" x1="259" y1="747" x2="527" y2="747" />
	<line stroke="black" stroke-opacity="1" x1="533" y1="747" x2="527" y2="741" />
	<line stroke="black" stroke-opacity="1" x1="533" y1="747" x2="527" y2="753" />
	<line stroke="black" stroke-opacity="1" x1="527" y1="741" x2="527" y2="753" />
</g>
<g>
	<line stroke="black" stroke-opacity="1" x1="693" y1="835" x2="615" y2="776" />
	<line stroke="black" stroke-opacity="1" x1="611" y1="773" x2="612" y2="781" />
	<line stroke="black" stroke-opacity="1" x1="611" y1="773" x2="619" y2="771" />
	<line stroke="black" stroke-opacity="1" x1="612" y1="781" x2="619" y2="771" />
</g>
<g>
	<line stroke="black" stroke-opacity="1" x1="217" y1="835" x2="217" y2="779" />
	<line stroke="black" stroke-opacity="1" x1="217" y1="773" x2="211" y2="779" />
	<line stroke="black" stroke-opacity="1" x1="217" y1="773" x2="223" y2="779" />
	<line stroke="black" stroke-opacity="1" x1="211" y1="779" x2="223" y2="779" />
</g>
<g>
	<line stroke="black" stroke-opacity="1" x1="259" y1="862" x2="680" y2="862" />
	<line stroke="black" stroke-opacity="1" x1="686" y1="862" x2="680" y2="856" />
	<line stroke="black" stroke-opacity="1" x1="686" y1="862" x2="680" y2="868" />
	<line stroke="black" stroke-opacity="1" x1="680" y1="856" x2="680" y2="868" />
</g>
<g>
	<line stroke="black" stroke-opacity="1" x1="729" y1="835" x2="729" y2="334" />
	<line stroke="black" stroke-opacity="1" x1="729" y1="328" x2="723" y2="334" />
	<line stroke="black" stroke-opacity="1" x1="729" y1="328" x2="735" y2="334" />
	<line stroke="black" stroke-opacity="1" x1="723" y1="334" x2="735" y2="334" />
</g>
<g>
	<line stroke-dasharray="4,4" stroke="black" stroke-opacity="1" x1="614" y1="534" x2="335" y2="469" />
	<line stroke="black" stroke-opacity="1" x1="330" y1="468" x2="334" y2="475" />
	<line stroke="black" stroke-opacity="1" x1="330" y1="468" x2="337" y2="463" />
	<line stroke="black" stroke-opacity="1" x1="334" y1="475" x2="337" y2="463" />
</g>
<g>
	<line stroke="black" stroke-opacity="1" x1="378" y1="242" x2="335" y2="235" />
	<line stroke="black" stroke-opacity="1" x1="330" y1="235" x2="335" y2="241" />
	<line stroke="black" stroke-opacity="1" x1="330" y1="235" x2="336" y2="229" />
	<line stroke="black" stroke-opacity="1" x1="335" y1="241" x2="336" y2="229" />
</g>
<g>
	<rect fill="#808080" stroke="none" stroke-opacity="1" x="695" y="436" width="2" height="48" />
	<rect fill="#808080" stroke="none" stroke-opacity="1" x="605" y="482" width="92" height="2" />
	<rect fill="#ffffc0" stroke="black" stroke-width="1" stroke-opacity="1" x="602" y="433" width="93" height="49" />
	<text font-family="Helvetica" font-size="11" fill="#000000" xml:space="preserve" text-anchor="middle" x="649" y="446">&lt;&lt;@interface&gt;&gt;</text>
	<text font-family="Helvetica" font-size="11" fill="#000000" xml:space="preserve" font-weight="bold" text-anchor="middle" x="649" y="463">GLES3</text>
	<line stroke="black" stroke-opacity="1" x1="602" y1="467" x2="695" y2="467" />
	<line stroke="black" stroke-opacity="1" x1="602" y1="473" x2="695" y2="473" />
</g>
<g>
	<rect fill="#808080" stroke="none" stroke-opacity="1" x="466" y="354" width="2" height="48" />
	<rect fill="#808080" stroke="none" stroke-opacity="1" x="388" y="400" width="80" height="2" />
	<rect fill="#ffffc0" stroke="black" stroke-width="1" stroke-opacity="1" x="385" y="351" width="81" height="49" />
	<text font-family="Helvetica" font-size="11" fill="#000000" xml:space="preserve" text-anchor="middle" x="426" y="364">&lt;&lt;interface&gt;&gt;</text>
	<text font-family="Helvetica" font-size="11" fill="#000000" xml:space="preserve" font-weight="bold" text-anchor="middle" x="426" y="381">GL2GL3</text>
	<line stroke="black" stroke-opacity="1" x1="385" y1="385" x2="466" y2="385" />
	<line stroke="black" stroke-opacity="1" x1="385" y1="391" x2="466" y2="391" />
</g>
<g>
	<line stroke="black" stroke-opacity="1" x1="67" y1="536" x2="85" y2="536" />
	<ellipse fill="#ffffc0" stroke="black" stroke-width="1" stroke-opacity="1" cx="76" cy="527" rx="9" ry="9" />
	<text font-family="Helvetica" font-size="11" fill="#000000" xml:space="preserve" font-weight="bold" text-anchor="middle" x="76" y="549">GLES1Impl</text>
	<line stroke="black" stroke-opacity="1" x1="42" y1="553" x2="110" y2="553" />
	<line stroke="black" stroke-opacity="1" x1="42" y1="559" x2="110" y2="559" />
</g>
<g>
	<rect fill="#808080" stroke="none" stroke-opacity="1" x="999" y="360" width="2" height="30" />
	<rect fill="#808080" stroke="none" stroke-opacity="1" x="929" y="388" width="72" height="2" />
	<rect fill="#ffffc0" stroke="black" stroke-width="1" stroke-opacity="1" x="926" y="357" width="73" height="31" />
	<text font-family="Helvetica" font-size="11" fill="#000000" xml:space="preserve" font-weight="bold" text-anchor="middle" x="963" y="370">Capabilities</text>
	<line stroke="black" stroke-opacity="1" x1="926" y1="374" x2="999" y2="374" />
	<line stroke="black" stroke-opacity="1" x1="926" y1="380" x2="999" y2="380" />
</g>
<g>
	<line stroke-dasharray="4,4" stroke="black" stroke-opacity="1" x1="649" y1="518" x2="649" y2="491" />
	<line stroke="black" stroke-opacity="1" x1="649" y1="485" x2="643" y2="491" />
	<line stroke="black" stroke-opacity="1" x1="649" y1="485" x2="655" y2="491" />
	<line stroke="black" stroke-opacity="1" x1="643" y1="491" x2="655" y2="491" />
</g>
<g>
	<line stroke="black" stroke-opacity="1" x1="661" y1="432" x2="711" y2="333" />
	<line stroke="black" stroke-opacity="1" x1="714" y1="328" x2="705" y2="330" />
	<line stroke="black" stroke-opacity="1" x1="714" y1="328" x2="716" y2="336" />
	<line stroke="black" stroke-opacity="1" x1="705" y1="330" x2="716" y2="336" />
</g>
<g>
	<line stroke="black" stroke-opacity="1" x1="426" y1="350" x2="425" y2="279" />
	<line stroke="black" stroke-opacity="1" x1="425" y1="274" x2="419" y2="280" />
	<line stroke="black" stroke-opacity="1" x1="425" y1="274" x2="431" y2="279" />
	<line stroke="black" stroke-opacity="1" x1="419" y1="280" x2="431" y2="279" />
</g>
<g>
	<rect fill="#808080" stroke="none" stroke-opacity="1" x="621" y="250" width="2" height="48" />
	<rect fill="#808080" stroke="none" stroke-opacity="1" x="531" y="296" width="92" height="2" />
	<rect fill="#ffffc0" stroke="black" stroke-width="1" stroke-opacity="1" x="528" y="247" width="93" height="49" />
	<text font-family="Helvetica" font-size="11" fill="#000000" xml:space="preserve" text-anchor="middle" x="575" y="260">&lt;&lt;@interface&gt;&gt;</text>
	<text font-family="Helvetica" font-size="11" fill="#000000" xml:space="preserve" font-weight="bold" text-anchor="middle" x="575" y="277">GL3ES3</text>
	<line stroke="black" stroke-opacity="1" x1="528" y1="281" x2="621" y2="281" />
	<line stroke="black" stroke-opacity="1" x1="528" y1="287" x2="621" y2="287" />
</g>
<g>
	<line stroke="black" stroke-opacity="1" x1="680" y1="292" x2="629" y2="282" />
	<line stroke="black" stroke-opacity="1" x1="624" y1="281" x2="628" y2="288" />
	<line stroke="black" stroke-opacity="1" x1="624" y1="281" x2="631" y2="276" />
	<line stroke="black" stroke-opacity="1" x1="628" y1="288" x2="631" y2="276" />
</g>
<g>
	<line stroke="black" stroke-opacity="1" x1="527" y1="264" x2="476" y2="256" />
	<line stroke="black" stroke-opacity="1" x1="471" y1="256" x2="476" y2="262" />
	<line stroke="black" stroke-opacity="1" x1="471" y1="256" x2="477" y2="250" />
	<line stroke="black" stroke-opacity="1" x1="476" y1="262" x2="477" y2="250" />
</g>
<g>
	<line stroke="black" stroke-opacity="1" x1="576" y1="720" x2="576" y2="305" />
	<line stroke="black" stroke-opacity="1" x1="576" y1="299" x2="570" y2="305" />
	<line stroke="black" stroke-opacity="1" x1="576" y1="299" x2="582" y2="305" />
	<line stroke="black" stroke-opacity="1" x1="570" y1="305" x2="582" y2="305" />
</g>
<g>
	<text font-family="Helvetica" font-size="11" fill="#000000" xml:space="preserve" x="463" y="72">0..1</text>
</g>
<g>
	<text font-family="Helvetica" font-size="11" fill="#000000" xml:space="preserve" x="913" y="347">1</text>
</g>
<g>
	<text font-family="Helvetica" font-size="11" fill="#000000" xml:space="preserve" x="1002" y="347">requested</text>
</g>
<g>
	<text font-family="Helvetica" font-size="11" fill="#000000" xml:space="preserve" x="972" y="347">1</text>
</g>
<g>
	<text font-family="Helvetica" font-size="11" fill="#000000" xml:space="preserve" x="357" y="57">1</text>
</g>
<g>
	<text font-family="Helvetica" font-size="11" fill="#000000" xml:space="preserve" x="223" y="57">1</text>
</g>
<g>
	<text font-family="Helvetica" font-size="11" fill="#000000" xml:space="preserve" x="594" y="121">1</text>
</g>
<g>
	<text font-family="Helvetica" font-size="11" fill="#000000" xml:space="preserve" x="937" y="347">chosen</text>
</g>
</svg>
