<?xml version="1.0" encoding="UTF-8" standalone="no"?>
<!-- Created with Bouml (http://bouml.free.fr/) -->
<!DOCTYPE svg PUBLIC "-//W3C//DTD SVG 1.1//EN" "http://www.w3.org/Graphics/SVG/1.1/DTD/svg11.dtd">
<svg width="1186" height="1054" version="1.1" xmlns="http://www.w3.org/2000/svg">
<g>
	<rect fill="#c0ffff" stroke="black" stroke-width="1" stroke-opacity="1" x="-1" y="207" width="939" height="835" />
	<text font-family="Helvetica" font-size="12" fill="#000000" xml:space="preserve" text-anchor="middle" x="67" y="225">Programmable Shader</text>
	<line stroke="black" stroke-opacity="1" x1="-1" y1="230" x2="135" y2="230" />
	<line stroke="black" stroke-opacity="1" x1="135" y1="230" x2="147" y2="218" />
	<line stroke="black" stroke-opacity="1" x1="147" y1="218" x2="147" y2="207" />
</g>
<g>
	<line stroke="black" stroke-dasharray="20,4" stroke-opacity="1" x1="-1" y1="651" x2="938" y2="651" />
</g>
<g>
	<line stroke="black" stroke-dasharray="20,4" stroke-opacity="1" x1="-1" y1="395" x2="938" y2="395" />
</g>
<g>
	<line stroke="black" stroke-opacity="1" x1="1071" y1="477" x2="1071" y2="441" />
	<line stroke="black" stroke-opacity="1" x1="1071" y1="435" x2="1065" y2="441" />
	<line stroke="black" stroke-opacity="1" x1="1071" y1="435" x2="1077" y2="441" />
	<line stroke="black" stroke-opacity="1" x1="1065" y1="441" x2="1077" y2="441" />
</g>
<g>
	<line stroke="black" stroke-opacity="1" x1="1038" y1="335" x2="1037" y2="394" />
</g>
<g>
	<line stroke="black" stroke-opacity="1" x1="1072" y1="294" x2="1072" y2="260" />
</g>
<g>
	<line stroke="black" stroke-opacity="1" x1="1020" y1="212" x2="772" y2="136" />
</g>
<g>
	<line stroke="black" stroke-opacity="1" x1="1071" y1="580" x2="1071" y2="518" />
</g>
<g>
	<line stroke="black" stroke-opacity="1" x1="1098" y1="394" x2="1098" y2="335" />
</g>
<g>
	<line stroke="black" stroke-opacity="1" x1="1071" y1="580" x2="1071" y2="518" />
</g>
<g>
	<line stroke="black" stroke-opacity="1" x1="189" y1="111" x2="189" y2="78" />
	<line stroke="black" stroke-opacity="1" x1="189" y1="72" x2="183" y2="78" />
	<line stroke="black" stroke-opacity="1" x1="189" y1="72" x2="195" y2="78" />
	<line stroke="black" stroke-opacity="1" x1="183" y1="78" x2="195" y2="78" />
</g>
<g>
	<line stroke="black" stroke-opacity="1" x1="235" y1="42" x2="421" y2="42" />
</g>
<g>
	<line stroke="black" stroke-opacity="1" x1="189" y1="237" x2="189" y2="178" />
	<line stroke="black" stroke-opacity="1" x1="189" y1="172" x2="183" y2="178" />
	<line stroke="black" stroke-opacity="1" x1="189" y1="172" x2="195" y2="178" />
	<line stroke="black" stroke-opacity="1" x1="183" y1="178" x2="195" y2="178" />
</g>
<g>
	<line stroke="black" stroke-opacity="1" x1="189" y1="490" x2="189" y2="304" />
	<line stroke="black" stroke-opacity="1" x1="189" y1="298" x2="183" y2="304" />
	<line stroke="black" stroke-opacity="1" x1="189" y1="298" x2="195" y2="304" />
	<line stroke="black" stroke-opacity="1" x1="183" y1="304" x2="195" y2="304" />
</g>
<g>
	<line stroke="black" stroke-opacity="1" x1="490" y1="707" x2="359" y2="475" />
	<line stroke="black" stroke-opacity="1" x1="357" y1="470" x2="354" y2="478" />
	<line stroke="black" stroke-opacity="1" x1="357" y1="470" x2="365" y2="472" />
	<line stroke="black" stroke-opacity="1" x1="354" y1="478" x2="365" y2="472" />
</g>
<g>
	<line stroke="black" stroke-opacity="1" x1="685" y1="110" x2="498" y2="54" />
</g>
<g>
	<line stroke-dasharray="4,4" stroke="black" stroke-opacity="1" x1="828" y1="937" x2="559" y2="768" />
	<line stroke="black" stroke-opacity="1" x1="554" y1="765" x2="555" y2="773" />
	<line stroke="black" stroke-opacity="1" x1="554" y1="765" x2="562" y2="763" />
	<line stroke="black" stroke-opacity="1" x1="555" y1="773" x2="562" y2="763" />
</g>
	<text font-family="Helvetica" font-size="12" fill="#000000" xml:space="preserve" x="271" y="151">Common GL Stuff</text>
	<text font-family="Helvetica" font-size="12" fill="#000000" xml:space="preserve" x="712" y="240">Desktop/Mobile Common Interfaces</text>
	<text font-family="Helvetica" font-size="12" fill="#000000" xml:space="preserve" x="723" y="418">Mobile final public OpenGL Interfaces</text>
	<text font-family="Helvetica" font-size="12" fill="#000000" xml:space="preserve" x="817" y="675">Desktop final public</text>
	<text font-family="Helvetica" font-size="12" fill="#000000" xml:space="preserve" x="817" y="691">OpenGL Interfaces</text>
	<text font-family="Helvetica" font-size="12" fill="#000000" xml:space="preserve" x="782" y="32">Lifecycle: From the lower right to</text>
	<text font-family="Helvetica" font-size="12" fill="#000000" xml:space="preserve" x="782" y="48">the top, left step where the</text>
	<text font-family="Helvetica" font-size="12" fill="#000000" xml:space="preserve" x="782" y="64">GLContext is created with a</text>
	<text font-family="Helvetica" font-size="12" fill="#000000" xml:space="preserve" x="782" y="80">suitable GL implementation</text>
	<text font-family="Helvetica" font-size="12" fill="#000000" xml:space="preserve" x="782" y="96">matching the GLProfile.</text>
<g>
	<rect fill="#808080" stroke="none" stroke-opacity="1" x="1104" y="585" width="3" height="35" />
	<rect fill="#808080" stroke="none" stroke-opacity="1" x="1040" y="617" width="67" height="3" />
	<rect fill="#ffffc0" stroke="black" stroke-width="1" stroke-opacity="1" x="1036" y="581" width="68" height="36" />
	<text font-family="Helvetica" font-size="12" fill="#000000" xml:space="preserve" font-weight="bold" text-anchor="middle" x="1070" y="596">GLProfile</text>
	<line stroke="black" stroke-opacity="1" x1="1036" y1="601" x2="1104" y2="601" />
	<line stroke="black" stroke-opacity="1" x1="1036" y1="609" x2="1104" y2="609" />
</g>
<g>
	<rect fill="#808080" stroke="none" stroke-opacity="1" x="231" y="16" width="3" height="55" />
	<rect fill="#808080" stroke="none" stroke-opacity="1" x="147" y="68" width="87" height="3" />
	<rect fill="#ffffc0" stroke="black" stroke-width="1" stroke-opacity="1" x="143" y="12" width="88" height="56" />
	<text font-family="Helvetica" font-size="12" fill="#000000" xml:space="preserve" text-anchor="middle" x="187" y="27">&lt;&lt;interface&gt;&gt;</text>
	<text font-family="Helvetica" font-size="12" fill="#000000" xml:space="preserve" font-weight="bold" text-anchor="middle" x="187" y="47">GLBase</text>
	<line stroke="black" stroke-opacity="1" x1="143" y1="52" x2="231" y2="52" />
	<line stroke="black" stroke-opacity="1" x1="143" y1="60" x2="231" y2="60" />
</g>
<g>
	<rect fill="#808080" stroke="none" stroke-opacity="1" x="768" y="109" width="3" height="35" />
	<rect fill="#808080" stroke="none" stroke-opacity="1" x="690" y="141" width="81" height="3" />
	<rect fill="#ffffc0" stroke="black" stroke-width="1" stroke-opacity="1" x="686" y="105" width="82" height="36" />
	<text font-family="Helvetica" font-size="12" fill="#000000" xml:space="preserve" font-weight="bold" font-style="italic" text-anchor="middle" x="727" y="120">GLDrawable</text>
	<line stroke="black" stroke-opacity="1" x1="686" y1="125" x2="768" y2="125" />
	<line stroke="black" stroke-opacity="1" x1="686" y1="133" x2="768" y2="133" />
</g>
<g>
	<rect fill="none" stroke="black" stroke-width="1" stroke-opacity="1" x="292" y="261" width="100" height="56" />
	<text font-family="Helvetica" font-size="12" fill="#000000" xml:space="preserve" text-anchor="middle" x="342" y="276">&lt;&lt;metaclass&gt;&gt;</text>
	<text font-family="Helvetica" font-size="12" fill="#000000" xml:space="preserve" font-weight="bold" font-style="italic" text-anchor="middle" x="342" y="296">GL2ES3</text>
	<line stroke="black" stroke-opacity="1" x1="292" y1="301" x2="392" y2="301" />
	<line stroke="black" stroke-opacity="1" x1="292" y1="309" x2="392" y2="309" />
</g>
<g>
	<line stroke="black" stroke-opacity="1" x1="857" y1="953" x2="877" y2="953" />
	<ellipse fill="#ffffc0" stroke="black" stroke-width="1" stroke-opacity="1" cx="867" cy="943" rx="10" ry="10" />
	<text font-family="Helvetica" font-size="12" fill="#000000" xml:space="preserve" font-weight="bold" text-anchor="middle" x="867" y="968">GL4bcImpl</text>
	<line stroke="black" stroke-opacity="1" x1="829" y1="973" x2="905" y2="973" />
	<line stroke="black" stroke-opacity="1" x1="829" y1="981" x2="905" y2="981" />
</g>
<g>
	<line stroke="black" stroke-opacity="1" x1="581" y1="606" x2="601" y2="606" />
	<ellipse fill="#ffffc0" stroke="black" stroke-width="1" stroke-opacity="1" cx="591" cy="596" rx="10" ry="10" />
	<text font-family="Helvetica" font-size="12" fill="#000000" xml:space="preserve" font-weight="bold" text-anchor="middle" x="591" y="621">GLES3Impl</text>
	<line stroke="black" stroke-opacity="1" x1="552" y1="626" x2="630" y2="626" />
	<line stroke="black" stroke-opacity="1" x1="552" y1="634" x2="630" y2="634" />
</g>
<g>
	<rect fill="#808080" stroke="none" stroke-opacity="1" x="1121" y="204" width="3" height="55" />
	<rect fill="#808080" stroke="none" stroke-opacity="1" x="1025" y="256" width="99" height="3" />
	<rect fill="#ffffc0" stroke="black" stroke-width="1" stroke-opacity="1" x="1021" y="200" width="100" height="56" />
	<text font-family="Helvetica" font-size="12" fill="#000000" xml:space="preserve" text-anchor="middle" x="1071" y="215">&lt;&lt;interface&gt;&gt;</text>
	<text font-family="Helvetica" font-size="12" fill="#000000" xml:space="preserve" font-weight="bold" text-anchor="middle" x="1071" y="235">NativeWindow</text>
	<line stroke="black" stroke-opacity="1" x1="1021" y1="240" x2="1121" y2="240" />
	<line stroke="black" stroke-opacity="1" x1="1021" y1="248" x2="1121" y2="248" />
</g>
<g>
	<rect fill="#808080" stroke="none" stroke-opacity="1" x="1170" y="299" width="3" height="35" />
	<rect fill="#808080" stroke="none" stroke-opacity="1" x="976" y="331" width="197" height="3" />
	<rect fill="#ffffc0" stroke="black" stroke-width="1" stroke-opacity="1" x="972" y="295" width="198" height="36" />
	<text font-family="Helvetica" font-size="12" fill="#000000" xml:space="preserve" font-weight="bold" font-style="italic" text-anchor="middle" x="1071" y="310">AbstractGraphicsConfiguration</text>
	<line stroke="black" stroke-opacity="1" x1="972" y1="315" x2="1170" y2="315" />
	<line stroke="black" stroke-opacity="1" x1="972" y1="323" x2="1170" y2="323" />
</g>
<g>
	<rect fill="#808080" stroke="none" stroke-opacity="1" x="1119" y="482" width="3" height="35" />
	<rect fill="#808080" stroke="none" stroke-opacity="1" x="1023" y="514" width="99" height="3" />
	<rect fill="#ffffc0" stroke="black" stroke-width="1" stroke-opacity="1" x="1019" y="478" width="100" height="36" />
	<text font-family="Helvetica" font-size="12" fill="#000000" xml:space="preserve" font-weight="bold" text-anchor="middle" x="1069" y="493">GLCapabilities</text>
	<line stroke="black" stroke-opacity="1" x1="1019" y1="498" x2="1119" y2="498" />
	<line stroke="black" stroke-opacity="1" x1="1019" y1="506" x2="1119" y2="506" />
</g>
<g>
	<rect fill="#808080" stroke="none" stroke-opacity="1" x="231" y="116" width="3" height="55" />
	<rect fill="#808080" stroke="none" stroke-opacity="1" x="147" y="168" width="87" height="3" />
	<rect fill="#ffffc0" stroke="black" stroke-width="1" stroke-opacity="1" x="143" y="112" width="88" height="56" />
	<text font-family="Helvetica" font-size="12" fill="#000000" xml:space="preserve" text-anchor="middle" x="187" y="127">&lt;&lt;interface&gt;&gt;</text>
	<text font-family="Helvetica" font-size="12" fill="#000000" xml:space="preserve" font-weight="bold" text-anchor="middle" x="187" y="147">GL</text>
	<line stroke="black" stroke-opacity="1" x1="143" y1="152" x2="231" y2="152" />
	<line stroke="black" stroke-opacity="1" x1="143" y1="160" x2="231" y2="160" />
</g>
<g>
	<rect fill="#808080" stroke="none" stroke-opacity="1" x="909" y="805" width="3" height="55" />
	<rect fill="#808080" stroke="none" stroke-opacity="1" x="825" y="857" width="87" height="3" />
	<rect fill="#ffffc0" stroke="black" stroke-width="1" stroke-opacity="1" x="821" y="801" width="88" height="56" />
	<text font-family="Helvetica" font-size="12" fill="#000000" xml:space="preserve" text-anchor="middle" x="865" y="816">&lt;&lt;interface&gt;&gt;</text>
	<text font-family="Helvetica" font-size="12" fill="#000000" xml:space="preserve" font-weight="bold" text-anchor="middle" x="865" y="836">GL4</text>
	<line stroke="black" stroke-opacity="1" x1="821" y1="841" x2="909" y2="841" />
	<line stroke="black" stroke-opacity="1" x1="821" y1="849" x2="909" y2="849" />
</g>
<g>
	<rect fill="#808080" stroke="none" stroke-opacity="1" x="231" y="242" width="3" height="55" />
	<rect fill="#808080" stroke="none" stroke-opacity="1" x="147" y="294" width="87" height="3" />
	<rect fill="#ffffc0" stroke="black" stroke-width="1" stroke-opacity="1" x="143" y="238" width="88" height="56" />
	<text font-family="Helvetica" font-size="12" fill="#000000" xml:space="preserve" text-anchor="middle" x="187" y="253">&lt;&lt;interface&gt;&gt;</text>
	<text font-family="Helvetica" font-size="12" fill="#000000" xml:space="preserve" font-weight="bold" text-anchor="middle" x="187" y="273">GL2ES2</text>
	<line stroke="black" stroke-opacity="1" x1="143" y1="278" x2="231" y2="278" />
	<line stroke="black" stroke-opacity="1" x1="143" y1="286" x2="231" y2="286" />
</g>
<g>
	<rect fill="#808080" stroke="none" stroke-opacity="1" x="550" y="712" width="3" height="55" />
	<rect fill="#808080" stroke="none" stroke-opacity="1" x="466" y="764" width="87" height="3" />
	<rect fill="#ffffc0" stroke="black" stroke-width="1" stroke-opacity="1" x="462" y="708" width="88" height="56" />
	<text font-family="Helvetica" font-size="12" fill="#000000" xml:space="preserve" text-anchor="middle" x="506" y="723">&lt;&lt;interface&gt;&gt;</text>
	<text font-family="Helvetica" font-size="12" fill="#000000" xml:space="preserve" font-weight="bold" text-anchor="middle" x="506" y="743">GL3</text>
	<line stroke="black" stroke-opacity="1" x1="462" y1="748" x2="550" y2="748" />
	<line stroke="black" stroke-opacity="1" x1="462" y1="756" x2="550" y2="756" />
</g>
<g>
	<rect fill="#808080" stroke="none" stroke-opacity="1" x="231" y="495" width="3" height="55" />
	<rect fill="#808080" stroke="none" stroke-opacity="1" x="147" y="547" width="87" height="3" />
	<rect fill="#ffffc0" stroke="black" stroke-width="1" stroke-opacity="1" x="143" y="491" width="88" height="56" />
	<text font-family="Helvetica" font-size="12" fill="#000000" xml:space="preserve" text-anchor="middle" x="187" y="506">&lt;&lt;interface&gt;&gt;</text>
	<text font-family="Helvetica" font-size="12" fill="#000000" xml:space="preserve" font-weight="bold" text-anchor="middle" x="187" y="526">GLES2</text>
	<line stroke="black" stroke-opacity="1" x1="143" y1="531" x2="231" y2="531" />
	<line stroke="black" stroke-opacity="1" x1="143" y1="539" x2="231" y2="539" />
</g>
<g>
	<rect fill="#808080" stroke="none" stroke-opacity="1" x="740" y="320" width="3" height="55" />
	<rect fill="#808080" stroke="none" stroke-opacity="1" x="642" y="372" width="101" height="3" />
	<rect fill="#ffffc0" stroke="black" stroke-width="1" stroke-opacity="1" x="638" y="316" width="102" height="56" />
	<text font-family="Helvetica" font-size="12" fill="#000000" xml:space="preserve" text-anchor="middle" x="689" y="331">&lt;&lt;@interface&gt;&gt;</text>
	<text font-family="Helvetica" font-size="12" fill="#000000" xml:space="preserve" font-weight="bold" text-anchor="middle" x="689" y="351">GL4ES3</text>
	<line stroke="black" stroke-opacity="1" x1="638" y1="356" x2="740" y2="356" />
	<line stroke="black" stroke-opacity="1" x1="638" y1="364" x2="740" y2="364" />
</g>
<g>
	<rect fill="#808080" stroke="none" stroke-opacity="1" x="494" y="27" width="3" height="35" />
	<rect fill="#808080" stroke="none" stroke-opacity="1" x="426" y="59" width="71" height="3" />
	<rect fill="#ffffc0" stroke="black" stroke-width="1" stroke-opacity="1" x="422" y="23" width="72" height="36" />
	<text font-family="Helvetica" font-size="12" fill="#000000" xml:space="preserve" font-weight="bold" font-style="italic" text-anchor="middle" x="458" y="38">GLContext</text>
	<line stroke="black" stroke-opacity="1" x1="422" y1="43" x2="494" y2="43" />
	<line stroke="black" stroke-opacity="1" x1="422" y1="51" x2="494" y2="51" />
</g>
<g>
	<line stroke="black" stroke-opacity="1" x1="856" y1="800" x2="703" y2="381" />
	<line stroke="black" stroke-opacity="1" x1="701" y1="376" x2="697" y2="383" />
	<line stroke="black" stroke-opacity="1" x1="701" y1="376" x2="708" y2="379" />
	<line stroke="black" stroke-opacity="1" x1="697" y1="383" x2="708" y2="379" />
</g>
<g>
	<line stroke-dasharray="4,4" stroke="black" stroke-opacity="1" x1="551" y1="604" x2="240" y2="532" />
	<line stroke="black" stroke-opacity="1" x1="235" y1="531" x2="239" y2="538" />
	<line stroke="black" stroke-opacity="1" x1="235" y1="531" x2="242" y2="526" />
	<line stroke="black" stroke-opacity="1" x1="239" y1="538" x2="242" y2="526" />
</g>
<g>
	<line stroke-dasharray="4,4" stroke="black" stroke-opacity="1" x1="867" y1="932" x2="867" y2="867" />
	<line stroke="black" stroke-opacity="1" x1="867" y1="861" x2="861" y2="867" />
	<line stroke="black" stroke-opacity="1" x1="867" y1="861" x2="873" y2="867" />
	<line stroke="black" stroke-opacity="1" x1="861" y1="867" x2="873" y2="867" />
</g>
<g>
	<line stroke="black" stroke-opacity="1" x1="820" y1="818" x2="559" y2="750" />
	<line stroke="black" stroke-opacity="1" x1="554" y1="749" x2="558" y2="756" />
	<line stroke="black" stroke-opacity="1" x1="554" y1="749" x2="561" y2="744" />
	<line stroke="black" stroke-opacity="1" x1="558" y1="756" x2="561" y2="744" />
</g>
<g>
	<line stroke="black" stroke-opacity="1" x1="291" y1="280" x2="240" y2="273" />
	<line stroke="black" stroke-opacity="1" x1="235" y1="273" x2="240" y2="279" />
	<line stroke="black" stroke-opacity="1" x1="235" y1="273" x2="241" y2="267" />
	<line stroke="black" stroke-opacity="1" x1="240" y1="279" x2="241" y2="267" />
</g>
<g>
	<rect fill="#808080" stroke="none" stroke-opacity="1" x="740" y="504" width="3" height="55" />
	<rect fill="#808080" stroke="none" stroke-opacity="1" x="642" y="556" width="101" height="3" />
	<rect fill="#ffffc0" stroke="black" stroke-width="1" stroke-opacity="1" x="638" y="500" width="102" height="56" />
	<text font-family="Helvetica" font-size="12" fill="#000000" xml:space="preserve" text-anchor="middle" x="689" y="515">&lt;&lt;@interface&gt;&gt;</text>
	<text font-family="Helvetica" font-size="12" fill="#000000" xml:space="preserve" font-weight="bold" text-anchor="middle" x="689" y="535">GLES3</text>
	<line stroke="black" stroke-opacity="1" x1="638" y1="540" x2="740" y2="540" />
	<line stroke="black" stroke-opacity="1" x1="638" y1="548" x2="740" y2="548" />
</g>
<g>
	<line stroke-dasharray="4,4" stroke="black" stroke-opacity="1" x1="622" y1="585" x2="645" y2="563" />
	<line stroke="black" stroke-opacity="1" x1="650" y1="560" x2="641" y2="559" />
	<line stroke="black" stroke-opacity="1" x1="650" y1="560" x2="649" y2="568" />
	<line stroke="black" stroke-opacity="1" x1="641" y1="559" x2="649" y2="568" />
</g>
<g>
	<rect fill="#808080" stroke="none" stroke-opacity="1" x="1110" y="399" width="3" height="35" />
	<rect fill="#808080" stroke="none" stroke-opacity="1" x="1032" y="431" width="81" height="3" />
	<rect fill="#ffffc0" stroke="black" stroke-width="1" stroke-opacity="1" x="1028" y="395" width="82" height="36" />
	<text font-family="Helvetica" font-size="12" fill="#000000" xml:space="preserve" font-weight="bold" text-anchor="middle" x="1069" y="410">Capabilities</text>
	<line stroke="black" stroke-opacity="1" x1="1028" y1="415" x2="1110" y2="415" />
	<line stroke="black" stroke-opacity="1" x1="1028" y1="423" x2="1110" y2="423" />
</g>
<g>
	<line stroke="black" stroke-opacity="1" x1="691" y1="499" x2="691" y2="382" />
	<line stroke="black" stroke-opacity="1" x1="691" y1="376" x2="685" y2="382" />
	<line stroke="black" stroke-opacity="1" x1="691" y1="376" x2="697" y2="382" />
	<line stroke="black" stroke-opacity="1" x1="685" y1="382" x2="697" y2="382" />
</g>
<g>
	<rect fill="none" stroke="black" stroke-width="1" stroke-opacity="1" x="298" y="414" width="88" height="56" />
	<text font-family="Helvetica" font-size="12" fill="#000000" xml:space="preserve" text-anchor="middle" x="342" y="429">&lt;&lt;interface&gt;&gt;</text>
	<text font-family="Helvetica" font-size="12" fill="#000000" xml:space="preserve" font-weight="bold" text-anchor="middle" x="342" y="449">GL2GL3</text>
	<line stroke="black" stroke-opacity="1" x1="298" y1="454" x2="386" y2="454" />
	<line stroke="black" stroke-opacity="1" x1="298" y1="462" x2="386" y2="462" />
</g>
<g>
	<line stroke="black" stroke-opacity="1" x1="342" y1="413" x2="342" y2="323" />
	<line stroke="black" stroke-opacity="1" x1="342" y1="317" x2="336" y2="323" />
	<line stroke="black" stroke-opacity="1" x1="342" y1="317" x2="348" y2="323" />
	<line stroke="black" stroke-opacity="1" x1="336" y1="323" x2="348" y2="323" />
</g>
<g>
	<rect fill="#808080" stroke="none" stroke-opacity="1" x="558" y="288" width="3" height="55" />
	<rect fill="#808080" stroke="none" stroke-opacity="1" x="460" y="340" width="101" height="3" />
	<rect fill="#ffffc0" stroke="black" stroke-width="1" stroke-opacity="1" x="456" y="284" width="102" height="56" />
	<text font-family="Helvetica" font-size="12" fill="#000000" xml:space="preserve" text-anchor="middle" x="507" y="299">&lt;&lt;@interface&gt;&gt;</text>
	<text font-family="Helvetica" font-size="12" fill="#000000" xml:space="preserve" font-weight="bold" text-anchor="middle" x="507" y="319">GL3ES3</text>
	<line stroke="black" stroke-opacity="1" x1="456" y1="324" x2="558" y2="324" />
	<line stroke="black" stroke-opacity="1" x1="456" y1="332" x2="558" y2="332" />
</g>
<g>
	<line stroke="black" stroke-opacity="1" x1="508" y1="707" x2="508" y2="350" />
	<line stroke="black" stroke-opacity="1" x1="508" y1="344" x2="502" y2="350" />
	<line stroke="black" stroke-opacity="1" x1="508" y1="344" x2="514" y2="350" />
	<line stroke="black" stroke-opacity="1" x1="502" y1="350" x2="514" y2="350" />
</g>
<g>
	<line stroke="black" stroke-opacity="1" x1="637" y1="336" x2="567" y2="323" />
	<line stroke="black" stroke-opacity="1" x1="562" y1="322" x2="566" y2="328" />
	<line stroke="black" stroke-opacity="1" x1="562" y1="322" x2="568" y2="317" />
	<line stroke="black" stroke-opacity="1" x1="566" y1="328" x2="568" y2="317" />
</g>
<g>
	<line stroke="black" stroke-opacity="1" x1="455" y1="304" x2="397" y2="295" />
	<line stroke="black" stroke-opacity="1" x1="392" y1="295" x2="397" y2="301" />
	<line stroke="black" stroke-opacity="1" x1="392" y1="295" x2="398" y2="289" />
	<line stroke="black" stroke-opacity="1" x1="397" y1="301" x2="398" y2="289" />
</g>
<g>
	<text font-family="Helvetica" font-size="12" fill="#000000" xml:space="preserve" x="514" y="80">0..1</text>
</g>
<g>
	<text font-family="Helvetica" font-size="12" fill="#000000" xml:space="preserve" x="660" y="135">1</text>
</g>
<g>
	<text font-family="Helvetica" font-size="12" fill="#000000" xml:space="preserve" x="1043" y="386">chosen</text>
</g>
<g>
	<text font-family="Helvetica" font-size="12" fill="#000000" xml:space="preserve" x="1015" y="386">1</text>
</g>
<g>
	<text font-family="Helvetica" font-size="12" fill="#000000" xml:space="preserve" x="1115" y="386">requested</text>
</g>
<g>
	<text font-family="Helvetica" font-size="12" fill="#000000" xml:space="preserve" x="1080" y="386">1</text>
</g>
<g>
	<text font-family="Helvetica" font-size="12" fill="#000000" xml:space="preserve" x="397" y="64">1</text>
</g>
<g>
	<text font-family="Helvetica" font-size="12" fill="#000000" xml:space="preserve" x="248" y="64">1</text>
</g>
</svg>
