<?xml version="1.0" encoding="UTF-8" standalone="no"?>
<!-- Created with Bouml (http://bouml.free.fr/) -->
<!DOCTYPE svg PUBLIC "-//W3C//DTD SVG 1.1//EN" "http://www.w3.org/Graphics/SVG/1.1/DTD/svg11.dtd">
<svg width="1072" height="1062" version="1.1" xmlns="http://www.w3.org/2000/svg">
<g>
	<rect fill="#ededed" stroke="black" stroke-width="1" stroke-opacity="1" x="2" y="176" width="213" height="874" />
	<text font-family="Helvetica" font-size="11" fill="#000000" xml:space="preserve" text-anchor="middle" x="45" y="193">Fixed Function</text>
	<line stroke="black" stroke-opacity="1" x1="2" y1="197" x2="87" y2="197" />
	<line stroke="black" stroke-opacity="1" x1="87" y1="197" x2="98" y2="186" />
	<line stroke="black" stroke-opacity="1" x1="98" y1="186" x2="98" y2="176" />
</g>
<g>
	<line stroke="black" stroke-dasharray="20,4" stroke-opacity="1" x1="2" y1="276" x2="215" y2="276" />
</g>
<g>
	<line stroke="black" stroke-dasharray="20,4" stroke-opacity="1" x1="2" y1="574" x2="215" y2="574" />
</g>
<g>
	<line stroke="black" stroke-dasharray="20,4" stroke-opacity="1" x1="2" y1="354" x2="215" y2="354" />
</g>
<g>
	<rect fill="#c0ffff" stroke="black" stroke-width="1" stroke-opacity="1" x="213" y="175" width="628" height="875" />
	<text font-family="Helvetica" font-size="11" fill="#000000" xml:space="preserve" text-anchor="middle" x="279" y="192">Programmable Shader</text>
	<line stroke="black" stroke-opacity="1" x1="213" y1="196" x2="345" y2="196" />
	<line stroke="black" stroke-opacity="1" x1="345" y1="196" x2="356" y2="185" />
	<line stroke="black" stroke-opacity="1" x1="356" y1="185" x2="356" y2="175" />
</g>
<g>
	<line stroke="black" stroke-dasharray="20,4" stroke-opacity="1" x1="213" y1="341" x2="841" y2="341" />
</g>
<g>
	<line stroke="black" stroke-dasharray="20,4" stroke-opacity="1" x1="213" y1="573" x2="841" y2="573" />
</g>
<g>
	<line stroke="black" stroke-dasharray="20,4" stroke-opacity="1" x1="213" y1="416" x2="841" y2="416" />
</g>
<g>
	<line stroke="black" stroke-opacity="1" x1="77" y1="432" x2="77" y2="263" />
	<line stroke="black" stroke-opacity="1" x1="77" y1="257" x2="71" y2="263" />
	<line stroke="black" stroke-opacity="1" x1="77" y1="257" x2="83" y2="263" />
	<line stroke="black" stroke-opacity="1" x1="71" y1="263" x2="83" y2="263" />
</g>
<g>
	<line stroke="black" stroke-opacity="1" x1="258" y1="205" x2="204" y2="157" />
	<line stroke="black" stroke-opacity="1" x1="200" y1="153" x2="200" y2="161" />
	<line stroke="black" stroke-opacity="1" x1="200" y1="153" x2="208" y2="152" />
	<line stroke="black" stroke-opacity="1" x1="200" y1="161" x2="208" y2="152" />
</g>
<g>
	<line stroke="black" stroke-opacity="1" x1="100" y1="204" x2="139" y2="157" />
	<line stroke="black" stroke-opacity="1" x1="143" y1="153" x2="134" y2="153" />
	<line stroke="black" stroke-opacity="1" x1="143" y1="153" x2="143" y2="161" />
	<line stroke="black" stroke-opacity="1" x1="134" y1="153" x2="143" y2="161" />
</g>
<g>
	<line stroke="black" stroke-opacity="1" x1="964" y1="430" x2="964" y2="397" />
	<line stroke="black" stroke-opacity="1" x1="964" y1="391" x2="958" y2="397" />
	<line stroke="black" stroke-opacity="1" x1="964" y1="391" x2="970" y2="397" />
	<line stroke="black" stroke-opacity="1" x1="958" y1="397" x2="970" y2="397" />
</g>
<g>
	<line stroke="black" stroke-opacity="1" x1="933" y1="301" x2="934" y2="356" />
</g>
<g>
	<line stroke="black" stroke-opacity="1" x1="965" y1="266" x2="965" y2="233" />
</g>
<g>
	<line stroke="black" stroke-opacity="1" x1="919" y1="192" x2="696" y2="124" />
</g>
<g>
	<line stroke="black" stroke-opacity="1" x1="964" y1="524" x2="964" y2="465" />
</g>
<g>
	<line stroke="black" stroke-opacity="1" x1="988" y1="356" x2="990" y2="301" />
</g>
<g>
	<line stroke="black" stroke-opacity="1" x1="964" y1="524" x2="964" y2="465" />
</g>
<g>
	<line stroke="black" stroke-opacity="1" x1="170" y1="100" x2="170" y2="70" />
	<line stroke="black" stroke-opacity="1" x1="170" y1="64" x2="164" y2="70" />
	<line stroke="black" stroke-opacity="1" x1="170" y1="64" x2="176" y2="70" />
	<line stroke="black" stroke-opacity="1" x1="164" y1="70" x2="176" y2="70" />
</g>
<g>
	<line stroke="black" stroke-opacity="1" x1="213" y1="38" x2="378" y2="38" />
</g>
<g>
	<line stroke="black" stroke-opacity="1" x1="288" y1="432" x2="288" y2="264" />
	<line stroke="black" stroke-opacity="1" x1="288" y1="258" x2="282" y2="264" />
	<line stroke="black" stroke-opacity="1" x1="288" y1="258" x2="294" y2="264" />
	<line stroke="black" stroke-opacity="1" x1="282" y1="264" x2="294" y2="264" />
</g>
<g>
	<line stroke="black" stroke-opacity="1" x1="565" y1="720" x2="439" y2="409" />
	<line stroke="black" stroke-opacity="1" x1="437" y1="404" x2="433" y2="411" />
	<line stroke="black" stroke-opacity="1" x1="437" y1="404" x2="444" y2="407" />
	<line stroke="black" stroke-opacity="1" x1="433" y1="411" x2="444" y2="407" />
</g>
<g>
	<line stroke="black" stroke-opacity="1" x1="236" y1="621" x2="401" y2="408" />
	<line stroke="black" stroke-opacity="1" x1="405" y1="404" x2="396" y2="405" />
	<line stroke="black" stroke-opacity="1" x1="405" y1="404" x2="406" y2="412" />
	<line stroke="black" stroke-opacity="1" x1="396" y1="405" x2="406" y2="412" />
</g>
<g>
	<line stroke="black" stroke-opacity="1" x1="208" y1="621" x2="86" y2="262" />
	<line stroke="black" stroke-opacity="1" x1="85" y1="257" x2="81" y2="264" />
	<line stroke="black" stroke-opacity="1" x1="85" y1="257" x2="92" y2="260" />
	<line stroke="black" stroke-opacity="1" x1="81" y1="264" x2="92" y2="260" />
</g>
<g>
	<line stroke="black" stroke-opacity="1" x1="615" y1="98" x2="449" y2="48" />
</g>
<g>
	<line stroke-dasharray="4,4" stroke="black" stroke-opacity="1" x1="76" y1="517" x2="76" y2="490" />
	<line stroke="black" stroke-opacity="1" x1="77" y1="485" x2="70" y2="490" />
	<line stroke="black" stroke-opacity="1" x1="77" y1="485" x2="82" y2="491" />
	<line stroke="black" stroke-opacity="1" x1="70" y1="490" x2="82" y2="491" />
</g>
<g>
	<line stroke-dasharray="4,4" stroke="black" stroke-opacity="1" x1="441" y1="944" x2="553" y2="777" />
	<line stroke="black" stroke-opacity="1" x1="557" y1="773" x2="548" y2="774" />
	<line stroke="black" stroke-opacity="1" x1="557" y1="773" x2="558" y2="781" />
	<line stroke="black" stroke-opacity="1" x1="548" y1="774" x2="558" y2="781" />
</g>
	<text font-family="Helvetica" font-size="11" fill="#000000" xml:space="preserve" x="743" y="378">Common Desktop</text>
	<text font-family="Helvetica" font-size="11" fill="#000000" xml:space="preserve" x="743" y="393">Profile</text>
	<text font-family="Helvetica" font-size="11" fill="#000000" xml:space="preserve" x="704" y="30">Lifecycle: From the lower right to</text>
	<text font-family="Helvetica" font-size="11" fill="#000000" xml:space="preserve" x="704" y="45">the top, left step where the</text>
	<text font-family="Helvetica" font-size="11" fill="#000000" xml:space="preserve" x="704" y="60">GLContext is created with a</text>
	<text font-family="Helvetica" font-size="11" fill="#000000" xml:space="preserve" x="704" y="75">suitable GL implementation</text>
	<text font-family="Helvetica" font-size="11" fill="#000000" xml:space="preserve" x="704" y="90">matching the GLProfile.</text>
	<text font-family="Helvetica" font-size="11" fill="#000000" xml:space="preserve" x="739" y="237">Desktop/Mobile</text>
	<text font-family="Helvetica" font-size="11" fill="#000000" xml:space="preserve" x="739" y="252">Common Interfaces</text>
	<text font-family="Helvetica" font-size="11" fill="#000000" xml:space="preserve" x="17" y="980">Private implementation</text>
	<text font-family="Helvetica" font-size="11" fill="#000000" xml:space="preserve" x="17" y="995">(detail)</text>
	<text font-family="Helvetica" font-size="11" fill="#000000" xml:space="preserve" x="740" y="485">Mobile final public</text>
	<text font-family="Helvetica" font-size="11" fill="#000000" xml:space="preserve" x="740" y="500">OpenGL Interfaces</text>
	<text font-family="Helvetica" font-size="11" fill="#000000" xml:space="preserve" x="732" y="614">Desktop final public</text>
	<text font-family="Helvetica" font-size="11" fill="#000000" xml:space="preserve" x="732" y="629">OpenGL Interfaces</text>
	<text font-family="Helvetica" font-size="11" fill="#000000" xml:space="preserve" x="244" y="137">Common GL</text>
	<text font-family="Helvetica" font-size="11" fill="#000000" xml:space="preserve" x="244" y="152">Stuff</text>
<g>
	<line stroke="black" stroke-opacity="1" x1="418" y1="963" x2="436" y2="963" />
	<ellipse fill="#ffffc0" stroke="black" stroke-width="1" stroke-opacity="1" cx="427" cy="954" rx="9" ry="9" />
	<text font-family="Helvetica" font-size="11" fill="#000000" xml:space="preserve" font-weight="bold" text-anchor="middle" x="427" y="976">GL4bcImpl</text>
	<line stroke="black" stroke-opacity="1" x1="394" y1="980" x2="460" y2="980" />
	<line stroke="black" stroke-opacity="1" x1="394" y1="986" x2="460" y2="986" />
</g>
<g>
	<line stroke="black" stroke-opacity="1" x1="640" y1="537" x2="658" y2="537" />
	<ellipse fill="#ffffc0" stroke="black" stroke-width="1" stroke-opacity="1" cx="649" cy="528" rx="9" ry="9" />
	<text font-family="Helvetica" font-size="11" fill="#000000" xml:space="preserve" font-weight="bold" text-anchor="middle" x="649" y="550">GLES3Impl</text>
	<line stroke="black" stroke-opacity="1" x1="615" y1="554" x2="683" y2="554" />
	<line stroke="black" stroke-opacity="1" x1="615" y1="560" x2="683" y2="560" />
</g>
<g>
	<rect fill="#808080" stroke="none" stroke-opacity="1" x="1007" y="184" width="2" height="48" />
	<rect fill="#808080" stroke="none" stroke-opacity="1" x="923" y="230" width="86" height="2" />
	<rect fill="#ffffc0" stroke="black" stroke-width="1" stroke-opacity="1" x="920" y="181" width="87" height="49" />
	<text font-family="Helvetica" font-size="11" fill="#000000" xml:space="preserve" text-anchor="middle" x="964" y="194">&lt;&lt;interface&gt;&gt;</text>
	<text font-family="Helvetica" font-size="11" fill="#000000" xml:space="preserve" font-weight="bold" text-anchor="middle" x="964" y="211">NativeWindow</text>
	<line stroke="black" stroke-opacity="1" x1="920" y1="215" x2="1007" y2="215" />
	<line stroke="black" stroke-opacity="1" x1="920" y1="221" x2="1007" y2="221" />
</g>
<g>
	<rect fill="#808080" stroke="none" stroke-opacity="1" x="1057" y="270" width="2" height="30" />
	<rect fill="#808080" stroke="none" stroke-opacity="1" x="875" y="298" width="184" height="2" />
	<rect fill="#ffffc0" stroke="black" stroke-width="1" stroke-opacity="1" x="872" y="267" width="185" height="31" />
	<text font-family="Helvetica" font-size="11" fill="#000000" xml:space="preserve" font-weight="bold" font-style="italic" text-anchor="middle" x="965" y="280">AbstractGraphicsConfiguration</text>
	<line stroke="black" stroke-opacity="1" x1="872" y1="284" x2="1057" y2="284" />
	<line stroke="black" stroke-opacity="1" x1="872" y1="290" x2="1057" y2="290" />
</g>
<g>
	<rect fill="#808080" stroke="none" stroke-opacity="1" x="1006" y="434" width="2" height="30" />
	<rect fill="#808080" stroke="none" stroke-opacity="1" x="922" y="462" width="86" height="2" />
	<rect fill="#ffffc0" stroke="black" stroke-width="1" stroke-opacity="1" x="919" y="431" width="87" height="31" />
	<text font-family="Helvetica" font-size="11" fill="#000000" xml:space="preserve" font-weight="bold" text-anchor="middle" x="963" y="444">GLCapabilities</text>
	<line stroke="black" stroke-opacity="1" x1="919" y1="448" x2="1006" y2="448" />
	<line stroke="black" stroke-opacity="1" x1="919" y1="454" x2="1006" y2="454" />
</g>
<g>
	<rect fill="#808080" stroke="none" stroke-opacity="1" x="993" y="528" width="2" height="30" />
	<rect fill="#808080" stroke="none" stroke-opacity="1" x="937" y="556" width="58" height="2" />
	<rect fill="#ffffc0" stroke="black" stroke-width="1" stroke-opacity="1" x="934" y="525" width="59" height="31" />
	<text font-family="Helvetica" font-size="11" fill="#000000" xml:space="preserve" font-weight="bold" text-anchor="middle" x="964" y="538">GLProfile</text>
	<line stroke="black" stroke-opacity="1" x1="934" y1="542" x2="993" y2="542" />
	<line stroke="black" stroke-opacity="1" x1="934" y1="548" x2="993" y2="548" />
</g>
<g>
	<rect fill="#808080" stroke="none" stroke-opacity="1" x="210" y="15" width="2" height="48" />
	<rect fill="#808080" stroke="none" stroke-opacity="1" x="132" y="61" width="80" height="2" />
	<rect fill="#ffffc0" stroke="black" stroke-width="1" stroke-opacity="1" x="129" y="12" width="81" height="49" />
	<text font-family="Helvetica" font-size="11" fill="#000000" xml:space="preserve" text-anchor="middle" x="170" y="25">&lt;&lt;interface&gt;&gt;</text>
	<text font-family="Helvetica" font-size="11" fill="#000000" xml:space="preserve" font-weight="bold" text-anchor="middle" x="170" y="42">GLBase</text>
	<line stroke="black" stroke-opacity="1" x1="129" y1="46" x2="210" y2="46" />
	<line stroke="black" stroke-opacity="1" x1="129" y1="52" x2="210" y2="52" />
</g>
<g>
	<rect fill="#808080" stroke="none" stroke-opacity="1" x="256" y="839" width="2" height="48" />
	<rect fill="#808080" stroke="none" stroke-opacity="1" x="178" y="885" width="80" height="2" />
	<rect fill="#ffffc0" stroke="black" stroke-width="1" stroke-opacity="1" x="175" y="836" width="81" height="49" />
	<text font-family="Helvetica" font-size="11" fill="#000000" xml:space="preserve" text-anchor="middle" x="216" y="849">&lt;&lt;interface&gt;&gt;</text>
	<text font-family="Helvetica" font-size="11" fill="#000000" xml:space="preserve" font-weight="bold" text-anchor="middle" x="216" y="866">GL4bc</text>
	<line stroke="black" stroke-opacity="1" x1="175" y1="870" x2="256" y2="870" />
	<line stroke="black" stroke-opacity="1" x1="175" y1="876" x2="256" y2="876" />
</g>
<g>
	<rect fill="#808080" stroke="none" stroke-opacity="1" x="116" y="208" width="2" height="48" />
	<rect fill="#808080" stroke="none" stroke-opacity="1" x="38" y="254" width="80" height="2" />
	<rect fill="#ffffc0" stroke="black" stroke-width="1" stroke-opacity="1" x="35" y="205" width="81" height="49" />
	<text font-family="Helvetica" font-size="11" fill="#000000" xml:space="preserve" text-anchor="middle" x="76" y="218">&lt;&lt;interface&gt;&gt;</text>
	<text font-family="Helvetica" font-size="11" fill="#000000" xml:space="preserve" font-weight="bold" text-anchor="middle" x="76" y="235">GL2ES1</text>
	<line stroke="black" stroke-opacity="1" x1="35" y1="239" x2="116" y2="239" />
	<line stroke="black" stroke-opacity="1" x1="35" y1="245" x2="116" y2="245" />
</g>
<g>
	<rect fill="#808080" stroke="none" stroke-opacity="1" x="768" y="840" width="2" height="48" />
	<rect fill="#808080" stroke="none" stroke-opacity="1" x="690" y="886" width="80" height="2" />
	<rect fill="#ffffc0" stroke="black" stroke-width="1" stroke-opacity="1" x="687" y="837" width="81" height="49" />
	<text font-family="Helvetica" font-size="11" fill="#000000" xml:space="preserve" text-anchor="middle" x="728" y="850">&lt;&lt;interface&gt;&gt;</text>
	<text font-family="Helvetica" font-size="11" fill="#000000" xml:space="preserve" font-weight="bold" text-anchor="middle" x="728" y="867">GL4</text>
	<line stroke="black" stroke-opacity="1" x1="687" y1="871" x2="768" y2="871" />
	<line stroke="black" stroke-opacity="1" x1="687" y1="877" x2="768" y2="877" />
</g>
<g>
	<rect fill="#808080" stroke="none" stroke-opacity="1" x="209" y="104" width="2" height="48" />
	<rect fill="#808080" stroke="none" stroke-opacity="1" x="131" y="150" width="80" height="2" />
	<rect fill="#ffffc0" stroke="black" stroke-width="1" stroke-opacity="1" x="128" y="101" width="81" height="49" />
	<text font-family="Helvetica" font-size="11" fill="#000000" xml:space="preserve" text-anchor="middle" x="169" y="114">&lt;&lt;interface&gt;&gt;</text>
	<text font-family="Helvetica" font-size="11" fill="#000000" xml:space="preserve" font-weight="bold" text-anchor="middle" x="169" y="131">GL</text>
	<line stroke="black" stroke-opacity="1" x1="128" y1="135" x2="209" y2="135" />
	<line stroke="black" stroke-opacity="1" x1="128" y1="141" x2="209" y2="141" />
</g>
<g>
	<rect fill="#808080" stroke="none" stroke-opacity="1" x="256" y="724" width="2" height="48" />
	<rect fill="#808080" stroke="none" stroke-opacity="1" x="178" y="770" width="80" height="2" />
	<rect fill="#ffffc0" stroke="black" stroke-width="1" stroke-opacity="1" x="175" y="721" width="81" height="49" />
	<text font-family="Helvetica" font-size="11" fill="#000000" xml:space="preserve" text-anchor="middle" x="216" y="734">&lt;&lt;interface&gt;&gt;</text>
	<text font-family="Helvetica" font-size="11" fill="#000000" xml:space="preserve" font-weight="bold" text-anchor="middle" x="216" y="751">GL3bc</text>
	<line stroke="black" stroke-opacity="1" x1="175" y1="755" x2="256" y2="755" />
	<line stroke="black" stroke-opacity="1" x1="175" y1="761" x2="256" y2="761" />
</g>
<g>
	<rect fill="#808080" stroke="none" stroke-opacity="1" x="327" y="209" width="2" height="48" />
	<rect fill="#808080" stroke="none" stroke-opacity="1" x="249" y="255" width="80" height="2" />
	<rect fill="#ffffc0" stroke="black" stroke-width="1" stroke-opacity="1" x="246" y="206" width="81" height="49" />
	<text font-family="Helvetica" font-size="11" fill="#000000" xml:space="preserve" text-anchor="middle" x="287" y="219">&lt;&lt;interface&gt;&gt;</text>
	<text font-family="Helvetica" font-size="11" fill="#000000" xml:space="preserve" font-weight="bold" text-anchor="middle" x="287" y="236">GL2ES2</text>
	<line stroke="black" stroke-opacity="1" x1="246" y1="240" x2="327" y2="240" />
	<line stroke="black" stroke-opacity="1" x1="246" y1="246" x2="327" y2="246" />
</g>
<g>
	<rect fill="#808080" stroke="none" stroke-opacity="1" x="256" y="625" width="2" height="48" />
	<rect fill="#808080" stroke="none" stroke-opacity="1" x="178" y="671" width="80" height="2" />
	<rect fill="#ffffc0" stroke="black" stroke-width="1" stroke-opacity="1" x="175" y="622" width="81" height="49" />
	<text font-family="Helvetica" font-size="11" fill="#000000" xml:space="preserve" text-anchor="middle" x="216" y="635">&lt;&lt;interface&gt;&gt;</text>
	<text font-family="Helvetica" font-size="11" fill="#000000" xml:space="preserve" font-weight="bold" text-anchor="middle" x="216" y="652">GL2</text>
	<line stroke="black" stroke-opacity="1" x1="175" y1="656" x2="256" y2="656" />
	<line stroke="black" stroke-opacity="1" x1="175" y1="662" x2="256" y2="662" />
</g>
<g>
	<rect fill="#808080" stroke="none" stroke-opacity="1" x="117" y="436" width="2" height="48" />
	<rect fill="#808080" stroke="none" stroke-opacity="1" x="39" y="482" width="80" height="2" />
	<rect fill="#ffffc0" stroke="black" stroke-width="1" stroke-opacity="1" x="36" y="433" width="81" height="49" />
	<text font-family="Helvetica" font-size="11" fill="#000000" xml:space="preserve" text-anchor="middle" x="77" y="446">&lt;&lt;interface&gt;&gt;</text>
	<text font-family="Helvetica" font-size="11" fill="#000000" xml:space="preserve" font-weight="bold" text-anchor="middle" x="77" y="463">GLES1</text>
	<line stroke="black" stroke-opacity="1" x1="36" y1="467" x2="117" y2="467" />
	<line stroke="black" stroke-opacity="1" x1="36" y1="473" x2="117" y2="473" />
</g>
<g>
	<rect fill="#808080" stroke="none" stroke-opacity="1" x="616" y="724" width="2" height="48" />
	<rect fill="#808080" stroke="none" stroke-opacity="1" x="538" y="770" width="80" height="2" />
	<rect fill="#ffffc0" stroke="black" stroke-width="1" stroke-opacity="1" x="535" y="721" width="81" height="49" />
	<text font-family="Helvetica" font-size="11" fill="#000000" xml:space="preserve" text-anchor="middle" x="576" y="734">&lt;&lt;interface&gt;&gt;</text>
	<text font-family="Helvetica" font-size="11" fill="#000000" xml:space="preserve" font-weight="bold" text-anchor="middle" x="576" y="751">GL3</text>
	<line stroke="black" stroke-opacity="1" x1="535" y1="755" x2="616" y2="755" />
	<line stroke="black" stroke-opacity="1" x1="535" y1="761" x2="616" y2="761" />
</g>
<g>
	<rect fill="#808080" stroke="none" stroke-opacity="1" x="327" y="436" width="2" height="48" />
	<rect fill="#808080" stroke="none" stroke-opacity="1" x="249" y="482" width="80" height="2" />
	<rect fill="#ffffc0" stroke="black" stroke-width="1" stroke-opacity="1" x="246" y="433" width="81" height="49" />
	<text font-family="Helvetica" font-size="11" fill="#000000" xml:space="preserve" text-anchor="middle" x="287" y="446">&lt;&lt;interface&gt;&gt;</text>
	<text font-family="Helvetica" font-size="11" fill="#000000" xml:space="preserve" font-weight="bold" text-anchor="middle" x="287" y="463">GLES2</text>
	<line stroke="black" stroke-opacity="1" x1="246" y1="467" x2="327" y2="467" />
	<line stroke="black" stroke-opacity="1" x1="246" y1="473" x2="327" y2="473" />
</g>
<g>
	<rect fill="#808080" stroke="none" stroke-opacity="1" x="774" y="279" width="2" height="48" />
	<rect fill="#808080" stroke="none" stroke-opacity="1" x="684" y="325" width="92" height="2" />
	<rect fill="#ffffc0" stroke="black" stroke-width="1" stroke-opacity="1" x="681" y="276" width="93" height="49" />
	<text font-family="Helvetica" font-size="11" fill="#000000" xml:space="preserve" text-anchor="middle" x="728" y="289">&lt;&lt;@interface&gt;&gt;</text>
	<text font-family="Helvetica" font-size="11" fill="#000000" xml:space="preserve" font-weight="bold" text-anchor="middle" x="728" y="306">GL4ES3</text>
	<line stroke="black" stroke-opacity="1" x1="681" y1="310" x2="774" y2="310" />
	<line stroke="black" stroke-opacity="1" x1="681" y1="316" x2="774" y2="316" />
</g>
<g>
	<rect fill="#808080" stroke="none" stroke-opacity="1" x="446" y="24" width="2" height="30" />
	<rect fill="#808080" stroke="none" stroke-opacity="1" x="382" y="52" width="66" height="2" />
	<rect fill="#ffffc0" stroke="black" stroke-width="1" stroke-opacity="1" x="379" y="21" width="67" height="31" />
	<text font-family="Helvetica" font-size="11" fill="#000000" xml:space="preserve" font-weight="bold" font-style="italic" text-anchor="middle" x="413" y="34">GLContext</text>
	<line stroke="black" stroke-opacity="1" x1="379" y1="38" x2="446" y2="38" />
	<line stroke="black" stroke-opacity="1" x1="379" y1="44" x2="446" y2="44" />
</g>
<g>
	<rect fill="#808080" stroke="none" stroke-opacity="1" x="693" y="98" width="2" height="30" />
	<rect fill="#808080" stroke="none" stroke-opacity="1" x="619" y="126" width="76" height="2" />
	<rect fill="#ffffc0" stroke="black" stroke-width="1" stroke-opacity="1" x="616" y="95" width="77" height="31" />
	<text font-family="Helvetica" font-size="11" fill="#000000" xml:space="preserve" font-weight="bold" font-style="italic" text-anchor="middle" x="655" y="108">GLDrawable</text>
	<line stroke="black" stroke-opacity="1" x1="616" y1="112" x2="693" y2="112" />
	<line stroke="black" stroke-opacity="1" x1="616" y1="118" x2="693" y2="118" />
</g>
<g>
	<rect fill="none" stroke="black" stroke-width="1" stroke-opacity="1" x="380" y="226" width="92" height="48" />
	<text font-family="Helvetica" font-size="11" fill="#000000" xml:space="preserve" text-anchor="middle" x="426" y="239">&lt;&lt;metaclass&gt;&gt;</text>
	<text font-family="Helvetica" font-size="11" fill="#000000" xml:space="preserve" font-weight="bold" font-style="italic" text-anchor="middle" x="426" y="256">GL2ES3</text>
	<line stroke="black" stroke-opacity="1" x1="380" y1="260" x2="472" y2="260" />
	<line stroke="black" stroke-opacity="1" x1="380" y1="266" x2="472" y2="266" />
</g>
<g>
	<line stroke="black" stroke-opacity="1" x1="217" y1="720" x2="217" y2="680" />
	<line stroke="black" stroke-opacity="1" x1="217" y1="674" x2="211" y2="680" />
	<line stroke="black" stroke-opacity="1" x1="217" y1="674" x2="223" y2="680" />
	<line stroke="black" stroke-opacity="1" x1="211" y1="680" x2="223" y2="680" />
</g>
<g>
	<line stroke="black" stroke-opacity="1" x1="217" y1="835" x2="217" y2="779" />
	<line stroke="black" stroke-opacity="1" x1="217" y1="773" x2="211" y2="779" />
	<line stroke="black" stroke-opacity="1" x1="217" y1="773" x2="223" y2="779" />
	<line stroke="black" stroke-opacity="1" x1="211" y1="779" x2="223" y2="779" />
</g>
<g>
	<line stroke-dasharray="4,4" stroke="black" stroke-opacity="1" x1="393" y1="951" x2="264" y2="885" />
	<line stroke="black" stroke-opacity="1" x1="259" y1="883" x2="261" y2="891" />
	<line stroke="black" stroke-opacity="1" x1="259" y1="883" x2="267" y2="880" />
	<line stroke="black" stroke-opacity="1" x1="261" y1="891" x2="267" y2="880" />
</g>
<g>
	<line stroke="black" stroke-opacity="1" x1="694" y1="836" x2="616" y2="776" />
	<line stroke="black" stroke-opacity="1" x1="612" y1="773" x2="613" y2="781" />
	<line stroke="black" stroke-opacity="1" x1="612" y1="773" x2="620" y2="771" />
	<line stroke="black" stroke-opacity="1" x1="613" y1="781" x2="620" y2="771" />
</g>
<g>
	<line stroke-dasharray="4,4" stroke="black" stroke-opacity="1" x1="460" y1="955" x2="680" y2="877" />
	<line stroke="black" stroke-opacity="1" x1="686" y1="876" x2="678" y2="872" />
	<line stroke="black" stroke-opacity="1" x1="686" y1="876" x2="682" y2="883" />
	<line stroke="black" stroke-opacity="1" x1="678" y1="872" x2="682" y2="883" />
</g>
<g>
	<line stroke="black" stroke-opacity="1" x1="259" y1="747" x2="528" y2="747" />
	<line stroke="black" stroke-opacity="1" x1="534" y1="747" x2="528" y2="741" />
	<line stroke="black" stroke-opacity="1" x1="534" y1="747" x2="528" y2="753" />
	<line stroke="black" stroke-opacity="1" x1="528" y1="741" x2="528" y2="753" />
</g>
<g>
	<line stroke-dasharray="4,4" stroke="black" stroke-opacity="1" x1="410" y1="944" x2="237" y2="679" />
	<line stroke="black" stroke-opacity="1" x1="234" y1="674" x2="232" y2="682" />
	<line stroke="black" stroke-opacity="1" x1="234" y1="674" x2="242" y2="675" />
	<line stroke="black" stroke-opacity="1" x1="232" y1="682" x2="242" y2="675" />
</g>
<g>
	<line stroke-dasharray="4,4" stroke="black" stroke-opacity="1" x1="403" y1="944" x2="245" y2="777" />
	<line stroke="black" stroke-opacity="1" x1="241" y1="773" x2="240" y2="781" />
	<line stroke="black" stroke-opacity="1" x1="241" y1="773" x2="249" y2="773" />
	<line stroke="black" stroke-opacity="1" x1="240" y1="781" x2="249" y2="773" />
</g>
<g>
	<line stroke="black" stroke-opacity="1" x1="729" y1="836" x2="729" y2="334" />
	<line stroke="black" stroke-opacity="1" x1="729" y1="328" x2="723" y2="334" />
	<line stroke="black" stroke-opacity="1" x1="729" y1="328" x2="735" y2="334" />
	<line stroke="black" stroke-opacity="1" x1="723" y1="334" x2="735" y2="334" />
</g>
<g>
	<line stroke-dasharray="4,4" stroke="black" stroke-opacity="1" x1="614" y1="534" x2="335" y2="469" />
	<line stroke="black" stroke-opacity="1" x1="330" y1="468" x2="334" y2="475" />
	<line stroke="black" stroke-opacity="1" x1="330" y1="468" x2="337" y2="463" />
	<line stroke="black" stroke-opacity="1" x1="334" y1="475" x2="337" y2="463" />
</g>
<g>
	<line stroke="black" stroke-opacity="1" x1="259" y1="862" x2="680" y2="862" />
	<line stroke="black" stroke-opacity="1" x1="686" y1="862" x2="680" y2="856" />
	<line stroke="black" stroke-opacity="1" x1="686" y1="862" x2="680" y2="868" />
	<line stroke="black" stroke-opacity="1" x1="680" y1="856" x2="680" y2="868" />
</g>
<g>
	<line stroke="black" stroke-opacity="1" x1="379" y1="243" x2="335" y2="236" />
	<line stroke="black" stroke-opacity="1" x1="330" y1="236" x2="335" y2="242" />
	<line stroke="black" stroke-opacity="1" x1="330" y1="236" x2="336" y2="230" />
	<line stroke="black" stroke-opacity="1" x1="335" y1="242" x2="336" y2="230" />
</g>
<g>
	<rect fill="#808080" stroke="none" stroke-opacity="1" x="695" y="436" width="2" height="48" />
	<rect fill="#808080" stroke="none" stroke-opacity="1" x="605" y="482" width="92" height="2" />
	<rect fill="#ffffc0" stroke="black" stroke-width="1" stroke-opacity="1" x="602" y="433" width="93" height="49" />
	<text font-family="Helvetica" font-size="11" fill="#000000" xml:space="preserve" text-anchor="middle" x="649" y="446">&lt;&lt;@interface&gt;&gt;</text>
	<text font-family="Helvetica" font-size="11" fill="#000000" xml:space="preserve" font-weight="bold" text-anchor="middle" x="649" y="463">GLES3</text>
	<line stroke="black" stroke-opacity="1" x1="602" y1="467" x2="695" y2="467" />
	<line stroke="black" stroke-opacity="1" x1="602" y1="473" x2="695" y2="473" />
</g>
<g>
	<line stroke="black" stroke-opacity="1" x1="67" y1="536" x2="85" y2="536" />
	<ellipse fill="#ffffc0" stroke="black" stroke-width="1" stroke-opacity="1" cx="76" cy="527" rx="9" ry="9" />
	<text font-family="Helvetica" font-size="11" fill="#000000" xml:space="preserve" font-weight="bold" text-anchor="middle" x="76" y="549">GLES1Impl</text>
	<line stroke="black" stroke-opacity="1" x1="42" y1="553" x2="110" y2="553" />
	<line stroke="black" stroke-opacity="1" x1="42" y1="559" x2="110" y2="559" />
</g>
<g>
	<rect fill="#808080" stroke="none" stroke-opacity="1" x="999" y="360" width="2" height="30" />
	<rect fill="#808080" stroke="none" stroke-opacity="1" x="929" y="388" width="72" height="2" />
	<rect fill="#ffffc0" stroke="black" stroke-width="1" stroke-opacity="1" x="926" y="357" width="73" height="31" />
	<text font-family="Helvetica" font-size="11" fill="#000000" xml:space="preserve" font-weight="bold" text-anchor="middle" x="963" y="370">Capabilities</text>
	<line stroke="black" stroke-opacity="1" x1="926" y1="374" x2="999" y2="374" />
	<line stroke="black" stroke-opacity="1" x1="926" y1="380" x2="999" y2="380" />
</g>
<g>
	<line stroke-dasharray="4,4" stroke="black" stroke-opacity="1" x1="649" y1="518" x2="649" y2="491" />
	<line stroke="black" stroke-opacity="1" x1="649" y1="485" x2="643" y2="491" />
	<line stroke="black" stroke-opacity="1" x1="649" y1="485" x2="655" y2="491" />
	<line stroke="black" stroke-opacity="1" x1="643" y1="491" x2="655" y2="491" />
</g>
<g>
	<line stroke="black" stroke-opacity="1" x1="661" y1="432" x2="711" y2="333" />
	<line stroke="black" stroke-opacity="1" x1="714" y1="328" x2="705" y2="330" />
	<line stroke="black" stroke-opacity="1" x1="714" y1="328" x2="716" y2="336" />
	<line stroke="black" stroke-opacity="1" x1="705" y1="330" x2="716" y2="336" />
</g>
<g>
	<rect fill="#808080" stroke="none" stroke-opacity="1" x="466" y="355" width="2" height="48" />
	<rect fill="#808080" stroke="none" stroke-opacity="1" x="388" y="401" width="80" height="2" />
	<rect fill="#ffffc0" stroke="black" stroke-width="1" stroke-opacity="1" x="385" y="352" width="81" height="49" />
	<text font-family="Helvetica" font-size="11" fill="#000000" xml:space="preserve" text-anchor="middle" x="426" y="365">&lt;&lt;interface&gt;&gt;</text>
	<text font-family="Helvetica" font-size="11" fill="#000000" xml:space="preserve" font-weight="bold" text-anchor="middle" x="426" y="382">GL2GL3</text>
	<line stroke="black" stroke-opacity="1" x1="385" y1="386" x2="466" y2="386" />
	<line stroke="black" stroke-opacity="1" x1="385" y1="392" x2="466" y2="392" />
</g>
<g>
	<line stroke="black" stroke-opacity="1" x1="426" y1="351" x2="426" y2="280" />
	<line stroke="black" stroke-opacity="1" x1="426" y1="274" x2="420" y2="280" />
	<line stroke="black" stroke-opacity="1" x1="426" y1="274" x2="432" y2="280" />
	<line stroke="black" stroke-opacity="1" x1="420" y1="280" x2="432" y2="280" />
</g>
<g>
	<rect fill="#808080" stroke="none" stroke-opacity="1" x="622" y="250" width="2" height="48" />
	<rect fill="#808080" stroke="none" stroke-opacity="1" x="532" y="296" width="92" height="2" />
	<rect fill="#ffffc0" stroke="black" stroke-width="1" stroke-opacity="1" x="529" y="247" width="93" height="49" />
	<text font-family="Helvetica" font-size="11" fill="#000000" xml:space="preserve" text-anchor="middle" x="576" y="260">&lt;&lt;@interface&gt;&gt;</text>
	<text font-family="Helvetica" font-size="11" fill="#000000" xml:space="preserve" font-weight="bold" text-anchor="middle" x="576" y="277">GL3ES3</text>
	<line stroke="black" stroke-opacity="1" x1="529" y1="281" x2="622" y2="281" />
	<line stroke="black" stroke-opacity="1" x1="529" y1="287" x2="622" y2="287" />
</g>
<g>
	<line stroke="black" stroke-opacity="1" x1="577" y1="720" x2="577" y2="305" />
	<line stroke="black" stroke-opacity="1" x1="577" y1="299" x2="571" y2="305" />
	<line stroke="black" stroke-opacity="1" x1="577" y1="299" x2="583" y2="305" />
	<line stroke="black" stroke-opacity="1" x1="571" y1="305" x2="583" y2="305" />
</g>
<g>
	<line stroke="black" stroke-opacity="1" x1="680" y1="291" x2="630" y2="282" />
	<line stroke="black" stroke-opacity="1" x1="625" y1="281" x2="629" y2="287" />
	<line stroke="black" stroke-opacity="1" x1="625" y1="281" x2="631" y2="276" />
	<line stroke="black" stroke-opacity="1" x1="629" y1="287" x2="631" y2="276" />
</g>
<g>
	<line stroke="black" stroke-opacity="1" x1="528" y1="264" x2="477" y2="256" />
	<line stroke="black" stroke-opacity="1" x1="472" y1="256" x2="477" y2="262" />
	<line stroke="black" stroke-opacity="1" x1="472" y1="256" x2="478" y2="250" />
	<line stroke="black" stroke-opacity="1" x1="477" y1="262" x2="478" y2="250" />
</g>
<g>
	<text font-family="Helvetica" font-size="11" fill="#000000" xml:space="preserve" x="463" y="72">0..1</text>
</g>
<g>
	<text font-family="Helvetica" font-size="11" fill="#000000" xml:space="preserve" x="594" y="121">1</text>
</g>
<g>
	<text font-family="Helvetica" font-size="11" fill="#000000" xml:space="preserve" x="937" y="347">chosen</text>
</g>
<g>
	<text font-family="Helvetica" font-size="11" fill="#000000" xml:space="preserve" x="913" y="347">1</text>
</g>
<g>
	<text font-family="Helvetica" font-size="11" fill="#000000" xml:space="preserve" x="1002" y="347">requested</text>
</g>
<g>
	<text font-family="Helvetica" font-size="11" fill="#000000" xml:space="preserve" x="972" y="347">1</text>
</g>
<g>
	<text font-family="Helvetica" font-size="11" fill="#000000" xml:space="preserve" x="357" y="57">1</text>
</g>
<g>
	<text font-family="Helvetica" font-size="11" fill="#000000" xml:space="preserve" x="223" y="57">1</text>
</g>
</svg>
