<?xml version="1.0" encoding="UTF-8" standalone="no"?>
<!-- Created with Bouml (http://bouml.free.fr/) -->
<!DOCTYPE svg PUBLIC "-//W3C//DTD SVG 1.1//EN" "http://www.w3.org/Graphics/SVG/1.1/DTD/svg11.dtd">
<svg width="1186" height="1178" version="1.1" xmlns="http://www.w3.org/2000/svg">
<g>
	<rect fill="#ededed" stroke="black" stroke-width="1" stroke-opacity="1" x="2" y="195" width="235" height="971" />
	<text font-family="Helvetica" font-size="12" fill="#000000" xml:space="preserve" text-anchor="middle" x="49" y="213">Fixed Function</text>
	<line stroke="black" stroke-opacity="1" x1="2" y1="218" x2="95" y2="218" />
	<line stroke="black" stroke-opacity="1" x1="95" y1="218" x2="107" y2="206" />
	<line stroke="black" stroke-opacity="1" x1="107" y1="206" x2="107" y2="195" />
</g>
<g>
	<line stroke="black" stroke-dasharray="20,4" stroke-opacity="1" x1="2" y1="379" x2="237" y2="379" />
</g>
<g>
	<line stroke="black" stroke-dasharray="20,4" stroke-opacity="1" x1="2" y1="462" x2="237" y2="462" />
</g>
<g>
	<line stroke="black" stroke-dasharray="20,4" stroke-opacity="1" x1="2" y1="637" x2="237" y2="637" />
</g>
<g>
	<rect fill="#c0ffff" stroke="black" stroke-width="1" stroke-opacity="1" x="236" y="195" width="708" height="971" />
	<text font-family="Helvetica" font-size="12" fill="#000000" xml:space="preserve" text-anchor="middle" x="304" y="213">Programmable Shader</text>
	<line stroke="black" stroke-opacity="1" x1="236" y1="218" x2="372" y2="218" />
	<line stroke="black" stroke-opacity="1" x1="372" y1="218" x2="384" y2="206" />
	<line stroke="black" stroke-opacity="1" x1="384" y1="206" x2="384" y2="195" />
</g>
<g>
	<line stroke="black" stroke-dasharray="20,4" stroke-opacity="1" x1="236" y1="462" x2="944" y2="462" />
</g>
<g>
	<line stroke="black" stroke-dasharray="20,4" stroke-opacity="1" x1="236" y1="637" x2="944" y2="637" />
</g>
<g>
	<line stroke="black" stroke-dasharray="20,4" stroke-opacity="1" x1="236" y1="379" x2="944" y2="379" />
</g>
<g>
	<line stroke="black" stroke-opacity="1" x1="111" y1="225" x2="152" y2="176" />
	<line stroke="black" stroke-opacity="1" x1="156" y1="172" x2="147" y2="172" />
	<line stroke="black" stroke-opacity="1" x1="156" y1="172" x2="156" y2="180" />
	<line stroke="black" stroke-opacity="1" x1="147" y1="172" x2="156" y2="180" />
</g>
<g>
	<line stroke="black" stroke-opacity="1" x1="284" y1="226" x2="227" y2="175" />
	<line stroke="black" stroke-opacity="1" x1="223" y1="172" x2="223" y2="180" />
	<line stroke="black" stroke-opacity="1" x1="223" y1="172" x2="231" y2="171" />
	<line stroke="black" stroke-opacity="1" x1="223" y1="180" x2="231" y2="171" />
</g>
<g>
	<line stroke="black" stroke-opacity="1" x1="86" y1="479" x2="86" y2="292" />
	<line stroke="black" stroke-opacity="1" x1="86" y1="286" x2="80" y2="292" />
	<line stroke="black" stroke-opacity="1" x1="86" y1="286" x2="92" y2="292" />
	<line stroke="black" stroke-opacity="1" x1="80" y1="292" x2="92" y2="292" />
</g>
<g>
	<line stroke="black" stroke-opacity="1" x1="320" y1="479" x2="320" y2="293" />
	<line stroke="black" stroke-opacity="1" x1="320" y1="287" x2="314" y2="293" />
	<line stroke="black" stroke-opacity="1" x1="320" y1="287" x2="326" y2="293" />
	<line stroke="black" stroke-opacity="1" x1="314" y1="293" x2="326" y2="293" />
</g>
<g>
	<line stroke="black" stroke-opacity="1" x1="627" y1="799" x2="487" y2="454" />
	<line stroke="black" stroke-opacity="1" x1="485" y1="449" x2="481" y2="456" />
	<line stroke="black" stroke-opacity="1" x1="485" y1="449" x2="492" y2="452" />
	<line stroke="black" stroke-opacity="1" x1="481" y1="456" x2="492" y2="452" />
</g>
<g>
	<line stroke="black" stroke-opacity="1" x1="262" y1="690" x2="443" y2="453" />
	<line stroke="black" stroke-opacity="1" x1="447" y1="449" x2="438" y2="450" />
	<line stroke="black" stroke-opacity="1" x1="447" y1="449" x2="448" y2="457" />
	<line stroke="black" stroke-opacity="1" x1="438" y1="450" x2="448" y2="457" />
</g>
<g>
	<line stroke="black" stroke-opacity="1" x1="230" y1="690" x2="97" y2="291" />
	<line stroke="black" stroke-opacity="1" x1="96" y1="286" x2="92" y2="293" />
	<line stroke="black" stroke-opacity="1" x1="96" y1="286" x2="103" y2="289" />
	<line stroke="black" stroke-opacity="1" x1="92" y1="293" x2="103" y2="289" />
</g>
<g>
	<line stroke="black" stroke-opacity="1" x1="685" y1="110" x2="498" y2="54" />
</g>
<g>
	<line stroke-dasharray="4,4" stroke="black" stroke-opacity="1" x1="85" y1="573" x2="85" y2="546" />
	<line stroke="black" stroke-opacity="1" x1="85" y1="540" x2="79" y2="546" />
	<line stroke="black" stroke-opacity="1" x1="85" y1="540" x2="91" y2="546" />
	<line stroke="black" stroke-opacity="1" x1="79" y1="546" x2="91" y2="546" />
</g>
<g>
	<line stroke-dasharray="4,4" stroke="black" stroke-opacity="1" x1="491" y1="1047" x2="614" y2="864" />
	<line stroke="black" stroke-opacity="1" x1="618" y1="860" x2="609" y2="861" />
	<line stroke="black" stroke-opacity="1" x1="618" y1="860" x2="619" y2="868" />
	<line stroke="black" stroke-opacity="1" x1="609" y1="861" x2="619" y2="868" />
</g>
<g>
	<line stroke="black" stroke-opacity="1" x1="1071" y1="477" x2="1071" y2="441" />
	<line stroke="black" stroke-opacity="1" x1="1071" y1="435" x2="1065" y2="441" />
	<line stroke="black" stroke-opacity="1" x1="1071" y1="435" x2="1077" y2="441" />
	<line stroke="black" stroke-opacity="1" x1="1065" y1="441" x2="1077" y2="441" />
</g>
<g>
	<line stroke="black" stroke-opacity="1" x1="1038" y1="335" x2="1037" y2="394" />
</g>
<g>
	<line stroke="black" stroke-opacity="1" x1="1072" y1="294" x2="1072" y2="260" />
</g>
<g>
	<line stroke="black" stroke-opacity="1" x1="1020" y1="212" x2="772" y2="136" />
</g>
<g>
	<line stroke="black" stroke-opacity="1" x1="1071" y1="581" x2="1071" y2="518" />
</g>
<g>
	<line stroke="black" stroke-opacity="1" x1="1098" y1="394" x2="1098" y2="335" />
</g>
<g>
	<line stroke="black" stroke-opacity="1" x1="1071" y1="581" x2="1071" y2="518" />
</g>
<g>
	<line stroke="black" stroke-opacity="1" x1="188" y1="111" x2="188" y2="77" />
	<line stroke="black" stroke-opacity="1" x1="189" y1="72" x2="182" y2="77" />
	<line stroke="black" stroke-opacity="1" x1="189" y1="72" x2="194" y2="78" />
	<line stroke="black" stroke-opacity="1" x1="182" y1="77" x2="194" y2="78" />
</g>
<g>
	<line stroke="black" stroke-opacity="1" x1="236" y1="42" x2="421" y2="42" />
</g>
<g>
	<rect fill="#808080" stroke="none" stroke-opacity="1" x="283" y="804" width="3" height="55" />
	<rect fill="#808080" stroke="none" stroke-opacity="1" x="199" y="856" width="87" height="3" />
	<rect fill="#ffffc0" stroke="black" stroke-width="1" stroke-opacity="1" x="195" y="800" width="88" height="56" />
	<text font-family="Helvetica" font-size="12" fill="#000000" xml:space="preserve" text-anchor="middle" x="239" y="815">&lt;&lt;interface&gt;&gt;</text>
	<text font-family="Helvetica" font-size="12" fill="#000000" xml:space="preserve" font-weight="bold" text-anchor="middle" x="239" y="835">GL3bc</text>
	<line stroke="black" stroke-opacity="1" x1="195" y1="840" x2="283" y2="840" />
	<line stroke="black" stroke-opacity="1" x1="195" y1="848" x2="283" y2="848" />
</g>
<g>
	<rect fill="#808080" stroke="none" stroke-opacity="1" x="230" y="116" width="3" height="55" />
	<rect fill="#808080" stroke="none" stroke-opacity="1" x="146" y="168" width="87" height="3" />
	<rect fill="#ffffc0" stroke="black" stroke-width="1" stroke-opacity="1" x="142" y="112" width="88" height="56" />
	<text font-family="Helvetica" font-size="12" fill="#000000" xml:space="preserve" text-anchor="middle" x="186" y="127">&lt;&lt;interface&gt;&gt;</text>
	<text font-family="Helvetica" font-size="12" fill="#000000" xml:space="preserve" font-weight="bold" text-anchor="middle" x="186" y="147">GL</text>
	<line stroke="black" stroke-opacity="1" x1="142" y1="152" x2="230" y2="152" />
	<line stroke="black" stroke-opacity="1" x1="142" y1="160" x2="230" y2="160" />
</g>
<g>
	<rect fill="#808080" stroke="none" stroke-opacity="1" x="852" y="932" width="3" height="55" />
	<rect fill="#808080" stroke="none" stroke-opacity="1" x="768" y="984" width="87" height="3" />
	<rect fill="#ffffc0" stroke="black" stroke-width="1" stroke-opacity="1" x="764" y="928" width="88" height="56" />
	<text font-family="Helvetica" font-size="12" fill="#000000" xml:space="preserve" text-anchor="middle" x="808" y="943">&lt;&lt;interface&gt;&gt;</text>
	<text font-family="Helvetica" font-size="12" fill="#000000" xml:space="preserve" font-weight="bold" text-anchor="middle" x="808" y="963">GL4</text>
	<line stroke="black" stroke-opacity="1" x1="764" y1="968" x2="852" y2="968" />
	<line stroke="black" stroke-opacity="1" x1="764" y1="976" x2="852" y2="976" />
</g>
<g>
	<rect fill="#808080" stroke="none" stroke-opacity="1" x="128" y="230" width="3" height="55" />
	<rect fill="#808080" stroke="none" stroke-opacity="1" x="44" y="282" width="87" height="3" />
	<rect fill="#ffffc0" stroke="black" stroke-width="1" stroke-opacity="1" x="40" y="226" width="88" height="56" />
	<text font-family="Helvetica" font-size="12" fill="#000000" xml:space="preserve" text-anchor="middle" x="84" y="241">&lt;&lt;interface&gt;&gt;</text>
	<text font-family="Helvetica" font-size="12" fill="#000000" xml:space="preserve" font-weight="bold" text-anchor="middle" x="84" y="261">GL2ES1</text>
	<line stroke="black" stroke-opacity="1" x1="40" y1="266" x2="128" y2="266" />
	<line stroke="black" stroke-opacity="1" x1="40" y1="274" x2="128" y2="274" />
</g>
<g>
	<rect fill="#808080" stroke="none" stroke-opacity="1" x="283" y="932" width="3" height="55" />
	<rect fill="#808080" stroke="none" stroke-opacity="1" x="199" y="984" width="87" height="3" />
	<rect fill="#ffffc0" stroke="black" stroke-width="1" stroke-opacity="1" x="195" y="928" width="88" height="56" />
	<text font-family="Helvetica" font-size="12" fill="#000000" xml:space="preserve" text-anchor="middle" x="239" y="943">&lt;&lt;interface&gt;&gt;</text>
	<text font-family="Helvetica" font-size="12" fill="#000000" xml:space="preserve" font-weight="bold" text-anchor="middle" x="239" y="963">GL4bc</text>
	<line stroke="black" stroke-opacity="1" x1="195" y1="968" x2="283" y2="968" />
	<line stroke="black" stroke-opacity="1" x1="195" y1="976" x2="283" y2="976" />
</g>
<g>
	<rect fill="#808080" stroke="none" stroke-opacity="1" x="128" y="484" width="3" height="55" />
	<rect fill="#808080" stroke="none" stroke-opacity="1" x="44" y="536" width="87" height="3" />
	<rect fill="#ffffc0" stroke="black" stroke-width="1" stroke-opacity="1" x="40" y="480" width="88" height="56" />
	<text font-family="Helvetica" font-size="12" fill="#000000" xml:space="preserve" text-anchor="middle" x="84" y="495">&lt;&lt;interface&gt;&gt;</text>
	<text font-family="Helvetica" font-size="12" fill="#000000" xml:space="preserve" font-weight="bold" text-anchor="middle" x="84" y="515">GLES1</text>
	<line stroke="black" stroke-opacity="1" x1="40" y1="520" x2="128" y2="520" />
	<line stroke="black" stroke-opacity="1" x1="40" y1="528" x2="128" y2="528" />
</g>
<g>
	<rect fill="#808080" stroke="none" stroke-opacity="1" x="283" y="695" width="3" height="55" />
	<rect fill="#808080" stroke="none" stroke-opacity="1" x="199" y="747" width="87" height="3" />
	<rect fill="#ffffc0" stroke="black" stroke-width="1" stroke-opacity="1" x="195" y="691" width="88" height="56" />
	<text font-family="Helvetica" font-size="12" fill="#000000" xml:space="preserve" text-anchor="middle" x="239" y="706">&lt;&lt;interface&gt;&gt;</text>
	<text font-family="Helvetica" font-size="12" fill="#000000" xml:space="preserve" font-weight="bold" text-anchor="middle" x="239" y="726">GL2</text>
	<line stroke="black" stroke-opacity="1" x1="195" y1="731" x2="283" y2="731" />
	<line stroke="black" stroke-opacity="1" x1="195" y1="739" x2="283" y2="739" />
</g>
<g>
	<rect fill="#808080" stroke="none" stroke-opacity="1" x="362" y="231" width="3" height="55" />
	<rect fill="#808080" stroke="none" stroke-opacity="1" x="278" y="283" width="87" height="3" />
	<rect fill="#ffffc0" stroke="black" stroke-width="1" stroke-opacity="1" x="274" y="227" width="88" height="56" />
	<text font-family="Helvetica" font-size="12" fill="#000000" xml:space="preserve" text-anchor="middle" x="318" y="242">&lt;&lt;interface&gt;&gt;</text>
	<text font-family="Helvetica" font-size="12" fill="#000000" xml:space="preserve" font-weight="bold" text-anchor="middle" x="318" y="262">GL2ES2</text>
	<line stroke="black" stroke-opacity="1" x1="274" y1="267" x2="362" y2="267" />
	<line stroke="black" stroke-opacity="1" x1="274" y1="275" x2="362" y2="275" />
</g>
<g>
	<rect fill="#808080" stroke="none" stroke-opacity="1" x="683" y="804" width="3" height="55" />
	<rect fill="#808080" stroke="none" stroke-opacity="1" x="599" y="856" width="87" height="3" />
	<rect fill="#ffffc0" stroke="black" stroke-width="1" stroke-opacity="1" x="595" y="800" width="88" height="56" />
	<text font-family="Helvetica" font-size="12" fill="#000000" xml:space="preserve" text-anchor="middle" x="639" y="815">&lt;&lt;interface&gt;&gt;</text>
	<text font-family="Helvetica" font-size="12" fill="#000000" xml:space="preserve" font-weight="bold" text-anchor="middle" x="639" y="835">GL3</text>
	<line stroke="black" stroke-opacity="1" x1="595" y1="840" x2="683" y2="840" />
	<line stroke="black" stroke-opacity="1" x1="595" y1="848" x2="683" y2="848" />
</g>
<g>
	<rect fill="#808080" stroke="none" stroke-opacity="1" x="362" y="484" width="3" height="55" />
	<rect fill="#808080" stroke="none" stroke-opacity="1" x="278" y="536" width="87" height="3" />
	<rect fill="#ffffc0" stroke="black" stroke-width="1" stroke-opacity="1" x="274" y="480" width="88" height="56" />
	<text font-family="Helvetica" font-size="12" fill="#000000" xml:space="preserve" text-anchor="middle" x="318" y="495">&lt;&lt;interface&gt;&gt;</text>
	<text font-family="Helvetica" font-size="12" fill="#000000" xml:space="preserve" font-weight="bold" text-anchor="middle" x="318" y="515">GLES2</text>
	<line stroke="black" stroke-opacity="1" x1="274" y1="520" x2="362" y2="520" />
	<line stroke="black" stroke-opacity="1" x1="274" y1="528" x2="362" y2="528" />
</g>
<g>
	<rect fill="#808080" stroke="none" stroke-opacity="1" x="859" y="309" width="3" height="55" />
	<rect fill="#808080" stroke="none" stroke-opacity="1" x="761" y="361" width="101" height="3" />
	<rect fill="#ffffc0" stroke="black" stroke-width="1" stroke-opacity="1" x="757" y="305" width="102" height="56" />
	<text font-family="Helvetica" font-size="12" fill="#000000" xml:space="preserve" text-anchor="middle" x="808" y="320">&lt;&lt;@interface&gt;&gt;</text>
	<text font-family="Helvetica" font-size="12" fill="#000000" xml:space="preserve" font-weight="bold" text-anchor="middle" x="808" y="340">GL4ES3</text>
	<line stroke="black" stroke-opacity="1" x1="757" y1="345" x2="859" y2="345" />
	<line stroke="black" stroke-opacity="1" x1="757" y1="353" x2="859" y2="353" />
</g>
<g>
	<rect fill="#808080" stroke="none" stroke-opacity="1" x="494" y="27" width="3" height="35" />
	<rect fill="#808080" stroke="none" stroke-opacity="1" x="426" y="59" width="71" height="3" />
	<rect fill="#ffffc0" stroke="black" stroke-width="1" stroke-opacity="1" x="422" y="23" width="72" height="36" />
	<text font-family="Helvetica" font-size="12" fill="#000000" xml:space="preserve" font-weight="bold" font-style="italic" text-anchor="middle" x="458" y="38">GLContext</text>
	<line stroke="black" stroke-opacity="1" x1="422" y1="43" x2="494" y2="43" />
	<line stroke="black" stroke-opacity="1" x1="422" y1="51" x2="494" y2="51" />
</g>
<g>
	<rect fill="#808080" stroke="none" stroke-opacity="1" x="768" y="109" width="3" height="35" />
	<rect fill="#808080" stroke="none" stroke-opacity="1" x="690" y="141" width="81" height="3" />
	<rect fill="#ffffc0" stroke="black" stroke-width="1" stroke-opacity="1" x="686" y="105" width="82" height="36" />
	<text font-family="Helvetica" font-size="12" fill="#000000" xml:space="preserve" font-weight="bold" font-style="italic" text-anchor="middle" x="727" y="120">GLDrawable</text>
	<line stroke="black" stroke-opacity="1" x1="686" y1="125" x2="768" y2="125" />
	<line stroke="black" stroke-opacity="1" x1="686" y1="133" x2="768" y2="133" />
</g>
<g>
	<rect fill="none" stroke="black" stroke-width="1" stroke-opacity="1" x="423" y="250" width="100" height="56" />
	<text font-family="Helvetica" font-size="12" fill="#000000" xml:space="preserve" text-anchor="middle" x="473" y="265">&lt;&lt;metaclass&gt;&gt;</text>
	<text font-family="Helvetica" font-size="12" fill="#000000" xml:space="preserve" font-weight="bold" font-style="italic" text-anchor="middle" x="473" y="285">GL2ES3</text>
	<line stroke="black" stroke-opacity="1" x1="423" y1="290" x2="523" y2="290" />
	<line stroke="black" stroke-opacity="1" x1="423" y1="298" x2="523" y2="298" />
</g>
<g>
	<line stroke="black" stroke-opacity="1" x1="464" y1="1068" x2="484" y2="1068" />
	<ellipse fill="#ffffc0" stroke="black" stroke-width="1" stroke-opacity="1" cx="474" cy="1058" rx="10" ry="10" />
	<text font-family="Helvetica" font-size="12" fill="#000000" xml:space="preserve" font-weight="bold" text-anchor="middle" x="474" y="1083">GL4bcImpl</text>
	<line stroke="black" stroke-opacity="1" x1="436" y1="1088" x2="512" y2="1088" />
	<line stroke="black" stroke-opacity="1" x1="436" y1="1096" x2="512" y2="1096" />
</g>
<g>
	<line stroke="black" stroke-opacity="1" x1="711" y1="595" x2="731" y2="595" />
	<ellipse fill="#ffffc0" stroke="black" stroke-width="1" stroke-opacity="1" cx="721" cy="585" rx="10" ry="10" />
	<text font-family="Helvetica" font-size="12" fill="#000000" xml:space="preserve" font-weight="bold" text-anchor="middle" x="721" y="610">GLES3Impl</text>
	<line stroke="black" stroke-opacity="1" x1="682" y1="615" x2="760" y2="615" />
	<line stroke="black" stroke-opacity="1" x1="682" y1="623" x2="760" y2="623" />
</g>
<g>
	<rect fill="#808080" stroke="none" stroke-opacity="1" x="1121" y="204" width="3" height="55" />
	<rect fill="#808080" stroke="none" stroke-opacity="1" x="1025" y="256" width="99" height="3" />
	<rect fill="#ffffc0" stroke="black" stroke-width="1" stroke-opacity="1" x="1021" y="200" width="100" height="56" />
	<text font-family="Helvetica" font-size="12" fill="#000000" xml:space="preserve" text-anchor="middle" x="1071" y="215">&lt;&lt;interface&gt;&gt;</text>
	<text font-family="Helvetica" font-size="12" fill="#000000" xml:space="preserve" font-weight="bold" text-anchor="middle" x="1071" y="235">NativeWindow</text>
	<line stroke="black" stroke-opacity="1" x1="1021" y1="240" x2="1121" y2="240" />
	<line stroke="black" stroke-opacity="1" x1="1021" y1="248" x2="1121" y2="248" />
</g>
<g>
	<rect fill="#808080" stroke="none" stroke-opacity="1" x="1170" y="299" width="3" height="35" />
	<rect fill="#808080" stroke="none" stroke-opacity="1" x="976" y="331" width="197" height="3" />
	<rect fill="#ffffc0" stroke="black" stroke-width="1" stroke-opacity="1" x="972" y="295" width="198" height="36" />
	<text font-family="Helvetica" font-size="12" fill="#000000" xml:space="preserve" font-weight="bold" font-style="italic" text-anchor="middle" x="1071" y="310">AbstractGraphicsConfiguration</text>
	<line stroke="black" stroke-opacity="1" x1="972" y1="315" x2="1170" y2="315" />
	<line stroke="black" stroke-opacity="1" x1="972" y1="323" x2="1170" y2="323" />
</g>
<g>
	<rect fill="#808080" stroke="none" stroke-opacity="1" x="1119" y="482" width="3" height="35" />
	<rect fill="#808080" stroke="none" stroke-opacity="1" x="1023" y="514" width="99" height="3" />
	<rect fill="#ffffc0" stroke="black" stroke-width="1" stroke-opacity="1" x="1019" y="478" width="100" height="36" />
	<text font-family="Helvetica" font-size="12" fill="#000000" xml:space="preserve" font-weight="bold" text-anchor="middle" x="1069" y="493">GLCapabilities</text>
	<line stroke="black" stroke-opacity="1" x1="1019" y1="498" x2="1119" y2="498" />
	<line stroke="black" stroke-opacity="1" x1="1019" y1="506" x2="1119" y2="506" />
</g>
<g>
	<rect fill="#808080" stroke="none" stroke-opacity="1" x="1104" y="586" width="3" height="35" />
	<rect fill="#808080" stroke="none" stroke-opacity="1" x="1040" y="618" width="67" height="3" />
	<rect fill="#ffffc0" stroke="black" stroke-width="1" stroke-opacity="1" x="1036" y="582" width="68" height="36" />
	<text font-family="Helvetica" font-size="12" fill="#000000" xml:space="preserve" font-weight="bold" text-anchor="middle" x="1070" y="597">GLProfile</text>
	<line stroke="black" stroke-opacity="1" x1="1036" y1="602" x2="1104" y2="602" />
	<line stroke="black" stroke-opacity="1" x1="1036" y1="610" x2="1104" y2="610" />
</g>
<g>
	<rect fill="#808080" stroke="none" stroke-opacity="1" x="232" y="16" width="3" height="55" />
	<rect fill="#808080" stroke="none" stroke-opacity="1" x="148" y="68" width="87" height="3" />
	<rect fill="#ffffc0" stroke="black" stroke-width="1" stroke-opacity="1" x="144" y="12" width="88" height="56" />
	<text font-family="Helvetica" font-size="12" fill="#000000" xml:space="preserve" text-anchor="middle" x="188" y="27">&lt;&lt;interface&gt;&gt;</text>
	<text font-family="Helvetica" font-size="12" fill="#000000" xml:space="preserve" font-weight="bold" text-anchor="middle" x="188" y="47">GLBase</text>
	<line stroke="black" stroke-opacity="1" x1="144" y1="52" x2="232" y2="52" />
	<line stroke="black" stroke-opacity="1" x1="144" y1="60" x2="232" y2="60" />
</g>
	<text font-family="Helvetica" font-size="12" fill="#000000" xml:space="preserve" x="820" y="680">Desktop final public</text>
	<text font-family="Helvetica" font-size="12" fill="#000000" xml:space="preserve" x="820" y="696">OpenGL Interfaces</text>
	<text font-family="Helvetica" font-size="12" fill="#000000" xml:space="preserve" x="820" y="538">Mobile final public</text>
	<text font-family="Helvetica" font-size="12" fill="#000000" xml:space="preserve" x="820" y="554">OpenGL Interfaces</text>
	<text font-family="Helvetica" font-size="12" fill="#000000" xml:space="preserve" x="17" y="1088">Private implementation (detail)</text>
	<text font-family="Helvetica" font-size="12" fill="#000000" xml:space="preserve" x="819" y="258">Desktop/Mobile</text>
	<text font-family="Helvetica" font-size="12" fill="#000000" xml:space="preserve" x="819" y="274">Common Interfaces</text>
	<text font-family="Helvetica" font-size="12" fill="#000000" xml:space="preserve" x="781" y="32">Lifecycle: From the lower right to</text>
	<text font-family="Helvetica" font-size="12" fill="#000000" xml:space="preserve" x="781" y="48">the top, left step where the</text>
	<text font-family="Helvetica" font-size="12" fill="#000000" xml:space="preserve" x="781" y="64">GLContext is created with a</text>
	<text font-family="Helvetica" font-size="12" fill="#000000" xml:space="preserve" x="781" y="80">suitable GL implementation</text>
	<text font-family="Helvetica" font-size="12" fill="#000000" xml:space="preserve" x="781" y="96">matching the GLProfile.</text>
	<text font-family="Helvetica" font-size="12" fill="#000000" xml:space="preserve" x="271" y="151">Common GL Stuff</text>
	<text font-family="Helvetica" font-size="12" fill="#000000" xml:space="preserve" x="820" y="418">Common Desktop</text>
	<text font-family="Helvetica" font-size="12" fill="#000000" xml:space="preserve" x="820" y="434">Profile</text>
<g>
	<line stroke-dasharray="4,4" stroke="black" stroke-opacity="1" x1="446" y1="1047" x2="273" y2="864" />
	<line stroke="black" stroke-opacity="1" x1="269" y1="860" x2="268" y2="868" />
	<line stroke="black" stroke-opacity="1" x1="269" y1="860" x2="277" y2="860" />
	<line stroke="black" stroke-opacity="1" x1="268" y1="868" x2="277" y2="860" />
</g>
<g>
	<line stroke-dasharray="4,4" stroke="black" stroke-opacity="1" x1="435" y1="1056" x2="292" y2="983" />
	<line stroke="black" stroke-opacity="1" x1="287" y1="981" x2="289" y2="989" />
	<line stroke="black" stroke-opacity="1" x1="287" y1="981" x2="295" y2="978" />
	<line stroke="black" stroke-opacity="1" x1="289" y1="989" x2="295" y2="978" />
</g>
<g>
	<line stroke-dasharray="4,4" stroke="black" stroke-opacity="1" x1="455" y1="1047" x2="263" y2="756" />
	<line stroke="black" stroke-opacity="1" x1="260" y1="751" x2="258" y2="759" />
	<line stroke="black" stroke-opacity="1" x1="260" y1="751" x2="268" y2="752" />
	<line stroke="black" stroke-opacity="1" x1="258" y1="759" x2="268" y2="752" />
</g>
<g>
	<line stroke-dasharray="4,4" stroke="black" stroke-opacity="1" x1="512" y1="1061" x2="757" y2="974" />
	<line stroke="black" stroke-opacity="1" x1="763" y1="972" x2="755" y2="968" />
	<line stroke="black" stroke-opacity="1" x1="763" y1="972" x2="759" y2="979" />
	<line stroke="black" stroke-opacity="1" x1="755" y1="968" x2="759" y2="979" />
</g>
<g>
	<line stroke="black" stroke-opacity="1" x1="241" y1="799" x2="241" y2="757" />
	<line stroke="black" stroke-opacity="1" x1="241" y1="751" x2="235" y2="757" />
	<line stroke="black" stroke-opacity="1" x1="241" y1="751" x2="247" y2="757" />
	<line stroke="black" stroke-opacity="1" x1="235" y1="757" x2="247" y2="757" />
</g>
<g>
	<line stroke="black" stroke-opacity="1" x1="287" y1="830" x2="588" y2="830" />
	<line stroke="black" stroke-opacity="1" x1="594" y1="830" x2="588" y2="824" />
	<line stroke="black" stroke-opacity="1" x1="594" y1="830" x2="588" y2="836" />
	<line stroke="black" stroke-opacity="1" x1="588" y1="824" x2="588" y2="836" />
</g>
<g>
	<line stroke="black" stroke-opacity="1" x1="768" y1="927" x2="685" y2="863" />
	<line stroke="black" stroke-opacity="1" x1="681" y1="860" x2="682" y2="868" />
	<line stroke="black" stroke-opacity="1" x1="681" y1="860" x2="689" y2="858" />
	<line stroke="black" stroke-opacity="1" x1="682" y1="868" x2="689" y2="858" />
</g>
<g>
	<line stroke="black" stroke-opacity="1" x1="241" y1="927" x2="241" y2="866" />
	<line stroke="black" stroke-opacity="1" x1="241" y1="860" x2="235" y2="866" />
	<line stroke="black" stroke-opacity="1" x1="241" y1="860" x2="247" y2="866" />
	<line stroke="black" stroke-opacity="1" x1="235" y1="866" x2="247" y2="866" />
</g>
<g>
	<line stroke="black" stroke-opacity="1" x1="287" y1="958" x2="757" y2="958" />
	<line stroke="black" stroke-opacity="1" x1="763" y1="958" x2="757" y2="952" />
	<line stroke="black" stroke-opacity="1" x1="763" y1="958" x2="757" y2="964" />
	<line stroke="black" stroke-opacity="1" x1="757" y1="952" x2="757" y2="964" />
</g>
<g>
	<line stroke="black" stroke-opacity="1" x1="422" y1="269" x2="371" y2="262" />
	<line stroke="black" stroke-opacity="1" x1="366" y1="262" x2="371" y2="268" />
	<line stroke="black" stroke-opacity="1" x1="366" y1="262" x2="372" y2="256" />
	<line stroke="black" stroke-opacity="1" x1="371" y1="268" x2="372" y2="256" />
</g>
<g>
	<line stroke="black" stroke-opacity="1" x1="810" y1="927" x2="810" y2="371" />
	<line stroke="black" stroke-opacity="1" x1="810" y1="365" x2="804" y2="371" />
	<line stroke="black" stroke-opacity="1" x1="810" y1="365" x2="816" y2="371" />
	<line stroke="black" stroke-opacity="1" x1="804" y1="371" x2="816" y2="371" />
</g>
<g>
	<line stroke-dasharray="4,4" stroke="black" stroke-opacity="1" x1="681" y1="593" x2="371" y2="521" />
	<line stroke="black" stroke-opacity="1" x1="366" y1="520" x2="370" y2="527" />
	<line stroke="black" stroke-opacity="1" x1="366" y1="520" x2="373" y2="515" />
	<line stroke="black" stroke-opacity="1" x1="370" y1="527" x2="373" y2="515" />
</g>
<g>
	<rect fill="#808080" stroke="none" stroke-opacity="1" x="771" y="484" width="3" height="55" />
	<rect fill="#808080" stroke="none" stroke-opacity="1" x="673" y="536" width="101" height="3" />
	<rect fill="#ffffc0" stroke="black" stroke-width="1" stroke-opacity="1" x="669" y="480" width="102" height="56" />
	<text font-family="Helvetica" font-size="12" fill="#000000" xml:space="preserve" text-anchor="middle" x="720" y="495">&lt;&lt;@interface&gt;&gt;</text>
	<text font-family="Helvetica" font-size="12" fill="#000000" xml:space="preserve" font-weight="bold" text-anchor="middle" x="720" y="515">GLES3</text>
	<line stroke="black" stroke-opacity="1" x1="669" y1="520" x2="771" y2="520" />
	<line stroke="black" stroke-opacity="1" x1="669" y1="528" x2="771" y2="528" />
</g>
<g>
	<rect fill="#808080" stroke="none" stroke-opacity="1" x="516" y="393" width="3" height="55" />
	<rect fill="#808080" stroke="none" stroke-opacity="1" x="432" y="445" width="87" height="3" />
	<rect fill="#ffffc0" stroke="black" stroke-width="1" stroke-opacity="1" x="428" y="389" width="88" height="56" />
	<text font-family="Helvetica" font-size="12" fill="#000000" xml:space="preserve" text-anchor="middle" x="472" y="404">&lt;&lt;interface&gt;&gt;</text>
	<text font-family="Helvetica" font-size="12" fill="#000000" xml:space="preserve" font-weight="bold" text-anchor="middle" x="472" y="424">GL2GL3</text>
	<line stroke="black" stroke-opacity="1" x1="428" y1="429" x2="516" y2="429" />
	<line stroke="black" stroke-opacity="1" x1="428" y1="437" x2="516" y2="437" />
</g>
<g>
	<line stroke="black" stroke-opacity="1" x1="75" y1="594" x2="95" y2="594" />
	<ellipse fill="#ffffc0" stroke="black" stroke-width="1" stroke-opacity="1" cx="85" cy="584" rx="10" ry="10" />
	<text font-family="Helvetica" font-size="12" fill="#000000" xml:space="preserve" font-weight="bold" text-anchor="middle" x="85" y="609">GLES1Impl</text>
	<line stroke="black" stroke-opacity="1" x1="46" y1="614" x2="124" y2="614" />
	<line stroke="black" stroke-opacity="1" x1="46" y1="622" x2="124" y2="622" />
</g>
<g>
	<rect fill="#808080" stroke="none" stroke-opacity="1" x="1110" y="399" width="3" height="35" />
	<rect fill="#808080" stroke="none" stroke-opacity="1" x="1032" y="431" width="81" height="3" />
	<rect fill="#ffffc0" stroke="black" stroke-width="1" stroke-opacity="1" x="1028" y="395" width="82" height="36" />
	<text font-family="Helvetica" font-size="12" fill="#000000" xml:space="preserve" font-weight="bold" text-anchor="middle" x="1069" y="410">Capabilities</text>
	<line stroke="black" stroke-opacity="1" x1="1028" y1="415" x2="1110" y2="415" />
	<line stroke="black" stroke-opacity="1" x1="1028" y1="423" x2="1110" y2="423" />
</g>
<g>
	<line stroke="black" stroke-opacity="1" x1="735" y1="479" x2="790" y2="370" />
	<line stroke="black" stroke-opacity="1" x1="793" y1="365" x2="784" y2="367" />
	<line stroke="black" stroke-opacity="1" x1="793" y1="365" x2="795" y2="373" />
	<line stroke="black" stroke-opacity="1" x1="784" y1="367" x2="795" y2="373" />
</g>
<g>
	<line stroke-dasharray="4,4" stroke="black" stroke-opacity="1" x1="721" y1="574" x2="721" y2="546" />
	<line stroke="black" stroke-opacity="1" x1="721" y1="540" x2="715" y2="546" />
	<line stroke="black" stroke-opacity="1" x1="721" y1="540" x2="727" y2="546" />
	<line stroke="black" stroke-opacity="1" x1="715" y1="546" x2="727" y2="546" />
</g>
<g>
	<line stroke="black" stroke-opacity="1" x1="473" y1="388" x2="473" y2="312" />
	<line stroke="black" stroke-opacity="1" x1="473" y1="306" x2="467" y2="312" />
	<line stroke="black" stroke-opacity="1" x1="473" y1="306" x2="479" y2="312" />
	<line stroke="black" stroke-opacity="1" x1="467" y1="312" x2="479" y2="312" />
</g>
<g>
	<rect fill="#808080" stroke="none" stroke-opacity="1" x="690" y="277" width="3" height="55" />
	<rect fill="#808080" stroke="none" stroke-opacity="1" x="592" y="329" width="101" height="3" />
	<rect fill="#ffffc0" stroke="black" stroke-width="1" stroke-opacity="1" x="588" y="273" width="102" height="56" />
	<text font-family="Helvetica" font-size="12" fill="#000000" xml:space="preserve" text-anchor="middle" x="639" y="288">&lt;&lt;@interface&gt;&gt;</text>
	<text font-family="Helvetica" font-size="12" fill="#000000" xml:space="preserve" font-weight="bold" text-anchor="middle" x="639" y="308">GL3ES3</text>
	<line stroke="black" stroke-opacity="1" x1="588" y1="313" x2="690" y2="313" />
	<line stroke="black" stroke-opacity="1" x1="588" y1="321" x2="690" y2="321" />
</g>
<g>
	<line stroke="black" stroke-opacity="1" x1="756" y1="325" x2="699" y2="314" />
	<line stroke="black" stroke-opacity="1" x1="694" y1="313" x2="698" y2="320" />
	<line stroke="black" stroke-opacity="1" x1="694" y1="313" x2="701" y2="308" />
	<line stroke="black" stroke-opacity="1" x1="698" y1="320" x2="701" y2="308" />
</g>
<g>
	<line stroke="black" stroke-opacity="1" x1="587" y1="293" x2="528" y2="284" />
	<line stroke="black" stroke-opacity="1" x1="523" y1="284" x2="528" y2="290" />
	<line stroke="black" stroke-opacity="1" x1="523" y1="284" x2="529" y2="278" />
	<line stroke="black" stroke-opacity="1" x1="528" y1="290" x2="529" y2="278" />
</g>
<g>
	<line stroke="black" stroke-opacity="1" x1="641" y1="799" x2="641" y2="339" />
	<line stroke="black" stroke-opacity="1" x1="641" y1="333" x2="635" y2="339" />
	<line stroke="black" stroke-opacity="1" x1="641" y1="333" x2="647" y2="339" />
	<line stroke="black" stroke-opacity="1" x1="635" y1="339" x2="647" y2="339" />
</g>
<g>
	<text font-family="Helvetica" font-size="12" fill="#000000" xml:space="preserve" x="660" y="135">1</text>
</g>
<g>
	<text font-family="Helvetica" font-size="12" fill="#000000" xml:space="preserve" x="1043" y="386">chosen</text>
</g>
<g>
	<text font-family="Helvetica" font-size="12" fill="#000000" xml:space="preserve" x="514" y="80">0..1</text>
</g>
<g>
	<text font-family="Helvetica" font-size="12" fill="#000000" xml:space="preserve" x="1015" y="386">1</text>
</g>
<g>
	<text font-family="Helvetica" font-size="12" fill="#000000" xml:space="preserve" x="1115" y="386">requested</text>
</g>
<g>
	<text font-family="Helvetica" font-size="12" fill="#000000" xml:space="preserve" x="1080" y="386">1</text>
</g>
<g>
	<text font-family="Helvetica" font-size="12" fill="#000000" xml:space="preserve" x="397" y="64">1</text>
</g>
<g>
	<text font-family="Helvetica" font-size="12" fill="#000000" xml:space="preserve" x="248" y="64">1</text>
</g>
</svg>
