<?xml version="1.0" encoding="UTF-8" standalone="no"?>
<!-- Created with Bouml (http://bouml.free.fr/) -->
<!DOCTYPE svg PUBLIC "-//W3C//DTD SVG 1.1//EN" "http://www.w3.org/Graphics/SVG/1.1/DTD/svg11.dtd">
<svg width="1003" height="814" version="1.1" xmlns="http://www.w3.org/2000/svg">
<g>
	<rect fill="#ededed" stroke="black" stroke-width="1" stroke-opacity="1" x="5" y="193" width="234" height="609" />
	<text font-family="Helvetica" font-size="10" fill="#000000" xml:space="preserve" text-anchor="middle" x="52" y="210">Fixed Function</text>
	<line stroke="black" stroke-opacity="1" x1="5" y1="217" x2="98" y2="217" />
	<line stroke="black" stroke-opacity="1" x1="98" y1="217" x2="110" y2="205" />
	<line stroke="black" stroke-opacity="1" x1="110" y1="205" x2="110" y2="193" />
</g>
<g>
	<line stroke="black" stroke-dasharray="20,4" stroke-opacity="1" x1="5" y1="392" x2="239" y2="392" />
</g>
<g>
	<line stroke="black" stroke-dasharray="20,4" stroke-opacity="1" x1="5" y1="569" x2="239" y2="569" />
</g>
<g>
	<line stroke="black" stroke-dasharray="20,4" stroke-opacity="1" x1="5" y1="304" x2="239" y2="304" />
</g>
<g>
	<rect fill="#c0ffff" stroke="black" stroke-width="1" stroke-opacity="1" x="238" y="193" width="447" height="609" />
	<text font-family="Helvetica" font-size="10" fill="#000000" xml:space="preserve" text-anchor="middle" x="306" y="210">Programmable Shader</text>
	<line stroke="black" stroke-opacity="1" x1="238" y1="217" x2="374" y2="217" />
	<line stroke="black" stroke-opacity="1" x1="374" y1="217" x2="386" y2="205" />
	<line stroke="black" stroke-opacity="1" x1="386" y1="205" x2="386" y2="193" />
</g>
<g>
	<line stroke="black" stroke-dasharray="20,4" stroke-opacity="1" x1="238" y1="392" x2="685" y2="392" />
</g>
<g>
	<line stroke="black" stroke-dasharray="20,4" stroke-opacity="1" x1="238" y1="569" x2="685" y2="569" />
</g>
<g>
	<line stroke="black" stroke-dasharray="20,4" stroke-opacity="1" x1="238" y1="304" x2="685" y2="304" />
</g>
<g>
	<line stroke="black" stroke-opacity="1" x1="115" y1="225" x2="154" y2="178" />
	<line stroke="black" stroke-opacity="1" x1="158" y1="174" x2="149" y2="174" />
	<line stroke="black" stroke-opacity="1" x1="158" y1="174" x2="158" y2="182" />
	<line stroke="black" stroke-opacity="1" x1="149" y1="174" x2="158" y2="182" />
</g>
<g>
	<line stroke="black" stroke-opacity="1" x1="285" y1="225" x2="231" y2="177" />
	<line stroke="black" stroke-opacity="1" x1="227" y1="174" x2="227" y2="182" />
	<line stroke="black" stroke-opacity="1" x1="227" y1="174" x2="235" y2="173" />
	<line stroke="black" stroke-opacity="1" x1="227" y1="182" x2="235" y2="173" />
</g>
<g>
	<line stroke="black" stroke-opacity="1" x1="88" y1="400" x2="88" y2="294" />
	<line stroke="black" stroke-opacity="1" x1="88" y1="288" x2="82" y2="294" />
	<line stroke="black" stroke-opacity="1" x1="88" y1="288" x2="94" y2="294" />
	<line stroke="black" stroke-opacity="1" x1="82" y1="294" x2="94" y2="294" />
</g>
<g>
	<line stroke="black" stroke-opacity="1" x1="323" y1="400" x2="323" y2="294" />
	<line stroke="black" stroke-opacity="1" x1="323" y1="288" x2="317" y2="294" />
	<line stroke="black" stroke-opacity="1" x1="323" y1="288" x2="329" y2="294" />
	<line stroke="black" stroke-opacity="1" x1="317" y1="294" x2="329" y2="294" />
</g>
<g>
	<line stroke="black" stroke-opacity="1" x1="476" y1="624" x2="476" y2="382" />
	<line stroke="black" stroke-opacity="1" x1="476" y1="376" x2="470" y2="382" />
	<line stroke="black" stroke-opacity="1" x1="476" y1="376" x2="482" y2="382" />
	<line stroke="black" stroke-opacity="1" x1="470" y1="382" x2="482" y2="382" />
</g>
<g>
	<line stroke="black" stroke-opacity="1" x1="270" y1="624" x2="447" y2="380" />
	<line stroke="black" stroke-opacity="1" x1="451" y1="376" x2="442" y2="377" />
	<line stroke="black" stroke-opacity="1" x1="451" y1="376" x2="452" y2="384" />
	<line stroke="black" stroke-opacity="1" x1="442" y1="377" x2="452" y2="384" />
</g>
<g>
	<line stroke="black" stroke-opacity="1" x1="429" y1="317" x2="375" y2="286" />
	<line stroke="black" stroke-opacity="1" x1="370" y1="284" x2="372" y2="292" />
	<line stroke="black" stroke-opacity="1" x1="370" y1="284" x2="378" y2="281" />
	<line stroke="black" stroke-opacity="1" x1="372" y1="292" x2="378" y2="281" />
</g>
<g>
	<line stroke="black" stroke-opacity="1" x1="236" y1="624" x2="103" y2="293" />
	<line stroke="black" stroke-opacity="1" x1="101" y1="288" x2="97" y2="295" />
	<line stroke="black" stroke-opacity="1" x1="101" y1="288" x2="108" y2="291" />
	<line stroke="black" stroke-opacity="1" x1="97" y1="295" x2="108" y2="291" />
</g>
<g>
	<line stroke="black" stroke-opacity="1" x1="679" y1="115" x2="601" y2="62" />
</g>
<g>
	<line stroke-dasharray="4,4" stroke="black" stroke-opacity="1" x1="88" y1="499" x2="88" y2="469" />
	<line stroke="black" stroke-opacity="1" x1="88" y1="463" x2="82" y2="469" />
	<line stroke="black" stroke-opacity="1" x1="88" y1="463" x2="94" y2="469" />
	<line stroke="black" stroke-opacity="1" x1="82" y1="469" x2="94" y2="469" />
</g>
<g>
	<line stroke-dasharray="4,4" stroke="black" stroke-opacity="1" x1="323" y1="499" x2="323" y2="469" />
	<line stroke="black" stroke-opacity="1" x1="323" y1="463" x2="317" y2="469" />
	<line stroke="black" stroke-opacity="1" x1="323" y1="463" x2="329" y2="469" />
	<line stroke="black" stroke-opacity="1" x1="317" y1="469" x2="329" y2="469" />
</g>
<g>
	<line stroke-dasharray="4,4" stroke="black" stroke-opacity="1" x1="476" y1="716" x2="476" y2="693" />
	<line stroke="black" stroke-opacity="1" x1="476" y1="687" x2="470" y2="693" />
	<line stroke="black" stroke-opacity="1" x1="476" y1="687" x2="482" y2="693" />
	<line stroke="black" stroke-opacity="1" x1="470" y1="693" x2="482" y2="693" />
</g>
<g>
	<line stroke-dasharray="4,4" stroke="black" stroke-opacity="1" x1="249" y1="716" x2="249" y2="693" />
	<line stroke="black" stroke-opacity="1" x1="249" y1="687" x2="243" y2="693" />
	<line stroke="black" stroke-opacity="1" x1="249" y1="687" x2="255" y2="693" />
	<line stroke="black" stroke-opacity="1" x1="243" y1="693" x2="255" y2="693" />
</g>
<g>
	<line stroke="black" stroke-opacity="1" x1="817" y1="450" x2="817" y2="429" />
	<line stroke="black" stroke-opacity="1" x1="817" y1="423" x2="811" y2="429" />
	<line stroke="black" stroke-opacity="1" x1="817" y1="423" x2="823" y2="429" />
	<line stroke="black" stroke-opacity="1" x1="811" y1="429" x2="823" y2="429" />
</g>
<g>
	<line stroke="black" stroke-opacity="1" x1="784" y1="328" x2="784" y2="382" />
</g>
<g>
	<line stroke="black" stroke-opacity="1" x1="819" y1="287" x2="819" y2="250" />
</g>
<g>
	<line stroke="black" stroke-opacity="1" x1="777" y1="187" x2="737" y2="156" />
</g>
<g>
	<line stroke="black" stroke-opacity="1" x1="817" y1="531" x2="817" y2="491" />
</g>
<g>
	<line stroke="black" stroke-opacity="1" x1="851" y1="382" x2="851" y2="328" />
</g>
<g>
	<line stroke="black" stroke-opacity="1" x1="817" y1="531" x2="817" y2="491" />
</g>
<g>
	<line stroke="black" stroke-opacity="1" x1="189" y1="111" x2="189" y2="80" />
	<line stroke="black" stroke-opacity="1" x1="189" y1="74" x2="183" y2="80" />
	<line stroke="black" stroke-opacity="1" x1="189" y1="74" x2="195" y2="80" />
	<line stroke="black" stroke-opacity="1" x1="183" y1="80" x2="195" y2="80" />
</g>
<g>
	<line stroke="black" stroke-opacity="1" x1="237" y1="42" x2="533" y2="42" />
</g>
<g>
	<rect fill="#808080" stroke="none" stroke-opacity="1" x="232" y="116" width="3" height="57" />
	<rect fill="#808080" stroke="none" stroke-opacity="1" x="146" y="170" width="89" height="3" />
	<rect fill="#ffffc0" stroke="black" stroke-width="1" stroke-opacity="1" x="142" y="112" width="90" height="58" />
	<text font-family="Helvetica" font-size="10" fill="#000000" xml:space="preserve" text-anchor="middle" x="187" y="124">&lt;&lt;interface&gt;&gt;</text>
	<text font-family="Helvetica" font-size="10" fill="#000000" xml:space="preserve" font-weight="bold" text-anchor="middle" x="187" y="145">GL</text>
	<line stroke="black" stroke-opacity="1" x1="142" y1="154" x2="232" y2="154" />
	<line stroke="black" stroke-opacity="1" x1="142" y1="162" x2="232" y2="162" />
</g>
<g>
	<rect fill="#808080" stroke="none" stroke-opacity="1" x="132" y="230" width="3" height="57" />
	<rect fill="#808080" stroke="none" stroke-opacity="1" x="46" y="284" width="89" height="3" />
	<rect fill="#ffffc0" stroke="black" stroke-width="1" stroke-opacity="1" x="42" y="226" width="90" height="58" />
	<text font-family="Helvetica" font-size="10" fill="#000000" xml:space="preserve" text-anchor="middle" x="87" y="238">&lt;&lt;interface&gt;&gt;</text>
	<text font-family="Helvetica" font-size="10" fill="#000000" xml:space="preserve" font-weight="bold" text-anchor="middle" x="87" y="259">GL2ES1</text>
	<line stroke="black" stroke-opacity="1" x1="42" y1="268" x2="132" y2="268" />
	<line stroke="black" stroke-opacity="1" x1="42" y1="276" x2="132" y2="276" />
</g>
<g>
	<rect fill="#808080" stroke="none" stroke-opacity="1" x="292" y="629" width="3" height="57" />
	<rect fill="#808080" stroke="none" stroke-opacity="1" x="206" y="683" width="89" height="3" />
	<rect fill="#ffffc0" stroke="black" stroke-width="1" stroke-opacity="1" x="202" y="625" width="90" height="58" />
	<text font-family="Helvetica" font-size="10" fill="#000000" xml:space="preserve" text-anchor="middle" x="247" y="637">&lt;&lt;interface&gt;&gt;</text>
	<text font-family="Helvetica" font-size="10" fill="#000000" xml:space="preserve" font-weight="bold" text-anchor="middle" x="247" y="658">GL2</text>
	<line stroke="black" stroke-opacity="1" x1="202" y1="667" x2="292" y2="667" />
	<line stroke="black" stroke-opacity="1" x1="202" y1="675" x2="292" y2="675" />
</g>
<g>
	<rect fill="#808080" stroke="none" stroke-opacity="1" x="366" y="230" width="3" height="57" />
	<rect fill="#808080" stroke="none" stroke-opacity="1" x="280" y="284" width="89" height="3" />
	<rect fill="#ffffc0" stroke="black" stroke-width="1" stroke-opacity="1" x="276" y="226" width="90" height="58" />
	<text font-family="Helvetica" font-size="10" fill="#000000" xml:space="preserve" text-anchor="middle" x="321" y="238">&lt;&lt;interface&gt;&gt;</text>
	<text font-family="Helvetica" font-size="10" fill="#000000" xml:space="preserve" font-weight="bold" text-anchor="middle" x="321" y="259">GL2ES2</text>
	<line stroke="black" stroke-opacity="1" x1="276" y1="268" x2="366" y2="268" />
	<line stroke="black" stroke-opacity="1" x1="276" y1="276" x2="366" y2="276" />
</g>
<g>
	<rect fill="#808080" stroke="none" stroke-opacity="1" x="519" y="629" width="3" height="57" />
	<rect fill="#808080" stroke="none" stroke-opacity="1" x="433" y="683" width="89" height="3" />
	<rect fill="#ffffc0" stroke="black" stroke-width="1" stroke-opacity="1" x="429" y="625" width="90" height="58" />
	<text font-family="Helvetica" font-size="10" fill="#000000" xml:space="preserve" text-anchor="middle" x="474" y="637">&lt;&lt;interface&gt;&gt;</text>
	<text font-family="Helvetica" font-size="10" fill="#000000" xml:space="preserve" font-weight="bold" text-anchor="middle" x="474" y="658">GL3</text>
	<line stroke="black" stroke-opacity="1" x1="429" y1="667" x2="519" y2="667" />
	<line stroke="black" stroke-opacity="1" x1="429" y1="675" x2="519" y2="675" />
</g>
<g>
	<rect fill="#808080" stroke="none" stroke-opacity="1" x="367" y="405" width="3" height="57" />
	<rect fill="#808080" stroke="none" stroke-opacity="1" x="281" y="459" width="89" height="3" />
	<rect fill="#ffffc0" stroke="black" stroke-width="1" stroke-opacity="1" x="277" y="401" width="90" height="58" />
	<text font-family="Helvetica" font-size="10" fill="#000000" xml:space="preserve" text-anchor="middle" x="322" y="413">&lt;&lt;interface&gt;&gt;</text>
	<text font-family="Helvetica" font-size="10" fill="#000000" xml:space="preserve" font-weight="bold" text-anchor="middle" x="322" y="434">GLES2</text>
	<line stroke="black" stroke-opacity="1" x1="277" y1="443" x2="367" y2="443" />
	<line stroke="black" stroke-opacity="1" x1="277" y1="451" x2="367" y2="451" />
</g>
<g>
	<rect fill="#808080" stroke="none" stroke-opacity="1" x="606" y="26" width="3" height="35" />
	<rect fill="#808080" stroke="none" stroke-opacity="1" x="538" y="58" width="71" height="3" />
	<rect fill="#ffffc0" stroke="black" stroke-width="1" stroke-opacity="1" x="534" y="22" width="72" height="36" />
	<text font-family="Helvetica" font-size="10" fill="#000000" xml:space="preserve" font-weight="bold" font-style="italic" text-anchor="middle" x="570" y="34">GLContext</text>
	<line stroke="black" stroke-opacity="1" x1="534" y1="43" x2="606" y2="43" />
	<line stroke="black" stroke-opacity="1" x1="534" y1="51" x2="606" y2="51" />
</g>
<g>
	<rect fill="#808080" stroke="none" stroke-opacity="1" x="748" y="120" width="3" height="35" />
	<rect fill="#808080" stroke="none" stroke-opacity="1" x="670" y="152" width="81" height="3" />
	<rect fill="#ffffc0" stroke="black" stroke-width="1" stroke-opacity="1" x="666" y="116" width="82" height="36" />
	<text font-family="Helvetica" font-size="10" fill="#000000" xml:space="preserve" font-weight="bold" font-style="italic" text-anchor="middle" x="707" y="128">GLDrawable</text>
	<line stroke="black" stroke-opacity="1" x1="666" y1="137" x2="748" y2="137" />
	<line stroke="black" stroke-opacity="1" x1="666" y1="145" x2="748" y2="145" />
</g>
<g>
	<line stroke="black" stroke-opacity="1" x1="239" y1="737" x2="259" y2="737" />
	<ellipse fill="#ffffc0" stroke="black" stroke-width="1" stroke-opacity="1" cx="249" cy="727" rx="10" ry="10" />
	<text font-family="Helvetica" font-size="10" fill="#000000" xml:space="preserve" font-weight="bold" text-anchor="middle" x="249" y="749">GL2Impl</text>
	<line stroke="black" stroke-opacity="1" x1="219" y1="758" x2="279" y2="758" />
	<line stroke="black" stroke-opacity="1" x1="219" y1="766" x2="279" y2="766" />
</g>
<g>
	<line stroke="black" stroke-opacity="1" x1="467" y1="737" x2="487" y2="737" />
	<ellipse fill="#ffffc0" stroke="black" stroke-width="1" stroke-opacity="1" cx="477" cy="727" rx="10" ry="10" />
	<text font-family="Helvetica" font-size="10" fill="#000000" xml:space="preserve" font-weight="bold" text-anchor="middle" x="477" y="749">GL3Impl</text>
	<line stroke="black" stroke-opacity="1" x1="447" y1="758" x2="507" y2="758" />
	<line stroke="black" stroke-opacity="1" x1="447" y1="766" x2="507" y2="766" />
</g>
<g>
	<line stroke="black" stroke-opacity="1" x1="313" y1="520" x2="333" y2="520" />
	<ellipse fill="#ffffc0" stroke="black" stroke-width="1" stroke-opacity="1" cx="323" cy="510" rx="10" ry="10" />
	<text font-family="Helvetica" font-size="10" fill="#000000" xml:space="preserve" font-weight="bold" text-anchor="middle" x="323" y="532">GLES2Impl</text>
	<line stroke="black" stroke-opacity="1" x1="284" y1="541" x2="362" y2="541" />
	<line stroke="black" stroke-opacity="1" x1="284" y1="549" x2="362" y2="549" />
</g>
	<text font-family="Helvetica" font-size="10" fill="#000000" xml:space="preserve" x="544" y="655">Desktop final public</text>
	<text font-family="Helvetica" font-size="10" fill="#000000" xml:space="preserve" x="544" y="673">OpenGL Interfaces</text>
	<text font-family="Helvetica" font-size="10" fill="#000000" xml:space="preserve" x="544" y="440">Mobile final public</text>
	<text font-family="Helvetica" font-size="10" fill="#000000" xml:space="preserve" x="544" y="458">OpenGL Interfaces</text>
	<text font-family="Helvetica" font-size="10" fill="#000000" xml:space="preserve" x="26" y="754">Private implementation (detail)</text>
	<text font-family="Helvetica" font-size="10" fill="#000000" xml:space="preserve" x="544" y="264">Desktop/Mobile</text>
	<text font-family="Helvetica" font-size="10" fill="#000000" xml:space="preserve" x="544" y="282">Common Interfaces</text>
<g>
	<rect fill="#808080" stroke="none" stroke-opacity="1" x="865" y="192" width="3" height="57" />
	<rect fill="#808080" stroke="none" stroke-opacity="1" x="773" y="246" width="95" height="3" />
	<rect fill="#ffffc0" stroke="black" stroke-width="1" stroke-opacity="1" x="769" y="188" width="96" height="58" />
	<text font-family="Helvetica" font-size="10" fill="#000000" xml:space="preserve" text-anchor="middle" x="817" y="200">&lt;&lt;interface&gt;&gt;</text>
	<text font-family="Helvetica" font-size="10" fill="#000000" xml:space="preserve" font-weight="bold" text-anchor="middle" x="817" y="221">NativeWindow</text>
	<line stroke="black" stroke-opacity="1" x1="769" y1="230" x2="865" y2="230" />
	<line stroke="black" stroke-opacity="1" x1="769" y1="238" x2="865" y2="238" />
</g>
<g>
	<rect fill="#808080" stroke="none" stroke-opacity="1" x="917" y="292" width="3" height="35" />
	<rect fill="#808080" stroke="none" stroke-opacity="1" x="721" y="324" width="199" height="3" />
	<rect fill="#ffffc0" stroke="black" stroke-width="1" stroke-opacity="1" x="717" y="288" width="200" height="36" />
	<text font-family="Helvetica" font-size="10" fill="#000000" xml:space="preserve" font-weight="bold" font-style="italic" text-anchor="middle" x="817" y="300">AbstractGraphicsConfiguration</text>
	<line stroke="black" stroke-opacity="1" x1="717" y1="309" x2="917" y2="309" />
	<line stroke="black" stroke-opacity="1" x1="717" y1="317" x2="917" y2="317" />
</g>
<g>
	<rect fill="#808080" stroke="none" stroke-opacity="1" x="864" y="455" width="3" height="35" />
	<rect fill="#808080" stroke="none" stroke-opacity="1" x="770" y="487" width="97" height="3" />
	<rect fill="#ffffc0" stroke="black" stroke-width="1" stroke-opacity="1" x="766" y="451" width="98" height="36" />
	<text font-family="Helvetica" font-size="10" fill="#000000" xml:space="preserve" font-weight="bold" text-anchor="middle" x="815" y="463">GLCapabilities</text>
	<line stroke="black" stroke-opacity="1" x1="766" y1="472" x2="864" y2="472" />
	<line stroke="black" stroke-opacity="1" x1="766" y1="480" x2="864" y2="480" />
</g>
<g>
	<rect fill="#808080" stroke="none" stroke-opacity="1" x="849" y="536" width="3" height="35" />
	<rect fill="#808080" stroke="none" stroke-opacity="1" x="787" y="568" width="65" height="3" />
	<rect fill="#ffffc0" stroke="black" stroke-width="1" stroke-opacity="1" x="783" y="532" width="66" height="36" />
	<text font-family="Helvetica" font-size="10" fill="#000000" xml:space="preserve" font-weight="bold" text-anchor="middle" x="816" y="544">GLProfile</text>
	<line stroke="black" stroke-opacity="1" x1="783" y1="553" x2="849" y2="553" />
	<line stroke="black" stroke-opacity="1" x1="783" y1="561" x2="849" y2="561" />
</g>
	<text font-family="Helvetica" font-size="10" fill="#000000" xml:space="preserve" x="784" y="33">Lifecycle: From the lower right to</text>
	<text font-family="Helvetica" font-size="10" fill="#000000" xml:space="preserve" x="784" y="51">the top, left step where the</text>
	<text font-family="Helvetica" font-size="10" fill="#000000" xml:space="preserve" x="784" y="69">GLContext is created with a</text>
	<text font-family="Helvetica" font-size="10" fill="#000000" xml:space="preserve" x="784" y="87">suitable GL implementation</text>
	<text font-family="Helvetica" font-size="10" fill="#000000" xml:space="preserve" x="784" y="105">matching the GLProfile.</text>
<g>
	<rect fill="#808080" stroke="none" stroke-opacity="1" x="233" y="16" width="3" height="57" />
	<rect fill="#808080" stroke="none" stroke-opacity="1" x="147" y="70" width="89" height="3" />
	<rect fill="#ffffc0" stroke="black" stroke-width="1" stroke-opacity="1" x="143" y="12" width="90" height="58" />
	<text font-family="Helvetica" font-size="10" fill="#000000" xml:space="preserve" text-anchor="middle" x="188" y="24">&lt;&lt;interface&gt;&gt;</text>
	<text font-family="Helvetica" font-size="10" fill="#000000" xml:space="preserve" font-weight="bold" text-anchor="middle" x="188" y="45">GLBase</text>
	<line stroke="black" stroke-opacity="1" x1="143" y1="54" x2="233" y2="54" />
	<line stroke="black" stroke-opacity="1" x1="143" y1="62" x2="233" y2="62" />
</g>
	<text font-family="Helvetica" font-size="10" fill="#000000" xml:space="preserve" x="273" y="152">Common GL Stuff</text>
<g>
	<rect fill="#808080" stroke="none" stroke-opacity="1" x="131" y="405" width="3" height="57" />
	<rect fill="#808080" stroke="none" stroke-opacity="1" x="45" y="459" width="89" height="3" />
	<rect fill="#ffffc0" stroke="black" stroke-width="1" stroke-opacity="1" x="41" y="401" width="90" height="58" />
	<text font-family="Helvetica" font-size="10" fill="#000000" xml:space="preserve" text-anchor="middle" x="86" y="413">&lt;&lt;interface&gt;&gt;</text>
	<text font-family="Helvetica" font-size="10" fill="#000000" xml:space="preserve" font-weight="bold" text-anchor="middle" x="86" y="434">GLES1</text>
	<line stroke="black" stroke-opacity="1" x1="41" y1="443" x2="131" y2="443" />
	<line stroke="black" stroke-opacity="1" x1="41" y1="451" x2="131" y2="451" />
</g>
	<text font-family="Helvetica" font-size="10" fill="#000000" xml:space="preserve" x="544" y="341">Common Desktop</text>
	<text font-family="Helvetica" font-size="10" fill="#000000" xml:space="preserve" x="544" y="359">Profile</text>
<g>
	<rect fill="#808080" stroke="none" stroke-opacity="1" x="520" y="318" width="3" height="57" />
	<rect fill="#808080" stroke="none" stroke-opacity="1" x="434" y="372" width="89" height="3" />
	<rect fill="#ffffc0" stroke="black" stroke-width="1" stroke-opacity="1" x="430" y="314" width="90" height="58" />
	<text font-family="Helvetica" font-size="10" fill="#000000" xml:space="preserve" text-anchor="middle" x="475" y="326">&lt;&lt;interface&gt;&gt;</text>
	<text font-family="Helvetica" font-size="10" fill="#000000" xml:space="preserve" font-weight="bold" text-anchor="middle" x="475" y="347">GL2GL3</text>
	<line stroke="black" stroke-opacity="1" x1="430" y1="356" x2="520" y2="356" />
	<line stroke="black" stroke-opacity="1" x1="430" y1="364" x2="520" y2="364" />
</g>
<g>
	<line stroke="black" stroke-opacity="1" x1="78" y1="520" x2="98" y2="520" />
	<ellipse fill="#ffffc0" stroke="black" stroke-width="1" stroke-opacity="1" cx="88" cy="510" rx="10" ry="10" />
	<text font-family="Helvetica" font-size="10" fill="#000000" xml:space="preserve" font-weight="bold" text-anchor="middle" x="88" y="532">GLES1Impl</text>
	<line stroke="black" stroke-opacity="1" x1="49" y1="541" x2="127" y2="541" />
	<line stroke="black" stroke-opacity="1" x1="49" y1="549" x2="127" y2="549" />
</g>
<g>
	<rect fill="#808080" stroke="none" stroke-opacity="1" x="856" y="387" width="3" height="35" />
	<rect fill="#808080" stroke="none" stroke-opacity="1" x="780" y="419" width="79" height="3" />
	<rect fill="#ffffc0" stroke="black" stroke-width="1" stroke-opacity="1" x="776" y="383" width="80" height="36" />
	<text font-family="Helvetica" font-size="10" fill="#000000" xml:space="preserve" font-weight="bold" text-anchor="middle" x="816" y="395">Capabilities</text>
	<line stroke="black" stroke-opacity="1" x1="776" y1="404" x2="856" y2="404" />
	<line stroke="black" stroke-opacity="1" x1="776" y1="412" x2="856" y2="412" />
</g>
<g>
	<text font-family="Helvetica" font-size="10" fill="#000000" xml:space="preserve" x="585" y="76">0..1</text>
</g>
<g>
	<text font-family="Helvetica" font-size="10" fill="#000000" xml:space="preserve" x="652" y="116">1</text>
</g>
<g>
	<text font-family="Helvetica" font-size="10" fill="#000000" xml:space="preserve" x="794" y="370">chosen</text>
</g>
<g>
	<text font-family="Helvetica" font-size="10" fill="#000000" xml:space="preserve" x="767" y="370">1</text>
</g>
<g>
	<text font-family="Helvetica" font-size="10" fill="#000000" xml:space="preserve" x="861" y="370">requested</text>
</g>
<g>
	<text font-family="Helvetica" font-size="10" fill="#000000" xml:space="preserve" x="834" y="370">1</text>
</g>
<g>
	<text font-family="Helvetica" font-size="10" fill="#000000" xml:space="preserve" x="516" y="60">1</text>
</g>
<g>
	<text font-family="Helvetica" font-size="10" fill="#000000" xml:space="preserve" x="247" y="60">1</text>
</g>
</svg>
