<?xml version="1.0" encoding="UTF-8" standalone="no"?>
<!-- Created with Bouml (http://bouml.free.fr/) -->
<!DOCTYPE svg PUBLIC "-//W3C//DTD SVG 1.1//EN" "http://www.w3.org/Graphics/SVG/1.1/DTD/svg11.dtd">
<svg width="1003" height="1180" version="1.1" xmlns="http://www.w3.org/2000/svg">
<g>
	<rect fill="#ededed" stroke="black" stroke-width="1" stroke-opacity="1" x="2" y="195" width="237" height="972" />
	<text font-family="Helvetica" font-size="10" fill="#000000" xml:space="preserve" text-anchor="middle" x="48" y="212">Fixed Function</text>
	<line stroke="black" stroke-opacity="1" x1="2" y1="219" x2="93" y2="219" />
	<line stroke="black" stroke-opacity="1" x1="93" y1="219" x2="105" y2="207" />
	<line stroke="black" stroke-opacity="1" x1="105" y1="207" x2="105" y2="195" />
</g>
<g>
	<line stroke="black" stroke-dasharray="20,4" stroke-opacity="1" x1="2" y1="393" x2="239" y2="393" />
</g>
<g>
	<line stroke="black" stroke-dasharray="20,4" stroke-opacity="1" x1="2" y1="571" x2="239" y2="571" />
</g>
<g>
	<line stroke="black" stroke-dasharray="20,4" stroke-opacity="1" x1="2" y1="306" x2="239" y2="306" />
</g>
<g>
	<rect fill="#c0ffff" stroke="black" stroke-width="1" stroke-opacity="1" x="238" y="195" width="505" height="973" />
	<text font-family="Helvetica" font-size="10" fill="#000000" xml:space="preserve" text-anchor="middle" x="306" y="212">Programmable Shader</text>
	<line stroke="black" stroke-opacity="1" x1="238" y1="219" x2="374" y2="219" />
	<line stroke="black" stroke-opacity="1" x1="374" y1="219" x2="386" y2="207" />
	<line stroke="black" stroke-opacity="1" x1="386" y1="207" x2="386" y2="195" />
</g>
<g>
	<line stroke="black" stroke-dasharray="20,4" stroke-opacity="1" x1="238" y1="394" x2="743" y2="394" />
</g>
<g>
	<line stroke="black" stroke-dasharray="20,4" stroke-opacity="1" x1="238" y1="571" x2="743" y2="571" />
</g>
<g>
	<line stroke="black" stroke-dasharray="20,4" stroke-opacity="1" x1="238" y1="306" x2="743" y2="306" />
</g>
<g>
	<line stroke="black" stroke-opacity="1" x1="114" y1="225" x2="153" y2="178" />
	<line stroke="black" stroke-opacity="1" x1="157" y1="174" x2="148" y2="174" />
	<line stroke="black" stroke-opacity="1" x1="157" y1="174" x2="157" y2="182" />
	<line stroke="black" stroke-opacity="1" x1="148" y1="174" x2="157" y2="182" />
</g>
<g>
	<line stroke="black" stroke-opacity="1" x1="284" y1="225" x2="230" y2="177" />
	<line stroke="black" stroke-opacity="1" x1="226" y1="174" x2="226" y2="182" />
	<line stroke="black" stroke-opacity="1" x1="226" y1="174" x2="234" y2="173" />
	<line stroke="black" stroke-opacity="1" x1="226" y1="182" x2="234" y2="173" />
</g>
<g>
	<line stroke="black" stroke-opacity="1" x1="87" y1="400" x2="87" y2="294" />
	<line stroke="black" stroke-opacity="1" x1="87" y1="288" x2="81" y2="294" />
	<line stroke="black" stroke-opacity="1" x1="87" y1="288" x2="93" y2="294" />
	<line stroke="black" stroke-opacity="1" x1="81" y1="294" x2="93" y2="294" />
</g>
<g>
	<line stroke="black" stroke-opacity="1" x1="322" y1="400" x2="322" y2="294" />
	<line stroke="black" stroke-opacity="1" x1="322" y1="288" x2="316" y2="294" />
	<line stroke="black" stroke-opacity="1" x1="322" y1="288" x2="328" y2="294" />
	<line stroke="black" stroke-opacity="1" x1="316" y1="294" x2="328" y2="294" />
</g>
<g>
	<line stroke="black" stroke-opacity="1" x1="538" y1="683" x2="538" y2="384" />
	<line stroke="black" stroke-opacity="1" x1="538" y1="378" x2="532" y2="384" />
	<line stroke="black" stroke-opacity="1" x1="538" y1="378" x2="544" y2="384" />
	<line stroke="black" stroke-opacity="1" x1="532" y1="384" x2="544" y2="384" />
</g>
<g>
	<line stroke="black" stroke-opacity="1" x1="273" y1="614" x2="500" y2="382" />
	<line stroke="black" stroke-opacity="1" x1="505" y1="378" x2="496" y2="378" />
	<line stroke="black" stroke-opacity="1" x1="505" y1="378" x2="505" y2="386" />
	<line stroke="black" stroke-opacity="1" x1="496" y1="378" x2="505" y2="386" />
</g>
<g>
	<line stroke="black" stroke-opacity="1" x1="492" y1="326" x2="373" y2="277" />
	<line stroke="black" stroke-opacity="1" x1="368" y1="275" x2="371" y2="282" />
	<line stroke="black" stroke-opacity="1" x1="368" y1="275" x2="375" y2="271" />
	<line stroke="black" stroke-opacity="1" x1="371" y1="282" x2="375" y2="271" />
</g>
<g>
	<line stroke="black" stroke-opacity="1" x1="231" y1="614" x2="101" y2="293" />
	<line stroke="black" stroke-opacity="1" x1="99" y1="288" x2="95" y2="295" />
	<line stroke="black" stroke-opacity="1" x1="99" y1="288" x2="106" y2="291" />
	<line stroke="black" stroke-opacity="1" x1="95" y1="295" x2="106" y2="291" />
</g>
<g>
	<line stroke="black" stroke-opacity="1" x1="679" y1="115" x2="601" y2="62" />
</g>
<g>
	<line stroke-dasharray="4,4" stroke="black" stroke-opacity="1" x1="86" y1="483" x2="86" y2="469" />
	<line stroke="black" stroke-opacity="1" x1="86" y1="463" x2="80" y2="469" />
	<line stroke="black" stroke-opacity="1" x1="86" y1="463" x2="92" y2="469" />
	<line stroke="black" stroke-opacity="1" x1="80" y1="469" x2="92" y2="469" />
</g>
<g>
	<line stroke-dasharray="4,4" stroke="black" stroke-opacity="1" x1="323" y1="490" x2="323" y2="469" />
	<line stroke="black" stroke-opacity="1" x1="323" y1="463" x2="317" y2="469" />
	<line stroke="black" stroke-opacity="1" x1="323" y1="463" x2="329" y2="469" />
	<line stroke="black" stroke-opacity="1" x1="317" y1="469" x2="329" y2="469" />
</g>
<g>
	<line stroke-dasharray="4,4" stroke="black" stroke-opacity="1" x1="408" y1="1047" x2="521" y2="751" />
	<line stroke="black" stroke-opacity="1" x1="524" y1="746" x2="516" y2="749" />
	<line stroke="black" stroke-opacity="1" x1="524" y1="746" x2="527" y2="753" />
	<line stroke="black" stroke-opacity="1" x1="516" y1="749" x2="527" y2="753" />
</g>
<g>
	<line stroke="black" stroke-opacity="1" x1="848" y1="466" x2="848" y2="445" />
	<line stroke="black" stroke-opacity="1" x1="848" y1="439" x2="842" y2="445" />
	<line stroke="black" stroke-opacity="1" x1="848" y1="439" x2="854" y2="445" />
	<line stroke="black" stroke-opacity="1" x1="842" y1="445" x2="854" y2="445" />
</g>
<g>
	<line stroke="black" stroke-opacity="1" x1="815" y1="344" x2="815" y2="398" />
</g>
<g>
	<line stroke="black" stroke-opacity="1" x1="850" y1="303" x2="850" y2="266" />
</g>
<g>
	<line stroke="black" stroke-opacity="1" x1="806" y1="203" x2="739" y2="156" />
</g>
<g>
	<line stroke="black" stroke-opacity="1" x1="848" y1="547" x2="848" y2="507" />
</g>
<g>
	<line stroke="black" stroke-opacity="1" x1="882" y1="398" x2="882" y2="344" />
</g>
<g>
	<line stroke="black" stroke-opacity="1" x1="848" y1="547" x2="848" y2="507" />
</g>
<g>
	<line stroke="black" stroke-opacity="1" x1="188" y1="111" x2="188" y2="80" />
	<line stroke="black" stroke-opacity="1" x1="188" y1="74" x2="182" y2="80" />
	<line stroke="black" stroke-opacity="1" x1="188" y1="74" x2="194" y2="80" />
	<line stroke="black" stroke-opacity="1" x1="182" y1="80" x2="194" y2="80" />
</g>
<g>
	<line stroke="black" stroke-opacity="1" x1="235" y1="42" x2="533" y2="42" />
</g>
<g>
	<rect fill="#808080" stroke="none" stroke-opacity="1" x="285" y="765" width="3" height="57" />
	<rect fill="#808080" stroke="none" stroke-opacity="1" x="201" y="819" width="87" height="3" />
	<rect fill="#ffffc0" stroke="black" stroke-width="1" stroke-opacity="1" x="197" y="761" width="88" height="58" />
	<text font-family="Helvetica" font-size="10" fill="#000000" xml:space="preserve" text-anchor="middle" x="241" y="773">&lt;&lt;interface&gt;&gt;</text>
	<text font-family="Helvetica" font-size="10" fill="#000000" xml:space="preserve" font-weight="bold" text-anchor="middle" x="241" y="794">GL3bc</text>
	<line stroke="black" stroke-opacity="1" x1="197" y1="803" x2="285" y2="803" />
	<line stroke="black" stroke-opacity="1" x1="197" y1="811" x2="285" y2="811" />
</g>
<g>
	<rect fill="#808080" stroke="none" stroke-opacity="1" x="130" y="230" width="3" height="57" />
	<rect fill="#808080" stroke="none" stroke-opacity="1" x="46" y="284" width="87" height="3" />
	<rect fill="#ffffc0" stroke="black" stroke-width="1" stroke-opacity="1" x="42" y="226" width="88" height="58" />
	<text font-family="Helvetica" font-size="10" fill="#000000" xml:space="preserve" text-anchor="middle" x="86" y="238">&lt;&lt;interface&gt;&gt;</text>
	<text font-family="Helvetica" font-size="10" fill="#000000" xml:space="preserve" font-weight="bold" text-anchor="middle" x="86" y="259">GL2ES1</text>
	<line stroke="black" stroke-opacity="1" x1="42" y1="268" x2="130" y2="268" />
	<line stroke="black" stroke-opacity="1" x1="42" y1="276" x2="130" y2="276" />
</g>
<g>
	<rect fill="#808080" stroke="none" stroke-opacity="1" x="230" y="116" width="3" height="57" />
	<rect fill="#808080" stroke="none" stroke-opacity="1" x="146" y="170" width="87" height="3" />
	<rect fill="#ffffc0" stroke="black" stroke-width="1" stroke-opacity="1" x="142" y="112" width="88" height="58" />
	<text font-family="Helvetica" font-size="10" fill="#000000" xml:space="preserve" text-anchor="middle" x="186" y="124">&lt;&lt;interface&gt;&gt;</text>
	<text font-family="Helvetica" font-size="10" fill="#000000" xml:space="preserve" font-weight="bold" text-anchor="middle" x="186" y="145">GL</text>
	<line stroke="black" stroke-opacity="1" x1="142" y1="154" x2="230" y2="154" />
	<line stroke="black" stroke-opacity="1" x1="142" y1="162" x2="230" y2="162" />
</g>
<g>
	<rect fill="#808080" stroke="none" stroke-opacity="1" x="129" y="405" width="3" height="57" />
	<rect fill="#808080" stroke="none" stroke-opacity="1" x="45" y="459" width="87" height="3" />
	<rect fill="#ffffc0" stroke="black" stroke-width="1" stroke-opacity="1" x="41" y="401" width="88" height="58" />
	<text font-family="Helvetica" font-size="10" fill="#000000" xml:space="preserve" text-anchor="middle" x="85" y="413">&lt;&lt;interface&gt;&gt;</text>
	<text font-family="Helvetica" font-size="10" fill="#000000" xml:space="preserve" font-weight="bold" text-anchor="middle" x="85" y="434">GLES1</text>
	<line stroke="black" stroke-opacity="1" x1="41" y1="443" x2="129" y2="443" />
	<line stroke="black" stroke-opacity="1" x1="41" y1="451" x2="129" y2="451" />
</g>
<g>
	<rect fill="#808080" stroke="none" stroke-opacity="1" x="287" y="619" width="3" height="57" />
	<rect fill="#808080" stroke="none" stroke-opacity="1" x="203" y="673" width="87" height="3" />
	<rect fill="#ffffc0" stroke="black" stroke-width="1" stroke-opacity="1" x="199" y="615" width="88" height="58" />
	<text font-family="Helvetica" font-size="10" fill="#000000" xml:space="preserve" text-anchor="middle" x="243" y="627">&lt;&lt;interface&gt;&gt;</text>
	<text font-family="Helvetica" font-size="10" fill="#000000" xml:space="preserve" font-weight="bold" text-anchor="middle" x="243" y="648">GL2</text>
	<line stroke="black" stroke-opacity="1" x1="199" y1="657" x2="287" y2="657" />
	<line stroke="black" stroke-opacity="1" x1="199" y1="665" x2="287" y2="665" />
</g>
<g>
	<line stroke="black" stroke-opacity="1" x1="389" y1="1068" x2="409" y2="1068" />
	<ellipse fill="#ffffc0" stroke="black" stroke-width="1" stroke-opacity="1" cx="399" cy="1058" rx="10" ry="10" />
	<text font-family="Helvetica" font-size="10" fill="#000000" xml:space="preserve" font-weight="bold" text-anchor="middle" x="399" y="1080">GL4bcImpl</text>
	<line stroke="black" stroke-opacity="1" x1="361" y1="1089" x2="437" y2="1089" />
	<line stroke="black" stroke-opacity="1" x1="361" y1="1097" x2="437" y2="1097" />
</g>
<g>
	<line stroke="black" stroke-opacity="1" x1="313" y1="511" x2="333" y2="511" />
	<ellipse fill="#ffffc0" stroke="black" stroke-width="1" stroke-opacity="1" cx="323" cy="501" rx="10" ry="10" />
	<text font-family="Helvetica" font-size="10" fill="#000000" xml:space="preserve" font-weight="bold" text-anchor="middle" x="323" y="523">GLES2Impl</text>
	<line stroke="black" stroke-opacity="1" x1="284" y1="532" x2="362" y2="532" />
	<line stroke="black" stroke-opacity="1" x1="284" y1="540" x2="362" y2="540" />
</g>
	<text font-family="Helvetica" font-size="10" fill="#000000" xml:space="preserve" x="20" y="1090">Private implementation (detail)</text>
	<text font-family="Helvetica" font-size="10" fill="#000000" xml:space="preserve" x="606" y="261">Desktop/Mobile</text>
	<text font-family="Helvetica" font-size="10" fill="#000000" xml:space="preserve" x="606" y="279">Common Interfaces</text>
<g>
	<rect fill="#808080" stroke="none" stroke-opacity="1" x="896" y="208" width="3" height="57" />
	<rect fill="#808080" stroke="none" stroke-opacity="1" x="804" y="262" width="95" height="3" />
	<rect fill="#ffffc0" stroke="black" stroke-width="1" stroke-opacity="1" x="800" y="204" width="96" height="58" />
	<text font-family="Helvetica" font-size="10" fill="#000000" xml:space="preserve" text-anchor="middle" x="848" y="216">&lt;&lt;interface&gt;&gt;</text>
	<text font-family="Helvetica" font-size="10" fill="#000000" xml:space="preserve" font-weight="bold" text-anchor="middle" x="848" y="237">NativeWindow</text>
	<line stroke="black" stroke-opacity="1" x1="800" y1="246" x2="896" y2="246" />
	<line stroke="black" stroke-opacity="1" x1="800" y1="254" x2="896" y2="254" />
</g>
	<text font-family="Helvetica" font-size="10" fill="#000000" xml:space="preserve" x="784" y="33">Lifecycle: From the lower right to</text>
	<text font-family="Helvetica" font-size="10" fill="#000000" xml:space="preserve" x="784" y="51">the top, left step where the</text>
	<text font-family="Helvetica" font-size="10" fill="#000000" xml:space="preserve" x="784" y="69">GLContext is created with a suitable</text>
	<text font-family="Helvetica" font-size="10" fill="#000000" xml:space="preserve" x="784" y="87">GL implementation matching the</text>
	<text font-family="Helvetica" font-size="10" fill="#000000" xml:space="preserve" x="784" y="105">GLProfile.</text>
<g>
	<rect fill="#808080" stroke="none" stroke-opacity="1" x="948" y="308" width="3" height="35" />
	<rect fill="#808080" stroke="none" stroke-opacity="1" x="752" y="340" width="199" height="3" />
	<rect fill="#ffffc0" stroke="black" stroke-width="1" stroke-opacity="1" x="748" y="304" width="200" height="36" />
	<text font-family="Helvetica" font-size="10" fill="#000000" xml:space="preserve" font-weight="bold" font-style="italic" text-anchor="middle" x="848" y="316">AbstractGraphicsConfiguration</text>
	<line stroke="black" stroke-opacity="1" x1="748" y1="325" x2="948" y2="325" />
	<line stroke="black" stroke-opacity="1" x1="748" y1="333" x2="948" y2="333" />
</g>
<g>
	<rect fill="#808080" stroke="none" stroke-opacity="1" x="895" y="471" width="3" height="35" />
	<rect fill="#808080" stroke="none" stroke-opacity="1" x="801" y="503" width="97" height="3" />
	<rect fill="#ffffc0" stroke="black" stroke-width="1" stroke-opacity="1" x="797" y="467" width="98" height="36" />
	<text font-family="Helvetica" font-size="10" fill="#000000" xml:space="preserve" font-weight="bold" text-anchor="middle" x="846" y="479">GLCapabilities</text>
	<line stroke="black" stroke-opacity="1" x1="797" y1="488" x2="895" y2="488" />
	<line stroke="black" stroke-opacity="1" x1="797" y1="496" x2="895" y2="496" />
</g>
<g>
	<rect fill="#808080" stroke="none" stroke-opacity="1" x="880" y="552" width="3" height="35" />
	<rect fill="#808080" stroke="none" stroke-opacity="1" x="818" y="584" width="65" height="3" />
	<rect fill="#ffffc0" stroke="black" stroke-width="1" stroke-opacity="1" x="814" y="548" width="66" height="36" />
	<text font-family="Helvetica" font-size="10" fill="#000000" xml:space="preserve" font-weight="bold" text-anchor="middle" x="847" y="560">GLProfile</text>
	<line stroke="black" stroke-opacity="1" x1="814" y1="569" x2="880" y2="569" />
	<line stroke="black" stroke-opacity="1" x1="814" y1="577" x2="880" y2="577" />
</g>
<g>
	<rect fill="#808080" stroke="none" stroke-opacity="1" x="231" y="16" width="3" height="57" />
	<rect fill="#808080" stroke="none" stroke-opacity="1" x="147" y="70" width="87" height="3" />
	<rect fill="#ffffc0" stroke="black" stroke-width="1" stroke-opacity="1" x="143" y="12" width="88" height="58" />
	<text font-family="Helvetica" font-size="10" fill="#000000" xml:space="preserve" text-anchor="middle" x="187" y="24">&lt;&lt;interface&gt;&gt;</text>
	<text font-family="Helvetica" font-size="10" fill="#000000" xml:space="preserve" font-weight="bold" text-anchor="middle" x="187" y="45">GLBase</text>
	<line stroke="black" stroke-opacity="1" x1="143" y1="54" x2="231" y2="54" />
	<line stroke="black" stroke-opacity="1" x1="143" y1="62" x2="231" y2="62" />
</g>
	<text font-family="Helvetica" font-size="10" fill="#000000" xml:space="preserve" x="273" y="152">Common GL Stuff</text>
<g>
	<rect fill="#808080" stroke="none" stroke-opacity="1" x="364" y="230" width="3" height="57" />
	<rect fill="#808080" stroke="none" stroke-opacity="1" x="280" y="284" width="87" height="3" />
	<rect fill="#ffffc0" stroke="black" stroke-width="1" stroke-opacity="1" x="276" y="226" width="88" height="58" />
	<text font-family="Helvetica" font-size="10" fill="#000000" xml:space="preserve" text-anchor="middle" x="320" y="238">&lt;&lt;interface&gt;&gt;</text>
	<text font-family="Helvetica" font-size="10" fill="#000000" xml:space="preserve" font-weight="bold" text-anchor="middle" x="320" y="259">GL2ES2</text>
	<line stroke="black" stroke-opacity="1" x1="276" y1="268" x2="364" y2="268" />
	<line stroke="black" stroke-opacity="1" x1="276" y1="276" x2="364" y2="276" />
</g>
	<text font-family="Helvetica" font-size="10" fill="#000000" xml:space="preserve" x="605" y="653">Desktop final public</text>
	<text font-family="Helvetica" font-size="10" fill="#000000" xml:space="preserve" x="605" y="671">OpenGL Interfaces</text>
<g>
	<rect fill="#808080" stroke="none" stroke-opacity="1" x="580" y="688" width="3" height="57" />
	<rect fill="#808080" stroke="none" stroke-opacity="1" x="496" y="742" width="87" height="3" />
	<rect fill="#ffffc0" stroke="black" stroke-width="1" stroke-opacity="1" x="492" y="684" width="88" height="58" />
	<text font-family="Helvetica" font-size="10" fill="#000000" xml:space="preserve" text-anchor="middle" x="536" y="696">&lt;&lt;interface&gt;&gt;</text>
	<text font-family="Helvetica" font-size="10" fill="#000000" xml:space="preserve" font-weight="bold" text-anchor="middle" x="536" y="717">GL3</text>
	<line stroke="black" stroke-opacity="1" x1="492" y1="726" x2="580" y2="726" />
	<line stroke="black" stroke-opacity="1" x1="492" y1="734" x2="580" y2="734" />
</g>
	<text font-family="Helvetica" font-size="10" fill="#000000" xml:space="preserve" x="607" y="444">Mobile final public</text>
	<text font-family="Helvetica" font-size="10" fill="#000000" xml:space="preserve" x="607" y="462">OpenGL Interfaces</text>
<g>
	<rect fill="#808080" stroke="none" stroke-opacity="1" x="365" y="405" width="3" height="57" />
	<rect fill="#808080" stroke="none" stroke-opacity="1" x="281" y="459" width="87" height="3" />
	<rect fill="#ffffc0" stroke="black" stroke-width="1" stroke-opacity="1" x="277" y="401" width="88" height="58" />
	<text font-family="Helvetica" font-size="10" fill="#000000" xml:space="preserve" text-anchor="middle" x="321" y="413">&lt;&lt;interface&gt;&gt;</text>
	<text font-family="Helvetica" font-size="10" fill="#000000" xml:space="preserve" font-weight="bold" text-anchor="middle" x="321" y="434">GLES2</text>
	<line stroke="black" stroke-opacity="1" x1="277" y1="443" x2="365" y2="443" />
	<line stroke="black" stroke-opacity="1" x1="277" y1="451" x2="365" y2="451" />
</g>
<g>
	<rect fill="#808080" stroke="none" stroke-opacity="1" x="606" y="26" width="3" height="35" />
	<rect fill="#808080" stroke="none" stroke-opacity="1" x="538" y="58" width="71" height="3" />
	<rect fill="#ffffc0" stroke="black" stroke-width="1" stroke-opacity="1" x="534" y="22" width="72" height="36" />
	<text font-family="Helvetica" font-size="10" fill="#000000" xml:space="preserve" font-weight="bold" font-style="italic" text-anchor="middle" x="570" y="34">GLContext</text>
	<line stroke="black" stroke-opacity="1" x1="534" y1="43" x2="606" y2="43" />
	<line stroke="black" stroke-opacity="1" x1="534" y1="51" x2="606" y2="51" />
</g>
<g>
	<rect fill="#808080" stroke="none" stroke-opacity="1" x="748" y="120" width="3" height="35" />
	<rect fill="#808080" stroke="none" stroke-opacity="1" x="670" y="152" width="81" height="3" />
	<rect fill="#ffffc0" stroke="black" stroke-width="1" stroke-opacity="1" x="666" y="116" width="82" height="36" />
	<text font-family="Helvetica" font-size="10" fill="#000000" xml:space="preserve" font-weight="bold" font-style="italic" text-anchor="middle" x="707" y="128">GLDrawable</text>
	<line stroke="black" stroke-opacity="1" x1="666" y1="137" x2="748" y2="137" />
	<line stroke="black" stroke-opacity="1" x1="666" y1="145" x2="748" y2="145" />
</g>
	<text font-family="Helvetica" font-size="10" fill="#000000" xml:space="preserve" x="606" y="346">Common Desktop</text>
	<text font-family="Helvetica" font-size="10" fill="#000000" xml:space="preserve" x="606" y="364">Profile</text>
<g>
	<rect fill="#808080" stroke="none" stroke-opacity="1" x="579" y="848" width="3" height="57" />
	<rect fill="#808080" stroke="none" stroke-opacity="1" x="495" y="902" width="87" height="3" />
	<rect fill="#ffffc0" stroke="black" stroke-width="1" stroke-opacity="1" x="491" y="844" width="88" height="58" />
	<text font-family="Helvetica" font-size="10" fill="#000000" xml:space="preserve" text-anchor="middle" x="535" y="856">&lt;&lt;interface&gt;&gt;</text>
	<text font-family="Helvetica" font-size="10" fill="#000000" xml:space="preserve" font-weight="bold" text-anchor="middle" x="535" y="877">GL4</text>
	<line stroke="black" stroke-opacity="1" x1="491" y1="886" x2="579" y2="886" />
	<line stroke="black" stroke-opacity="1" x1="491" y1="894" x2="579" y2="894" />
</g>
<g>
	<rect fill="#808080" stroke="none" stroke-opacity="1" x="285" y="909" width="3" height="57" />
	<rect fill="#808080" stroke="none" stroke-opacity="1" x="201" y="963" width="87" height="3" />
	<rect fill="#ffffc0" stroke="black" stroke-width="1" stroke-opacity="1" x="197" y="905" width="88" height="58" />
	<text font-family="Helvetica" font-size="10" fill="#000000" xml:space="preserve" text-anchor="middle" x="241" y="917">&lt;&lt;interface&gt;&gt;</text>
	<text font-family="Helvetica" font-size="10" fill="#000000" xml:space="preserve" font-weight="bold" text-anchor="middle" x="241" y="938">GL4bc</text>
	<line stroke="black" stroke-opacity="1" x1="197" y1="947" x2="285" y2="947" />
	<line stroke="black" stroke-opacity="1" x1="197" y1="955" x2="285" y2="955" />
</g>
<g>
	<line stroke="black" stroke-opacity="1" x1="206" y1="308" x2="226" y2="308" />
	<ellipse fill="#ffffc0" stroke="black" stroke-width="1" stroke-opacity="1" cx="216" cy="298" rx="10" ry="10" />
	<text font-family="Helvetica" font-size="10" fill="#000000" xml:space="preserve" font-weight="bold" text-anchor="middle" x="216" y="320">GL2ES12</text>
	<line stroke="black" stroke-opacity="1" x1="184" y1="329" x2="248" y2="329" />
	<line stroke="black" stroke-opacity="1" x1="184" y1="337" x2="248" y2="337" />
</g>
<g>
	<line stroke="black" stroke-opacity="1" x1="289" y1="778" x2="485" y2="726" />
	<line stroke="black" stroke-opacity="1" x1="491" y1="725" x2="483" y2="720" />
	<line stroke="black" stroke-opacity="1" x1="491" y1="725" x2="486" y2="732" />
	<line stroke="black" stroke-opacity="1" x1="483" y1="720" x2="486" y2="732" />
</g>
<g>
	<line stroke-dasharray="4,4" stroke="black" stroke-opacity="1" x1="417" y1="1047" x2="510" y2="910" />
	<line stroke="black" stroke-opacity="1" x1="514" y1="906" x2="505" y2="907" />
	<line stroke="black" stroke-opacity="1" x1="514" y1="906" x2="515" y2="914" />
	<line stroke="black" stroke-opacity="1" x1="505" y1="907" x2="515" y2="914" />
</g>
<g>
	<line stroke-dasharray="4,4" stroke="black" stroke-opacity="1" x1="248" y1="296" x2="269" y2="283" />
	<line stroke="black" stroke-opacity="1" x1="275" y1="280" x2="266" y2="277" />
	<line stroke="black" stroke-opacity="1" x1="275" y1="280" x2="272" y2="288" />
	<line stroke="black" stroke-opacity="1" x1="266" y1="277" x2="272" y2="288" />
</g>
<g>
	<line stroke-dasharray="4,4" stroke="black" stroke-opacity="1" x1="388" y1="1047" x2="257" y2="682" />
	<line stroke="black" stroke-opacity="1" x1="255" y1="677" x2="251" y2="684" />
	<line stroke="black" stroke-opacity="1" x1="255" y1="677" x2="262" y2="680" />
	<line stroke="black" stroke-opacity="1" x1="251" y1="684" x2="262" y2="680" />
</g>
<g>
	<line stroke="black" stroke-opacity="1" x1="243" y1="760" x2="243" y2="682" />
	<line stroke="black" stroke-opacity="1" x1="244" y1="677" x2="237" y2="682" />
	<line stroke="black" stroke-opacity="1" x1="244" y1="677" x2="249" y2="683" />
	<line stroke="black" stroke-opacity="1" x1="237" y1="682" x2="249" y2="683" />
</g>
<g>
	<line stroke="black" stroke-opacity="1" x1="243" y1="904" x2="243" y2="829" />
	<line stroke="black" stroke-opacity="1" x1="243" y1="823" x2="237" y2="829" />
	<line stroke="black" stroke-opacity="1" x1="243" y1="823" x2="249" y2="829" />
	<line stroke="black" stroke-opacity="1" x1="237" y1="829" x2="249" y2="829" />
</g>
<g>
	<line stroke-dasharray="4,4" stroke="black" stroke-opacity="1" x1="183" y1="300" x2="139" y2="279" />
	<line stroke="black" stroke-opacity="1" x1="134" y1="277" x2="136" y2="284" />
	<line stroke="black" stroke-opacity="1" x1="134" y1="277" x2="141" y2="274" />
	<line stroke="black" stroke-opacity="1" x1="136" y1="284" x2="141" y2="274" />
</g>
<g>
	<line stroke="black" stroke-opacity="1" x1="537" y1="843" x2="537" y2="752" />
	<line stroke="black" stroke-opacity="1" x1="537" y1="746" x2="531" y2="752" />
	<line stroke="black" stroke-opacity="1" x1="537" y1="746" x2="543" y2="752" />
	<line stroke="black" stroke-opacity="1" x1="531" y1="752" x2="543" y2="752" />
</g>
<g>
	<line stroke="black" stroke-opacity="1" x1="289" y1="925" x2="484" y2="884" />
	<line stroke="black" stroke-opacity="1" x1="490" y1="883" x2="482" y2="878" />
	<line stroke="black" stroke-opacity="1" x1="490" y1="883" x2="485" y2="890" />
	<line stroke="black" stroke-opacity="1" x1="482" y1="878" x2="485" y2="890" />
</g>
<g>
	<line stroke-dasharray="4,4" stroke="black" stroke-opacity="1" x1="366" y1="1047" x2="281" y2="971" />
	<line stroke="black" stroke-opacity="1" x1="277" y1="967" x2="277" y2="975" />
	<line stroke="black" stroke-opacity="1" x1="277" y1="967" x2="285" y2="966" />
	<line stroke="black" stroke-opacity="1" x1="277" y1="975" x2="285" y2="966" />
</g>
<g>
	<line stroke-dasharray="4,4" stroke="black" stroke-opacity="1" x1="383" y1="1047" x2="262" y2="828" />
	<line stroke="black" stroke-opacity="1" x1="260" y1="823" x2="257" y2="831" />
	<line stroke="black" stroke-opacity="1" x1="260" y1="823" x2="268" y2="825" />
	<line stroke="black" stroke-opacity="1" x1="257" y1="831" x2="268" y2="825" />
</g>
<g>
	<line stroke="black" stroke-opacity="1" x1="76" y1="504" x2="96" y2="504" />
	<ellipse fill="#ffffc0" stroke="black" stroke-width="1" stroke-opacity="1" cx="86" cy="494" rx="10" ry="10" />
	<text font-family="Helvetica" font-size="10" fill="#000000" xml:space="preserve" font-weight="bold" text-anchor="middle" x="86" y="516">GLES1Impl</text>
	<line stroke="black" stroke-opacity="1" x1="47" y1="525" x2="125" y2="525" />
	<line stroke="black" stroke-opacity="1" x1="47" y1="533" x2="125" y2="533" />
</g>
<g>
	<rect fill="#808080" stroke="none" stroke-opacity="1" x="887" y="403" width="3" height="35" />
	<rect fill="#808080" stroke="none" stroke-opacity="1" x="811" y="435" width="79" height="3" />
	<rect fill="#ffffc0" stroke="black" stroke-width="1" stroke-opacity="1" x="807" y="399" width="80" height="36" />
	<text font-family="Helvetica" font-size="10" fill="#000000" xml:space="preserve" font-weight="bold" text-anchor="middle" x="847" y="411">Capabilities</text>
	<line stroke="black" stroke-opacity="1" x1="807" y1="420" x2="887" y2="420" />
	<line stroke="black" stroke-opacity="1" x1="807" y1="428" x2="887" y2="428" />
</g>
<g>
	<rect fill="#808080" stroke="none" stroke-opacity="1" x="581" y="320" width="3" height="57" />
	<rect fill="#808080" stroke="none" stroke-opacity="1" x="497" y="374" width="87" height="3" />
	<rect fill="#ffffc0" stroke="black" stroke-width="1" stroke-opacity="1" x="493" y="316" width="88" height="58" />
	<text font-family="Helvetica" font-size="10" fill="#000000" xml:space="preserve" text-anchor="middle" x="537" y="328">&lt;&lt;interface&gt;&gt;</text>
	<text font-family="Helvetica" font-size="10" fill="#000000" xml:space="preserve" font-weight="bold" text-anchor="middle" x="537" y="349">GL2GL3</text>
	<line stroke="black" stroke-opacity="1" x1="493" y1="358" x2="581" y2="358" />
	<line stroke="black" stroke-opacity="1" x1="493" y1="366" x2="581" y2="366" />
</g>
<g>
	<text font-family="Helvetica" font-size="10" fill="#000000" xml:space="preserve" x="585" y="76">0..1</text>
</g>
<g>
	<text font-family="Helvetica" font-size="10" fill="#000000" xml:space="preserve" x="652" y="116">1</text>
</g>
<g>
	<text font-family="Helvetica" font-size="10" fill="#000000" xml:space="preserve" x="825" y="386">chosen</text>
</g>
<g>
	<text font-family="Helvetica" font-size="10" fill="#000000" xml:space="preserve" x="798" y="386">1</text>
</g>
<g>
	<text font-family="Helvetica" font-size="10" fill="#000000" xml:space="preserve" x="892" y="386">requested</text>
</g>
<g>
	<text font-family="Helvetica" font-size="10" fill="#000000" xml:space="preserve" x="865" y="386">1</text>
</g>
<g>
	<text font-family="Helvetica" font-size="10" fill="#000000" xml:space="preserve" x="516" y="60">1</text>
</g>
<g>
	<text font-family="Helvetica" font-size="10" fill="#000000" xml:space="preserve" x="247" y="60">1</text>
</g>
</svg>
